<svg width="256" height="56" viewBox="0 0 256 56" fill="none" xmlns="http://www.w3.org/2000/svg">
<rect x="0.568359" y="0.5" width="254" height="55" rx="9.5" fill="#2A3647"/>
<rect x="0.568359" y="0.5" width="254" height="55" rx="9.5" stroke="#2A3647"/>
<path d="M20.0282 35.5H16.568L21.8404 20.2273H26.0016L31.2665 35.5H27.8063L23.9806 23.7173H23.8613L20.0282 35.5ZM19.812 29.4968H27.9853V32.0174H19.812V29.4968ZM36.7328 35.6864C35.8627 35.6864 35.0748 35.4627 34.3688 35.0153C33.6678 34.5629 33.111 33.8991 32.6983 33.0241C32.2907 32.1442 32.0868 31.0653 32.0868 29.7876C32.0868 28.4751 32.2981 27.3839 32.7207 26.5138C33.1433 25.6388 33.7051 24.9851 34.4061 24.5526C35.112 24.1151 35.8851 23.8963 36.7253 23.8963C37.3667 23.8963 37.9011 24.0057 38.3287 24.2244C38.7612 24.4382 39.1092 24.7067 39.3727 25.0298C39.6412 25.348 39.845 25.6612 39.9842 25.9695H40.0811V20.2273H43.2505V35.5H40.1184V33.6655H39.9842C39.835 33.9837 39.6238 34.2994 39.3503 34.6126C39.0819 34.9208 38.7314 35.1768 38.2988 35.3807C37.8713 35.5845 37.3493 35.6864 36.7328 35.6864ZM37.7395 33.1584C38.2516 33.1584 38.6841 33.0192 39.0371 32.7408C39.3951 32.4574 39.6685 32.0621 39.8574 31.555C40.0513 31.0479 40.1483 30.4538 40.1483 29.7727C40.1483 29.0916 40.0538 28.5 39.8649 27.9979C39.676 27.4957 39.4025 27.108 39.0446 26.8345C38.6866 26.5611 38.2516 26.4244 37.7395 26.4244C37.2175 26.4244 36.7775 26.5661 36.4196 26.8494C36.0616 27.1328 35.7907 27.5256 35.6067 28.0277C35.4228 28.5298 35.3308 29.1115 35.3308 29.7727C35.3308 30.4389 35.4228 31.0281 35.6067 31.5401C35.7956 32.0472 36.0666 32.445 36.4196 32.7333C36.7775 33.0167 37.2175 33.1584 37.7395 33.1584ZM50.0834 35.6864C49.2133 35.6864 48.4253 35.4627 47.7194 35.0153C47.0184 34.5629 46.4616 33.8991 46.0489 33.0241C45.6412 32.1442 45.4374 31.0653 45.4374 29.7876C45.4374 28.4751 45.6487 27.3839 46.0713 26.5138C46.4939 25.6388 47.0557 24.9851 47.7567 24.5526C48.4626 24.1151 49.2357 23.8963 50.0759 23.8963C50.7172 23.8963 51.2517 24.0057 51.6792 24.2244C52.1118 24.4382 52.4598 24.7067 52.7233 25.0298C52.9917 25.348 53.1956 25.6612 53.3348 25.9695H53.4317V20.2273H56.6011V35.5H53.469V33.6655H53.3348C53.1856 33.9837 52.9743 34.2994 52.7009 34.6126C52.4324 34.9208 52.0819 35.1768 51.6494 35.3807C51.2219 35.5845 50.6998 35.6864 50.0834 35.6864ZM51.0901 33.1584C51.6022 33.1584 52.0347 33.0192 52.3877 32.7408C52.7456 32.4574 53.0191 32.0621 53.208 31.555C53.4019 31.0479 53.4988 30.4538 53.4988 29.7727C53.4988 29.0916 53.4044 28.5 53.2155 27.9979C53.0265 27.4957 52.7531 27.108 52.3952 26.8345C52.0372 26.5611 51.6022 26.4244 51.0901 26.4244C50.5681 26.4244 50.1281 26.5661 49.7702 26.8494C49.4122 27.1328 49.1412 27.5256 48.9573 28.0277C48.7733 28.5298 48.6814 29.1115 48.6814 29.7727C48.6814 30.4389 48.7733 31.0281 48.9573 31.5401C49.1462 32.0472 49.4172 32.445 49.7702 32.7333C50.1281 33.0167 50.5681 33.1584 51.0901 33.1584ZM67.2503 28.8778V35.5H64.0734V24.0455H67.1011V26.0664H67.2354C67.4889 25.4002 67.914 24.8732 68.5106 24.4854C69.1072 24.0927 69.8305 23.8963 70.6807 23.8963C71.4761 23.8963 72.1697 24.0703 72.7613 24.4183C73.3529 24.7663 73.8128 25.2635 74.1409 25.9098C74.469 26.5511 74.6331 27.3168 74.6331 28.2067V35.5H71.4562V28.7734C71.4612 28.0724 71.2822 27.5256 70.9193 27.1328C70.5564 26.7351 70.0567 26.5362 69.4204 26.5362C68.9928 26.5362 68.615 26.6282 68.2868 26.8121C67.9637 26.9961 67.7101 27.2646 67.5262 27.6175C67.3472 27.9656 67.2552 28.3857 67.2503 28.8778ZM82.3571 35.7237C81.1788 35.7237 80.1646 35.4851 79.3145 35.0078C78.4693 34.5256 77.818 33.8445 77.3606 32.9645C76.9032 32.0795 76.6745 31.033 76.6745 29.8249C76.6745 28.6467 76.9032 27.6126 77.3606 26.7227C77.818 25.8327 78.4618 25.1392 79.2921 24.642C80.1273 24.1449 81.1067 23.8963 82.2303 23.8963C82.986 23.8963 83.6895 24.0181 84.3407 24.2617C84.997 24.5004 85.5687 24.8608 86.0559 25.343C86.5481 25.8253 86.9309 26.4318 87.2044 27.1626C87.4778 27.8885 87.6145 28.7386 87.6145 29.7131V30.5856H77.9423V28.6168H84.6241C84.6241 28.1594 84.5247 27.7543 84.3258 27.4013C84.127 27.0483 83.851 26.7724 83.498 26.5735C83.15 26.3697 82.7449 26.2678 82.2825 26.2678C81.8002 26.2678 81.3727 26.3796 80.9998 26.6033C80.6319 26.8221 80.3436 27.1179 80.1348 27.4908C79.926 27.8587 79.8191 28.2688 79.8141 28.7212V30.593C79.8141 31.1598 79.9185 31.6495 80.1273 32.0621C80.3411 32.4748 80.6419 32.793 81.0297 33.0167C81.4174 33.2404 81.8773 33.3523 82.4093 33.3523C82.7623 33.3523 83.0854 33.3026 83.3787 33.2031C83.6721 33.1037 83.9231 32.9545 84.1319 32.7557C84.3407 32.5568 84.4998 32.3132 84.6092 32.0249L87.5474 32.2188C87.3983 32.9247 87.0925 33.5412 86.6301 34.0682C86.1728 34.5902 85.5811 34.9979 84.8553 35.2912C84.1344 35.5795 83.3017 35.7237 82.3571 35.7237ZM91.8652 35.5L88.748 24.0455H91.9622L93.737 31.7415H93.8414L95.6909 24.0455H98.8453L100.725 31.6967H100.822L102.567 24.0455H105.773L102.664 35.5H99.3002L97.3315 28.2962H97.1898L95.2211 35.5H91.8652ZM117.504 35.7237C116.33 35.7237 115.321 35.4751 114.476 34.978C113.636 34.4759 112.99 33.7798 112.537 32.8899C112.09 32 111.866 30.9759 111.866 29.8175C111.866 28.6442 112.092 27.6151 112.545 26.7301C113.002 25.8402 113.651 25.1467 114.491 24.6495C115.331 24.1474 116.33 23.8963 117.489 23.8963C118.488 23.8963 119.363 24.0778 120.114 24.4407C120.865 24.8036 121.459 25.3132 121.896 25.9695C122.334 26.6257 122.575 27.3963 122.619 28.2812H119.622C119.537 27.7095 119.313 27.2496 118.95 26.9016C118.593 26.5487 118.123 26.3722 117.541 26.3722C117.049 26.3722 116.619 26.5064 116.251 26.7749C115.888 27.0384 115.605 27.4237 115.401 27.9308C115.197 28.4379 115.095 29.0518 115.095 29.7727C115.095 30.5036 115.194 31.125 115.393 31.6371C115.597 32.1491 115.883 32.5394 116.251 32.8079C116.619 33.0763 117.049 33.2106 117.541 33.2106C117.904 33.2106 118.23 33.136 118.518 32.9869C118.811 32.8377 119.052 32.6214 119.241 32.3381C119.435 32.0497 119.562 31.7042 119.622 31.3015H122.619C122.57 32.1765 122.331 32.9471 121.904 33.6133C121.481 34.2745 120.897 34.7915 120.151 35.1644C119.405 35.5373 118.523 35.7237 117.504 35.7237ZM129.829 35.7237C128.671 35.7237 127.669 35.4776 126.824 34.9854C125.983 34.4883 125.335 33.7972 124.877 32.9123C124.42 32.0224 124.191 30.9908 124.191 29.8175C124.191 28.6342 124.42 27.6001 124.877 26.7152C125.335 25.8253 125.983 25.1342 126.824 24.642C127.669 24.1449 128.671 23.8963 129.829 23.8963C130.987 23.8963 131.987 24.1449 132.827 24.642C133.672 25.1342 134.323 25.8253 134.781 26.7152C135.238 27.6001 135.467 28.6342 135.467 29.8175C135.467 30.9908 135.238 32.0224 134.781 32.9123C134.323 33.7972 133.672 34.4883 132.827 34.9854C131.987 35.4776 130.987 35.7237 129.829 35.7237ZM129.844 33.2628C130.371 33.2628 130.811 33.1136 131.164 32.8153C131.517 32.5121 131.783 32.0994 131.962 31.5774C132.146 31.0554 132.238 30.4613 132.238 29.7951C132.238 29.1289 132.146 28.5348 131.962 28.0128C131.783 27.4908 131.517 27.0781 131.164 26.7749C130.811 26.4716 130.371 26.32 129.844 26.32C129.312 26.32 128.864 26.4716 128.502 26.7749C128.144 27.0781 127.873 27.4908 127.689 28.0128C127.51 28.5348 127.42 29.1289 127.42 29.7951C127.42 30.4613 127.51 31.0554 127.689 31.5774C127.873 32.0994 128.144 32.5121 128.502 32.8153C128.864 33.1136 129.312 33.2628 129.844 33.2628ZM140.709 28.8778V35.5H137.532V24.0455H140.56V26.0664H140.694C140.948 25.4002 141.373 24.8732 141.97 24.4854C142.566 24.0927 143.29 23.8963 144.14 23.8963C144.935 23.8963 145.629 24.0703 146.22 24.4183C146.812 24.7663 147.272 25.2635 147.6 25.9098C147.928 26.5511 148.092 27.3168 148.092 28.2067V35.5H144.915V28.7734C144.92 28.0724 144.741 27.5256 144.378 27.1328C144.015 26.7351 143.516 26.5362 142.879 26.5362C142.452 26.5362 142.074 26.6282 141.746 26.8121C141.423 26.9961 141.169 27.2646 140.985 27.6175C140.806 27.9656 140.714 28.3857 140.709 28.8778ZM156.689 24.0455V26.4318H149.79V24.0455H156.689ZM151.357 21.3011H154.533V31.9801C154.533 32.2734 154.578 32.5021 154.668 32.6662C154.757 32.8253 154.881 32.9371 155.04 33.0018C155.205 33.0664 155.393 33.0987 155.607 33.0987C155.756 33.0987 155.906 33.0863 156.055 33.0614C156.204 33.0316 156.318 33.0092 156.398 32.9943L156.897 35.3583C156.738 35.408 156.515 35.4652 156.226 35.5298C155.938 35.5994 155.587 35.6417 155.175 35.6566C154.409 35.6864 153.738 35.5845 153.161 35.3509C152.589 35.1172 152.145 34.7543 151.826 34.2621C151.508 33.7699 151.352 33.1484 151.357 32.3977V21.3011ZM162.024 35.7163C161.294 35.7163 160.642 35.5895 160.07 35.3359C159.499 35.0774 159.046 34.6971 158.713 34.195C158.385 33.6879 158.221 33.0565 158.221 32.3008C158.221 31.6644 158.338 31.13 158.572 30.6974C158.805 30.2649 159.123 29.9169 159.526 29.6534C159.929 29.3899 160.386 29.1911 160.898 29.0568C161.415 28.9226 161.957 28.8281 162.524 28.7734C163.19 28.7038 163.727 28.6392 164.135 28.5795C164.542 28.5149 164.838 28.4205 165.022 28.2962C165.206 28.1719 165.298 27.9879 165.298 27.7443V27.6996C165.298 27.2273 165.149 26.8619 164.851 26.6033C164.557 26.3448 164.14 26.2156 163.598 26.2156C163.026 26.2156 162.571 26.3423 162.233 26.5959C161.895 26.8445 161.671 27.1577 161.562 27.5355L158.624 27.2969C158.773 26.6009 159.066 25.9993 159.504 25.4922C159.941 24.9801 160.506 24.5874 161.197 24.3139C161.893 24.0355 162.698 23.8963 163.613 23.8963C164.249 23.8963 164.858 23.9709 165.44 24.12C166.026 24.2692 166.546 24.5004 166.998 24.8136C167.456 25.1268 167.816 25.5295 168.08 26.0217C168.343 26.5089 168.475 27.093 168.475 27.7741V35.5H165.462V33.9116H165.373C165.189 34.2695 164.943 34.5852 164.634 34.8587C164.326 35.1271 163.956 35.3384 163.523 35.4925C163.091 35.6417 162.591 35.7163 162.024 35.7163ZM162.934 33.5238C163.401 33.5238 163.814 33.4318 164.172 33.2479C164.53 33.0589 164.811 32.8054 165.015 32.4872C165.219 32.169 165.32 31.8086 165.32 31.4059V30.1903C165.221 30.255 165.084 30.3146 164.91 30.3693C164.741 30.419 164.55 30.4663 164.336 30.511C164.122 30.5508 163.909 30.5881 163.695 30.6229C163.481 30.6527 163.287 30.68 163.113 30.7049C162.74 30.7596 162.415 30.8466 162.136 30.9659C161.858 31.0852 161.642 31.2468 161.487 31.4506C161.333 31.6495 161.256 31.8981 161.256 32.1964C161.256 32.6289 161.413 32.9595 161.726 33.1882C162.044 33.4119 162.447 33.5238 162.934 33.5238ZM176.115 35.7237C174.942 35.7237 173.933 35.4751 173.087 34.978C172.247 34.4759 171.601 33.7798 171.148 32.8899C170.701 32 170.477 30.9759 170.477 29.8175C170.477 28.6442 170.703 27.6151 171.156 26.7301C171.613 25.8402 172.262 25.1467 173.102 24.6495C173.942 24.1474 174.942 23.8963 176.1 23.8963C177.099 23.8963 177.974 24.0778 178.725 24.4407C179.476 24.8036 180.07 25.3132 180.507 25.9695C180.945 26.6257 181.186 27.3963 181.231 28.2812H178.233C178.148 27.7095 177.925 27.2496 177.562 26.9016C177.204 26.5487 176.734 26.3722 176.152 26.3722C175.66 26.3722 175.23 26.5064 174.862 26.7749C174.499 27.0384 174.216 27.4237 174.012 27.9308C173.808 28.4379 173.706 29.0518 173.706 29.7727C173.706 30.5036 173.806 31.125 174.005 31.6371C174.208 32.1491 174.494 32.5394 174.862 32.8079C175.23 33.0763 175.66 33.2106 176.152 33.2106C176.515 33.2106 176.841 33.136 177.129 32.9869C177.423 32.8377 177.664 32.6214 177.853 32.3381C178.047 32.0497 178.173 31.7042 178.233 31.3015H181.231C181.181 32.1765 180.942 32.9471 180.515 33.6133C180.092 34.2745 179.508 34.7915 178.762 35.1644C178.017 35.5373 177.134 35.7237 176.115 35.7237ZM189.358 24.0455V26.4318H182.459V24.0455H189.358ZM184.025 21.3011H187.202V31.9801C187.202 32.2734 187.247 32.5021 187.337 32.6662C187.426 32.8253 187.55 32.9371 187.709 33.0018C187.873 33.0664 188.062 33.0987 188.276 33.0987C188.425 33.0987 188.574 33.0863 188.724 33.0614C188.873 33.0316 188.987 33.0092 189.067 32.9943L189.566 35.3583C189.407 35.408 189.184 35.4652 188.895 35.5298C188.607 35.5994 188.256 35.6417 187.844 35.6566C187.078 35.6864 186.407 35.5845 185.83 35.3509C185.258 35.1172 184.813 34.7543 184.495 34.2621C184.177 33.7699 184.021 33.1484 184.025 32.3977V21.3011Z" fill="white"/>
<mask id="mask0_128_3354" style="mask-type:alpha" maskUnits="userSpaceOnUse" x="207" y="12" width="33" height="32">
<rect x="207.068" y="12" width="32" height="32" fill="#D9D9D9"/>
</mask>
<g mask="url(#mask0_128_3354)">
<path d="M232.397 30.6667C232.082 30.6667 231.818 30.5602 231.607 30.3473C231.396 30.1343 231.29 29.8704 231.29 29.5556V26.4445H228.179C227.864 26.4445 227.6 26.3376 227.387 26.1239C227.175 25.9102 227.068 25.6454 227.068 25.3295C227.068 25.0136 227.175 24.7501 227.387 24.5389C227.6 24.3278 227.864 24.2223 228.179 24.2223H231.29V21.1111C231.29 20.7963 231.397 20.5325 231.611 20.3195C231.825 20.1065 232.089 20 232.405 20C232.721 20 232.985 20.1065 233.196 20.3195C233.407 20.5325 233.512 20.7963 233.512 21.1111V24.2223H236.624C236.938 24.2223 237.202 24.3291 237.415 24.5428C237.628 24.7566 237.735 25.0214 237.735 25.3373C237.735 25.6532 237.628 25.9167 237.415 26.1278C237.202 26.3389 236.938 26.4445 236.624 26.4445H233.512V29.5556C233.512 29.8704 233.406 30.1343 233.192 30.3473C232.978 30.5602 232.713 30.6667 232.397 30.6667ZM219.068 27.9778C217.601 27.9778 216.383 27.4926 215.412 26.5223C214.442 25.5519 213.957 24.3334 213.957 22.8667C213.957 21.4 214.442 20.1815 215.412 19.2112C216.383 18.2408 217.601 17.7556 219.068 17.7556C220.535 17.7556 221.753 18.2408 222.724 19.2112C223.694 20.1815 224.179 21.4 224.179 22.8667C224.179 24.3334 223.694 25.5519 222.724 26.5223C221.753 27.4926 220.535 27.9778 219.068 27.9778ZM209.512 38.6667C209.198 38.6667 208.934 38.5602 208.721 38.3473C208.508 38.1343 208.401 37.8704 208.401 37.5556V35.3334C208.401 34.563 208.6 33.8612 208.996 33.2279C209.392 32.5945 209.935 32.1186 210.624 31.8C212.194 31.0815 213.648 30.5649 214.987 30.25C216.325 29.9352 217.684 29.7779 219.064 29.7779C220.445 29.7779 221.805 29.9352 223.146 30.25C224.487 30.5649 225.935 31.0815 227.49 31.8C228.179 32.1334 228.725 32.613 229.129 33.2389C229.533 33.8649 229.735 34.563 229.735 35.3334V37.5556C229.735 37.8704 229.628 38.1343 229.415 38.3473C229.202 38.5602 228.938 38.6667 228.624 38.6667H209.512ZM210.624 36.4445H227.513V35.3334C227.513 35.0149 227.433 34.7149 227.274 34.4334C227.114 34.1519 226.875 33.9408 226.557 33.8C225.12 33.0963 223.831 32.6204 222.69 32.3723C221.55 32.1241 220.342 32 219.068 32C217.794 32 216.587 32.1278 215.446 32.3834C214.305 32.6389 213.009 33.1112 211.557 33.8C211.268 33.9408 211.04 34.1519 210.874 34.4334C210.707 34.7149 210.624 35.0149 210.624 35.3334V36.4445ZM219.068 25.7556C219.89 25.7556 220.577 25.4797 221.129 24.9278C221.681 24.376 221.957 23.6889 221.957 22.8667C221.957 22.0445 221.681 21.3575 221.129 20.8056C220.577 20.2537 219.89 19.9778 219.068 19.9778C218.246 19.9778 217.559 20.2537 217.007 20.8056C216.455 21.3575 216.179 22.0445 216.179 22.8667C216.179 23.6889 216.455 24.376 217.007 24.9278C217.559 25.4797 218.246 25.7556 219.068 25.7556Z" fill="white"/>
</g>
</svg>
