<svg width="232" height="47" viewBox="0 0 232 47" fill="none" xmlns="http://www.w3.org/2000/svg">
<rect width="232.003" height="46" transform="translate(-0.00158691 0.98291)" fill="#091931"/>
<mask id="mask0_165003_5117" style="mask-type:alpha" maskUnits="userSpaceOnUse" x="55" y="8" width="31" height="31">
<rect x="55.9984" y="8.98291" width="30" height="30" fill="#D9D9D9"/>
</mask>
<g mask="url(#mask0_165003_5117)">
<path d="M60.6249 36.1853C59.9542 36.1853 59.38 35.9465 58.9024 35.4688C58.4247 34.9912 58.1859 34.417 58.1859 33.7462V16.6731C58.1859 16.0023 58.4247 15.4282 58.9024 14.9505C59.38 14.4729 59.9542 14.2341 60.6249 14.2341H71.5091L69.0701 16.6731H60.6249V33.7462H77.6981V25.2706L80.1371 22.8316V33.7462C80.1371 34.417 79.8983 34.9912 79.4207 35.4688C78.943 35.9465 78.3688 36.1853 77.6981 36.1853H60.6249ZM74.253 14.9353L75.9908 16.6426L67.942 24.6914V26.4292H69.6493L77.7286 18.3499L79.4664 20.0572L71.3871 28.1365C71.1636 28.3601 70.9044 28.5379 70.6097 28.67C70.315 28.8021 70.005 28.8682 69.6798 28.8682H66.7225C66.377 28.8682 66.0873 28.7513 65.8536 28.5176C65.6199 28.2839 65.503 27.9942 65.503 27.6487V24.6914C65.503 24.3662 65.564 24.0562 65.6859 23.7615C65.8079 23.4668 65.9806 23.2076 66.2042 22.9841L74.253 14.9353ZM79.4664 20.0572L74.253 14.9353L77.3018 11.8865C77.7896 11.3987 78.3739 11.1548 79.0548 11.1548C79.7357 11.1548 80.3099 11.3987 80.7774 11.8865L82.4847 13.6243C82.9522 14.0918 83.1859 14.6609 83.1859 15.3316C83.1859 16.0023 82.9522 16.5715 82.4847 17.0389L79.4664 20.0572Z" fill="white"/>
</g>
<path d="M95.8848 29.9829H94.4075L98.6802 18.3465H100.135L104.408 29.9829H102.93L99.453 20.1875H99.362L95.8848 29.9829ZM96.4302 25.4375H102.385V26.6875H96.4302V25.4375ZM109.334 30.1647C108.606 30.1647 107.964 29.981 107.408 29.6136C106.851 29.2424 106.415 28.7197 106.101 28.0454C105.786 27.3674 105.629 26.5662 105.629 25.642C105.629 24.7253 105.786 23.9299 106.101 23.2556C106.415 22.5814 106.853 22.0606 107.413 21.6931C107.974 21.3257 108.622 21.142 109.356 21.142C109.925 21.142 110.373 21.2367 110.703 21.4261C111.036 21.6117 111.29 21.8238 111.464 22.0625C111.642 22.2973 111.781 22.4905 111.879 22.642H111.993V18.3465H113.334V29.9829H112.038V28.642H111.879C111.781 28.8011 111.64 29.0018 111.459 29.2443C111.277 29.4829 111.017 29.6969 110.68 29.8863C110.343 30.0719 109.894 30.1647 109.334 30.1647ZM109.515 28.9602C110.053 28.9602 110.508 28.82 110.879 28.5397C111.25 28.2556 111.533 27.8636 111.726 27.3636C111.919 26.8598 112.015 26.2784 112.015 25.6193C112.015 24.9678 111.921 24.3977 111.731 23.909C111.542 23.4166 111.262 23.034 110.89 22.7613C110.519 22.4848 110.061 22.3465 109.515 22.3465C108.947 22.3465 108.474 22.4924 108.095 22.784C107.72 23.0719 107.438 23.464 107.248 23.9602C107.063 24.4526 106.97 25.0056 106.97 25.6193C106.97 26.2405 107.065 26.8049 107.254 27.3125C107.447 27.8162 107.731 28.2178 108.106 28.517C108.485 28.8125 108.955 28.9602 109.515 28.9602ZM119.271 30.1647C118.544 30.1647 117.902 29.981 117.345 29.6136C116.788 29.2424 116.353 28.7197 116.038 28.0454C115.724 27.3674 115.567 26.5662 115.567 25.642C115.567 24.7253 115.724 23.9299 116.038 23.2556C116.353 22.5814 116.79 22.0606 117.351 21.6931C117.911 21.3257 118.559 21.142 119.294 21.142C119.862 21.142 120.311 21.2367 120.64 21.4261C120.974 21.6117 121.228 21.8238 121.402 22.0625C121.58 22.2973 121.718 22.4905 121.817 22.642H121.93V18.3465H123.271V29.9829H121.976V28.642H121.817C121.718 28.8011 121.578 29.0018 121.396 29.2443C121.214 29.4829 120.955 29.6969 120.618 29.8863C120.281 30.0719 119.832 30.1647 119.271 30.1647ZM119.453 28.9602C119.991 28.9602 120.445 28.82 120.817 28.5397C121.188 28.2556 121.47 27.8636 121.663 27.3636C121.856 26.8598 121.953 26.2784 121.953 25.6193C121.953 24.9678 121.858 24.3977 121.669 23.909C121.479 23.4166 121.199 23.034 120.828 22.7613C120.457 22.4848 119.998 22.3465 119.453 22.3465C118.885 22.3465 118.411 22.4924 118.033 22.784C117.658 23.0719 117.375 23.464 117.186 23.9602C117 24.4526 116.908 25.0056 116.908 25.6193C116.908 26.2405 117.002 26.8049 117.192 27.3125C117.385 27.8162 117.669 28.2178 118.044 28.517C118.423 28.8125 118.892 28.9602 119.453 28.9602ZM129.959 19.5965V18.3465H138.686V19.5965H135.027V29.9829H133.618V19.5965H129.959ZM142.059 30.1875C141.506 30.1875 141.005 30.0833 140.554 29.875C140.103 29.6628 139.745 29.3579 139.48 28.9602C139.215 28.5587 139.082 28.0738 139.082 27.5056C139.082 27.0056 139.181 26.6003 139.378 26.2897C139.575 25.9753 139.838 25.7291 140.167 25.5511C140.497 25.3731 140.861 25.2405 141.258 25.1534C141.66 25.0625 142.063 24.9905 142.469 24.9375C142.999 24.8693 143.429 24.8181 143.758 24.784C144.092 24.7462 144.334 24.6837 144.486 24.5965C144.641 24.5094 144.719 24.3579 144.719 24.142V24.0965C144.719 23.5359 144.565 23.1003 144.258 22.7897C143.955 22.4791 143.495 22.3238 142.878 22.3238C142.238 22.3238 141.736 22.464 141.372 22.7443C141.008 23.0246 140.753 23.3238 140.605 23.642L139.332 23.1875C139.559 22.6572 139.863 22.2443 140.241 21.9488C140.624 21.6496 141.041 21.4412 141.491 21.3238C141.946 21.2026 142.393 21.142 142.832 21.142C143.113 21.142 143.434 21.1761 143.798 21.2443C144.166 21.3087 144.52 21.4431 144.861 21.6477C145.205 21.8522 145.491 22.1609 145.719 22.5738C145.946 22.9867 146.059 23.5397 146.059 24.2329V29.9829H144.719V28.8011H144.65C144.559 28.9905 144.408 29.1931 144.196 29.409C143.984 29.625 143.702 29.8087 143.349 29.9602C142.997 30.1117 142.567 30.1875 142.059 30.1875ZM142.264 28.9829C142.794 28.9829 143.241 28.8787 143.605 28.6704C143.972 28.4621 144.249 28.1931 144.434 27.8636C144.624 27.534 144.719 27.1875 144.719 26.8238V25.5965C144.662 25.6647 144.537 25.7272 144.344 25.784C144.154 25.8371 143.934 25.8844 143.684 25.9261C143.438 25.964 143.198 25.9981 142.963 26.0284C142.732 26.0549 142.544 26.0776 142.4 26.0965C142.052 26.142 141.726 26.2159 141.423 26.3181C141.124 26.4166 140.881 26.5662 140.696 26.767C140.514 26.964 140.423 27.2329 140.423 27.5738C140.423 28.0397 140.595 28.392 140.94 28.6306C141.289 28.8655 141.73 28.9829 142.264 28.9829ZM154.689 23.2102L153.484 23.5511C153.408 23.3503 153.297 23.1553 153.149 22.9659C153.005 22.7727 152.808 22.6136 152.558 22.4886C152.308 22.3636 151.988 22.3011 151.598 22.3011C151.064 22.3011 150.619 22.4242 150.263 22.6704C149.91 22.9128 149.734 23.2215 149.734 23.5965C149.734 23.9299 149.855 24.1931 150.098 24.3863C150.34 24.5795 150.719 24.7405 151.234 24.8693L152.53 25.1875C153.31 25.3768 153.891 25.6666 154.274 26.0568C154.657 26.4431 154.848 26.9412 154.848 27.5511C154.848 28.0511 154.704 28.4981 154.416 28.892C154.132 29.2859 153.734 29.5965 153.223 29.8238C152.711 30.0511 152.117 30.1647 151.439 30.1647C150.549 30.1647 149.812 29.9715 149.229 29.5852C148.645 29.1988 148.276 28.6344 148.121 27.892L149.393 27.5738C149.515 28.0435 149.744 28.3958 150.081 28.6306C150.422 28.8655 150.867 28.9829 151.416 28.9829C152.041 28.9829 152.537 28.8503 152.905 28.5852C153.276 28.3162 153.461 27.9943 153.461 27.6193C153.461 27.3162 153.355 27.0625 153.143 26.8579C152.931 26.6496 152.605 26.4943 152.166 26.392L150.711 26.0511C149.912 25.8617 149.325 25.5681 148.95 25.1704C148.579 24.7689 148.393 24.267 148.393 23.6647C148.393 23.1723 148.532 22.7367 148.808 22.3579C149.088 21.9791 149.469 21.6818 149.95 21.4659C150.435 21.25 150.984 21.142 151.598 21.142C152.461 21.142 153.14 21.3314 153.632 21.7102C154.128 22.089 154.48 22.589 154.689 23.2102ZM158.116 26.8011L158.094 25.142H158.366L162.184 21.2556H163.844L159.775 25.3693H159.662L158.116 26.8011ZM156.866 29.9829V18.3465H158.207V29.9829H156.866ZM162.412 29.9829L159.003 25.6647L159.957 24.7329L164.116 29.9829H162.412Z" fill="white"/>
</svg>
