  <svg
              width="160"
              height="48"
              viewBox="0 0 160 48"
              fill="none"
              xmlns="http://www.w3.org/2000/svg"
            >
              <rect
                x="0.5"
                y="0.5"
                width="159"
                height="47"
                rx="9.5"
                fill="#29abe2"
              />
              <rect
                x="0.5"
                y="0.5"
                width="159"
                height="47"
                rx="9.5"
                stroke="#29abe2"
              />
              <path
                d="M19.9599 32H16.4996L21.772 16.7273H25.9332L31.1982 32H27.7379L23.9123 20.2173H23.793L19.9599 32ZM19.7436 25.9968H27.9169V28.5174H19.7436V25.9968ZM36.6644 32.1864C35.7944 32.1864 35.0064 31.9627 34.3004 31.5153C33.5994 31.0629 33.0426 30.3991 32.63 29.5241C32.2223 28.6442 32.0185 27.5653 32.0185 26.2876C32.0185 24.9751 32.2298 23.8839 32.6523 23.0138C33.0749 22.1388 33.6367 21.4851 34.3377 21.0526C35.0437 20.6151 35.8168 20.3963 36.657 20.3963C37.2983 20.3963 37.8327 20.5057 38.2603 20.7244C38.6928 20.9382 39.0408 21.2067 39.3043 21.5298C39.5728 21.848 39.7766 22.1612 39.9158 22.4695H40.0128V16.7273H43.1822V32H40.0501V30.1655H39.9158C39.7667 30.4837 39.5554 30.7994 39.282 31.1126C39.0135 31.4208 38.663 31.6768 38.2305 31.8807C37.8029 32.0845 37.2809 32.1864 36.6644 32.1864ZM37.6712 29.6584C38.1832 29.6584 38.6158 29.5192 38.9688 29.2408C39.3267 28.9574 39.6001 28.5621 39.7891 28.055C39.983 27.5479 40.0799 26.9538 40.0799 26.2727C40.0799 25.5916 39.9854 25 39.7965 24.4979C39.6076 23.9957 39.3342 23.608 38.9762 23.3345C38.6183 23.0611 38.1832 22.9244 37.6712 22.9244C37.1491 22.9244 36.7092 23.0661 36.3512 23.3494C35.9933 23.6328 35.7223 24.0256 35.5384 24.5277C35.3544 25.0298 35.2624 25.6115 35.2624 26.2727C35.2624 26.9389 35.3544 27.5281 35.5384 28.0401C35.7273 28.5472 35.9982 28.945 36.3512 29.2333C36.7092 29.5167 37.1491 29.6584 37.6712 29.6584ZM50.015 32.1864C49.145 32.1864 48.357 31.9627 47.651 31.5153C46.95 31.0629 46.3932 30.3991 45.9806 29.5241C45.5729 28.6442 45.3691 27.5653 45.3691 26.2876C45.3691 24.9751 45.5803 23.8839 46.0029 23.0138C46.4255 22.1388 46.9873 21.4851 47.6883 21.0526C48.3943 20.6151 49.1673 20.3963 50.0075 20.3963C50.6489 20.3963 51.1833 20.5057 51.6109 20.7244C52.0434 20.9382 52.3914 21.2067 52.6549 21.5298C52.9234 21.848 53.1272 22.1612 53.2664 22.4695H53.3634V16.7273H56.5328V32H53.4007V30.1655H53.2664C53.1173 30.4837 52.906 30.7994 52.6325 31.1126C52.3641 31.4208 52.0136 31.6768 51.5811 31.8807C51.1535 32.0845 50.6315 32.1864 50.015 32.1864ZM51.0218 29.6584C51.5338 29.6584 51.9664 29.5192 52.3193 29.2408C52.6773 28.9574 52.9507 28.5621 53.1396 28.055C53.3335 27.5479 53.4305 26.9538 53.4305 26.2727C53.4305 25.5916 53.336 25 53.1471 24.4979C52.9582 23.9957 52.6847 23.608 52.3268 23.3345C51.9688 23.0611 51.5338 22.9244 51.0218 22.9244C50.4997 22.9244 50.0597 23.0661 49.7018 23.3494C49.3438 23.6328 49.0729 24.0256 48.8889 24.5277C48.705 25.0298 48.613 25.6115 48.613 26.2727C48.613 26.9389 48.705 27.5281 48.8889 28.0401C49.0779 28.5472 49.3488 28.945 49.7018 29.2333C50.0597 29.5167 50.4997 29.6584 51.0218 29.6584ZM70.0977 20.5455V22.9318H63.1997V20.5455H70.0977ZM64.7657 17.8011H67.9426V28.4801C67.9426 28.7734 67.9873 29.0021 68.0768 29.1662C68.1663 29.3253 68.2906 29.4371 68.4497 29.5018C68.6137 29.5664 68.8026 29.5987 69.0164 29.5987C69.1656 29.5987 69.3147 29.5863 69.4639 29.5614C69.613 29.5316 69.7274 29.5092 69.8069 29.4943L70.3066 31.8583C70.1475 31.908 69.9237 31.9652 69.6354 32.0298C69.347 32.0994 68.9965 32.1417 68.5839 32.1566C67.8183 32.1864 67.1471 32.0845 66.5704 31.8509C65.9987 31.6172 65.5537 31.2543 65.2355 30.7621C64.9173 30.2699 64.7607 29.6484 64.7657 28.8977V17.8011ZM75.4335 32.2163C74.7027 32.2163 74.0514 32.0895 73.4797 31.8359C72.9079 31.5774 72.4555 31.1971 72.1224 30.695C71.7943 30.1879 71.6302 29.5565 71.6302 28.8008C71.6302 28.1644 71.7471 27.63 71.9807 27.1974C72.2144 26.7649 72.5326 26.4169 72.9353 26.1534C73.338 25.8899 73.7954 25.6911 74.3074 25.5568C74.8245 25.4226 75.3664 25.3281 75.9332 25.2734C76.5993 25.2038 77.1363 25.1392 77.5439 25.0795C77.9516 25.0149 78.2474 24.9205 78.4314 24.7962C78.6153 24.6719 78.7073 24.4879 78.7073 24.2443V24.1996C78.7073 23.7273 78.5582 23.3619 78.2599 23.1033C77.9665 22.8448 77.5489 22.7156 77.007 22.7156C76.4353 22.7156 75.9804 22.8423 75.6423 23.0959C75.3042 23.3445 75.0805 23.6577 74.9711 24.0355L72.0329 23.7969C72.1821 23.1009 72.4754 22.4993 72.9129 21.9922C73.3504 21.4801 73.9147 21.0874 74.6057 20.8139C75.3018 20.5355 76.1072 20.3963 77.0219 20.3963C77.6583 20.3963 78.2673 20.4709 78.849 20.62C79.4356 20.7692 79.9552 21.0004 80.4076 21.3136C80.865 21.6268 81.2254 22.0295 81.4889 22.5217C81.7524 23.0089 81.8841 23.593 81.8841 24.2741V32H78.8714V30.4116H78.7819C78.5979 30.7695 78.3518 31.0852 78.0436 31.3587C77.7354 31.6271 77.365 31.8384 76.9324 31.9925C76.4999 32.1417 76.0003 32.2163 75.4335 32.2163ZM76.3433 30.0238C76.8106 30.0238 77.2233 29.9318 77.5812 29.7479C77.9392 29.5589 78.2201 29.3054 78.4239 28.9872C78.6278 28.669 78.7297 28.3086 78.7297 27.9059V26.6903C78.6302 26.755 78.4935 26.8146 78.3195 26.8693C78.1505 26.919 77.9591 26.9663 77.7453 27.011C77.5315 27.0508 77.3177 27.0881 77.104 27.1229C76.8902 27.1527 76.6963 27.18 76.5223 27.2049C76.1494 27.2596 75.8238 27.3466 75.5454 27.4659C75.267 27.5852 75.0507 27.7468 74.8966 27.9506C74.7425 28.1495 74.6654 28.3981 74.6654 28.6964C74.6654 29.1289 74.822 29.4595 75.1352 29.6882C75.4534 29.9119 75.8561 30.0238 76.3433 30.0238ZM93.8794 23.8118L90.971 23.9908C90.9213 23.7422 90.8144 23.5185 90.6503 23.3196C90.4862 23.1158 90.27 22.9542 90.0015 22.8349C89.738 22.7106 89.4223 22.6484 89.0544 22.6484C88.5622 22.6484 88.1471 22.7528 87.809 22.9616C87.471 23.1655 87.3019 23.4389 87.3019 23.782C87.3019 24.0554 87.4113 24.2866 87.6301 24.4755C87.8488 24.6644 88.2242 24.8161 88.7561 24.9304L90.8293 25.348C91.9429 25.5767 92.7732 25.9446 93.32 26.4517C93.8669 26.9588 94.1404 27.625 94.1404 28.4503C94.1404 29.201 93.9191 29.8597 93.4767 30.4265C93.0392 30.9933 92.4376 31.4357 91.672 31.7539C90.9113 32.0671 90.0338 32.2237 89.0395 32.2237C87.5232 32.2237 86.3151 31.908 85.4152 31.2766C84.5203 30.6403 83.9958 29.7752 83.8417 28.6815L86.9664 28.5174C87.0608 28.9798 87.2895 29.3327 87.6524 29.5763C88.0154 29.815 88.4802 29.9343 89.047 29.9343C89.6038 29.9343 90.0512 29.8274 90.3893 29.6136C90.7323 29.3949 90.9063 29.114 90.9113 28.771C90.9063 28.4826 90.7845 28.2464 90.5459 28.0625C90.3073 27.8736 89.9394 27.7294 89.4422 27.63L87.4585 27.2347C86.3399 27.011 85.5072 26.6232 84.9603 26.0714C84.4184 25.5195 84.1475 24.8161 84.1475 23.9609C84.1475 23.2251 84.3463 22.5913 84.7441 22.0593C85.1468 21.5273 85.711 21.1172 86.4369 20.8288C87.1677 20.5405 88.0228 20.3963 89.0022 20.3963C90.449 20.3963 91.5874 20.7021 92.4177 21.3136C93.2529 21.9251 93.7401 22.7578 93.8794 23.8118ZM99.0194 28.7038L99.0268 24.8931H99.4892L103.158 20.5455H106.805L101.876 26.3026H101.122L99.0194 28.7038ZM96.1408 32V16.7273H99.3176V32H96.1408ZM103.3 32L99.9292 27.011L102.047 24.7663L107.021 32H103.3Z"
                fill="white"
              />
              <mask
                id="mask0_3_4388"
                style="mask-type: alpha"
                maskUnits="userSpaceOnUse"
                x="112"
                y="8"
                width="32"
                height="32"
              >
                <rect x="112" y="8" width="32" height="32" fill="#D9D9D9" />
              </mask>
              <g mask="url(#mask0_3_4388)">
                <path
                  d="M126.666 25.3327H118.666V22.6661H126.666V14.6661H129.333V22.6661H137.333V25.3327H129.333V33.3327H126.666V25.3327Z"
                  fill="white"
                />
              </g>
            </svg>

