<svg width="232" height="47" viewBox="0 0 232 47" fill="none" xmlns="http://www.w3.org/2000/svg">
<mask id="mask0_69323_5670" style="mask-type:alpha" maskUnits="userSpaceOnUse" x="56" y="8" width="30" height="31">
<rect x="56" y="8.96582" width="30" height="30" fill="#D9D9D9"/>
</mask>
<g mask="url(#mask0_69323_5670)">
<path d="M60.6265 36.1682C59.9558 36.1682 59.3816 35.9294 58.904 35.4517C58.4263 34.9741 58.1875 34.3999 58.1875 33.7292V16.656C58.1875 15.9853 58.4263 15.4111 58.904 14.9334C59.3816 14.4558 59.9558 14.217 60.6265 14.217H71.5107L69.0716 16.656H60.6265V33.7292H77.6997V25.2535L80.1387 22.8145V33.7292C80.1387 34.3999 79.8999 34.9741 79.4223 35.4517C78.9446 35.9294 78.3704 36.1682 77.6997 36.1682H60.6265ZM74.2546 14.9182L75.9924 16.6255L67.9436 24.6743V26.4121H69.6509L77.7302 18.3328L79.468 20.0401L71.3887 28.1194C71.1651 28.343 70.906 28.5208 70.6113 28.6529C70.3166 28.7851 70.0066 28.8511 69.6814 28.8511H66.7241C66.3786 28.8511 66.0889 28.7342 65.8552 28.5005C65.6214 28.2668 65.5046 27.9771 65.5046 27.6316V24.6743C65.5046 24.3491 65.5655 24.0391 65.6875 23.7444C65.8095 23.4497 65.9822 23.1905 66.2058 22.967L74.2546 14.9182ZM79.468 20.0401L74.2546 14.9182L77.3034 11.8694C77.7912 11.3816 78.3755 11.1377 79.0564 11.1377C79.7373 11.1377 80.3115 11.3816 80.779 11.8694L82.4863 13.6072C82.9538 14.0747 83.1875 14.6438 83.1875 15.3145C83.1875 15.9853 82.9538 16.5544 82.4863 17.0218L79.468 20.0401Z" fill="#CDCDCD"/>
</g>
<path d="M95.8864 29.4658H94.4091L98.6818 17.8295H100.136L104.409 29.4658H102.932L99.4545 19.6704H99.3636L95.8864 29.4658ZM96.4318 24.9204H102.386V26.1704H96.4318V24.9204ZM109.335 29.6476C108.608 29.6476 107.966 29.4639 107.409 29.0965C106.852 28.7253 106.417 28.2026 106.102 27.5283C105.788 26.8503 105.631 26.0492 105.631 25.1249C105.631 24.2082 105.788 23.4128 106.102 22.7385C106.417 22.0643 106.854 21.5435 107.415 21.176C107.975 20.8086 108.623 20.6249 109.358 20.6249C109.926 20.6249 110.375 20.7196 110.705 20.909C111.038 21.0946 111.292 21.3067 111.466 21.5454C111.644 21.7802 111.782 21.9734 111.881 22.1249H111.994V17.8295H113.335V29.4658H112.04V28.1249H111.881C111.782 28.284 111.642 28.4848 111.46 28.7272C111.278 28.9658 111.019 29.1798 110.682 29.3692C110.345 29.5548 109.896 29.6476 109.335 29.6476ZM109.517 28.4431C110.055 28.4431 110.509 28.3029 110.881 28.0226C111.252 27.7385 111.534 27.3465 111.727 26.8465C111.92 26.3427 112.017 25.7613 112.017 25.1022C112.017 24.4507 111.922 23.8806 111.733 23.392C111.544 22.8995 111.263 22.517 110.892 22.2442C110.521 21.9677 110.063 21.8295 109.517 21.8295C108.949 21.8295 108.475 21.9753 108.097 22.267C107.722 22.5548 107.439 22.9469 107.25 23.4431C107.064 23.9355 106.972 24.4885 106.972 25.1022C106.972 25.7234 107.066 26.2878 107.256 26.7954C107.449 27.2992 107.733 27.7007 108.108 27.9999C108.487 28.2954 108.956 28.4431 109.517 28.4431ZM119.273 29.6476C118.545 29.6476 117.903 29.4639 117.347 29.0965C116.79 28.7253 116.354 28.2026 116.04 27.5283C115.725 26.8503 115.568 26.0492 115.568 25.1249C115.568 24.2082 115.725 23.4128 116.04 22.7385C116.354 22.0643 116.792 21.5435 117.352 21.176C117.913 20.8086 118.561 20.6249 119.295 20.6249C119.864 20.6249 120.313 20.7196 120.642 20.909C120.975 21.0946 121.229 21.3067 121.403 21.5454C121.581 21.7802 121.72 21.9734 121.818 22.1249H121.932V17.8295H123.273V29.4658H121.977V28.1249H121.818C121.72 28.284 121.58 28.4848 121.398 28.7272C121.216 28.9658 120.956 29.1798 120.619 29.3692C120.282 29.5548 119.833 29.6476 119.273 29.6476ZM119.455 28.4431C119.992 28.4431 120.447 28.3029 120.818 28.0226C121.189 27.7385 121.472 27.3465 121.665 26.8465C121.858 26.3427 121.955 25.7613 121.955 25.1022C121.955 24.4507 121.86 23.8806 121.67 23.392C121.481 22.8995 121.201 22.517 120.83 22.2442C120.458 21.9677 120 21.8295 119.455 21.8295C118.886 21.8295 118.413 21.9753 118.034 22.267C117.659 22.5548 117.377 22.9469 117.188 23.4431C117.002 23.9355 116.909 24.4885 116.909 25.1022C116.909 25.7234 117.004 26.2878 117.193 26.7954C117.386 27.2992 117.67 27.7007 118.045 27.9999C118.424 28.2954 118.894 28.4431 119.455 28.4431ZM129.96 19.0795V17.8295H138.688V19.0795H135.028V29.4658H133.619V19.0795H129.96ZM142.061 29.6704C141.508 29.6704 141.006 29.5662 140.555 29.3579C140.105 29.1457 139.747 28.8408 139.482 28.4431C139.216 28.0416 139.084 27.5567 139.084 26.9885C139.084 26.4885 139.182 26.0832 139.379 25.7726C139.576 25.4582 139.839 25.212 140.169 25.034C140.499 24.856 140.862 24.7234 141.26 24.6363C141.661 24.5454 142.065 24.4734 142.47 24.4204C143 24.3522 143.43 24.301 143.76 24.267C144.093 24.2291 144.336 24.1666 144.487 24.0795C144.643 23.9923 144.72 23.8408 144.72 23.6249V23.5795C144.72 23.0189 144.567 22.5832 144.26 22.2726C143.957 21.962 143.497 21.8067 142.879 21.8067C142.239 21.8067 141.737 21.9469 141.374 22.2272C141.01 22.5075 140.754 22.8067 140.607 23.1249L139.334 22.6704C139.561 22.1401 139.864 21.7272 140.243 21.4317C140.625 21.1325 141.042 20.9242 141.493 20.8067C141.947 20.6855 142.394 20.6249 142.834 20.6249C143.114 20.6249 143.436 20.659 143.8 20.7272C144.167 20.7916 144.521 20.926 144.862 21.1306C145.207 21.3351 145.493 21.6439 145.72 22.0567C145.947 22.4696 146.061 23.0226 146.061 23.7158V29.4658H144.72V28.284H144.652C144.561 28.4734 144.41 28.676 144.197 28.892C143.985 29.1079 143.703 29.2916 143.351 29.4431C142.999 29.5946 142.569 29.6704 142.061 29.6704ZM142.266 28.4658C142.796 28.4658 143.243 28.3617 143.607 28.1533C143.974 27.945 144.25 27.676 144.436 27.3465C144.625 27.017 144.72 26.6704 144.72 26.3067V25.0795C144.663 25.1476 144.538 25.2101 144.345 25.267C144.156 25.32 143.936 25.3673 143.686 25.409C143.44 25.4469 143.199 25.481 142.964 25.5113C142.733 25.5378 142.546 25.5605 142.402 25.5795C142.054 25.6249 141.728 25.6988 141.425 25.801C141.125 25.8995 140.883 26.0492 140.697 26.2499C140.516 26.4469 140.425 26.7158 140.425 27.0567C140.425 27.5226 140.597 27.8749 140.942 28.1135C141.29 28.3484 141.732 28.4658 142.266 28.4658ZM154.69 22.6931L153.486 23.034C153.41 22.8332 153.298 22.6382 153.151 22.4488C153.007 22.2556 152.81 22.0965 152.56 21.9715C152.31 21.8465 151.99 21.784 151.599 21.784C151.065 21.784 150.62 21.9071 150.264 22.1533C149.912 22.3957 149.736 22.7045 149.736 23.0795C149.736 23.4128 149.857 23.676 150.099 23.8692C150.342 24.0624 150.721 24.2234 151.236 24.3522L152.531 24.6704C153.312 24.8598 153.893 25.1495 154.276 25.5397C154.658 25.926 154.849 26.4242 154.849 27.034C154.849 27.534 154.705 27.981 154.418 28.3749C154.134 28.7689 153.736 29.0795 153.224 29.3067C152.713 29.534 152.118 29.6476 151.44 29.6476C150.55 29.6476 149.813 29.4545 149.23 29.0681C148.647 28.6817 148.277 28.1173 148.122 27.3749L149.395 27.0567C149.516 27.5264 149.745 27.8787 150.082 28.1135C150.423 28.3484 150.868 28.4658 151.418 28.4658C152.043 28.4658 152.539 28.3332 152.906 28.0681C153.277 27.7992 153.463 27.4772 153.463 27.1022C153.463 26.7992 153.357 26.5454 153.145 26.3408C152.933 26.1325 152.607 25.9772 152.168 25.8749L150.713 25.534C149.914 25.3446 149.327 25.051 148.952 24.6533C148.58 24.2518 148.395 23.7499 148.395 23.1476C148.395 22.6552 148.533 22.2196 148.81 21.8408C149.09 21.462 149.471 21.1647 149.952 20.9488C150.437 20.7329 150.986 20.6249 151.599 20.6249C152.463 20.6249 153.141 20.8143 153.634 21.1931C154.13 21.5719 154.482 22.0719 154.69 22.6931ZM158.118 26.284L158.095 24.6249H158.368L162.186 20.7385H163.845L159.777 24.8522H159.663L158.118 26.284ZM156.868 29.4658V17.8295H158.209V29.4658H156.868ZM162.413 29.4658L159.004 25.1476L159.959 24.2158L164.118 29.4658H162.413Z" fill="#CDCDCD"/>
</svg>
