<svg width="232" height="47" viewBox="0 0 232 47" fill="none" xmlns="http://www.w3.org/2000/svg">
<rect width="232" height="46" transform="translate(0.00292969 0.96582)" fill="#091931"/>
<path d="M78.9575 13.7385L78.9575 34.1929C78.9569 34.7955 78.7173 35.3732 78.2912 35.7993C77.8651 36.2253 77.2874 36.465 76.6848 36.4656L72.1394 36.4656C71.5368 36.465 70.9591 36.2253 70.533 35.7993C70.1069 35.3732 69.8673 34.7955 69.8667 34.1929L69.8667 13.7385C69.8673 13.136 70.1069 12.5583 70.533 12.1322C70.9591 11.7061 71.5368 11.4664 72.1394 11.4658L76.6848 11.4658C77.2874 11.4664 77.8651 11.7061 78.2912 12.1322C78.7173 12.5583 78.9569 13.136 78.9575 13.7385ZM72.1394 34.1929L76.6848 34.1929L76.6848 13.7385L72.1394 13.7385L72.1394 34.1929ZM72.1394 13.7385L72.1394 34.1929C72.1388 34.7955 71.8992 35.3731 71.4731 35.7992C71.047 36.2253 70.4693 36.4649 69.8667 36.4655L65.3213 36.4655C64.7187 36.4649 64.141 36.2253 63.7149 35.7992C63.2888 35.3731 63.0492 34.7954 63.0486 34.1928L63.0486 13.7385C63.0492 13.1359 63.2888 12.5582 63.7149 12.1321C64.141 11.7061 64.7187 11.4664 65.3213 11.4658L69.8667 11.4658C70.4693 11.4664 71.047 11.7061 71.4731 12.1321C71.8992 12.5582 72.1388 13.136 72.1394 13.7385ZM65.3213 34.1928L69.8667 34.1929L69.8667 13.7385L65.3213 13.7385L65.3213 34.1928ZM65.3213 13.7385L65.3213 34.1928C65.3207 34.7954 65.081 35.3731 64.655 35.7992C64.2289 36.2253 63.6512 36.4649 63.0486 36.4656L58.5032 36.4656C57.9006 36.4649 57.3229 36.2253 56.8968 35.7992C56.4707 35.3731 56.2311 34.7954 56.2305 34.1928L56.2305 13.7385C56.2311 13.136 56.4707 12.5582 56.8968 12.1321C57.3229 11.7061 57.9006 11.4664 58.5032 11.4658L63.0486 11.4658C63.6512 11.4664 64.2289 11.7061 64.655 12.1321C65.081 12.5582 65.3207 13.1359 65.3213 13.7385ZM58.5032 34.1928L63.0486 34.1928L63.0486 13.7385L58.5032 13.7385L58.5032 34.1928Z" fill="white"/>
<path d="M85.7756 13.7388L85.7756 34.1931C85.775 34.7957 85.5354 35.3734 85.1093 35.7995C84.6832 36.2256 84.1055 36.4652 83.5029 36.4658L78.9575 36.4658C78.3549 36.4652 77.7772 36.2256 77.3511 35.7995C76.925 35.3734 76.6854 34.7955 76.6848 34.1929L76.6848 13.7385C76.6854 13.136 76.925 12.5585 77.3511 12.1324C77.7772 11.7063 78.3549 11.4667 78.9575 11.4661L83.5029 11.4661C84.1055 11.4667 84.6832 11.7063 85.1093 12.1324C85.5354 12.5585 85.775 13.1362 85.7756 13.7388ZM78.9575 34.1929L83.5029 34.1931L83.5029 13.7388L78.9575 13.7385L78.9575 34.1929Z" fill="white"/>
<path d="M95.412 29.4658V17.8295H99.4802C100.291 17.8295 100.959 17.9696 101.486 18.2499C102.012 18.5264 102.404 18.8995 102.662 19.3692C102.92 19.8351 103.048 20.3522 103.048 20.9204C103.048 21.4204 102.959 21.8332 102.781 22.159C102.607 22.4848 102.376 22.7423 102.088 22.9317C101.804 23.1211 101.495 23.2613 101.162 23.3522V23.4658C101.518 23.4885 101.876 23.6135 102.236 23.8408C102.596 24.0681 102.897 24.3939 103.139 24.8181C103.382 25.2423 103.503 25.7613 103.503 26.3749C103.503 26.9582 103.37 27.4829 103.105 27.9488C102.84 28.4147 102.421 28.784 101.85 29.0567C101.278 29.3295 100.533 29.4658 99.6166 29.4658H95.412ZM96.8211 28.2158H99.6166C100.537 28.2158 101.19 28.0378 101.577 27.6817C101.967 27.3219 102.162 26.8863 102.162 26.3749C102.162 25.981 102.062 25.6173 101.861 25.284C101.66 24.9469 101.374 24.6779 101.003 24.4772C100.632 24.2726 100.192 24.1704 99.6847 24.1704H96.8211V28.2158ZM96.8211 22.9431H99.4347C99.859 22.9431 100.242 22.8598 100.582 22.6931C100.927 22.5264 101.2 22.2916 101.401 21.9885C101.605 21.6855 101.707 21.3295 101.707 20.9204C101.707 20.409 101.529 19.9753 101.173 19.6192C100.817 19.2594 100.253 19.0795 99.4802 19.0795H96.8211V22.9431ZM109.182 29.6476C108.394 29.6476 107.703 29.4601 107.108 29.0851C106.517 28.7101 106.055 28.1855 105.722 27.5113C105.392 26.837 105.227 26.0492 105.227 25.1476C105.227 24.2385 105.392 23.445 105.722 22.767C106.055 22.0889 106.517 21.5624 107.108 21.1874C107.703 20.8124 108.394 20.6249 109.182 20.6249C109.97 20.6249 110.659 20.8124 111.25 21.1874C111.845 21.5624 112.307 22.0889 112.636 22.767C112.97 23.445 113.136 24.2385 113.136 25.1476C113.136 26.0492 112.97 26.837 112.636 27.5113C112.307 28.1855 111.845 28.7101 111.25 29.0851C110.659 29.4601 109.97 29.6476 109.182 29.6476ZM109.182 28.4431C109.78 28.4431 110.273 28.2897 110.659 27.9829C111.046 27.676 111.332 27.2726 111.517 26.7726C111.703 26.2726 111.796 25.731 111.796 25.1476C111.796 24.5643 111.703 24.0207 111.517 23.517C111.332 23.0132 111.046 22.606 110.659 22.2954C110.273 21.9848 109.78 21.8295 109.182 21.8295C108.583 21.8295 108.091 21.9848 107.705 22.2954C107.318 22.606 107.032 23.0132 106.847 23.517C106.661 24.0207 106.568 24.5643 106.568 25.1476C106.568 25.731 106.661 26.2726 106.847 26.7726C107.032 27.2726 107.318 27.676 107.705 27.9829C108.091 28.2897 108.583 28.4431 109.182 28.4431ZM117.752 29.6704C117.198 29.6704 116.697 29.5662 116.246 29.3579C115.795 29.1457 115.437 28.8408 115.172 28.4431C114.907 28.0416 114.774 27.5567 114.774 26.9885C114.774 26.4885 114.873 26.0832 115.07 25.7726C115.267 25.4582 115.53 25.212 115.859 25.034C116.189 24.856 116.553 24.7234 116.95 24.6363C117.352 24.5454 117.755 24.4734 118.161 24.4204C118.691 24.3522 119.121 24.301 119.45 24.267C119.784 24.2291 120.026 24.1666 120.178 24.0795C120.333 23.9923 120.411 23.8408 120.411 23.6249V23.5795C120.411 23.0189 120.257 22.5832 119.95 22.2726C119.647 21.962 119.187 21.8067 118.57 21.8067C117.93 21.8067 117.428 21.9469 117.064 22.2272C116.7 22.5075 116.445 22.8067 116.297 23.1249L115.024 22.6704C115.252 22.1401 115.555 21.7272 115.933 21.4317C116.316 21.1325 116.733 20.9242 117.183 20.8067C117.638 20.6855 118.085 20.6249 118.524 20.6249C118.805 20.6249 119.127 20.659 119.49 20.7272C119.858 20.7916 120.212 20.926 120.553 21.1306C120.897 21.3351 121.183 21.6439 121.411 22.0567C121.638 22.4696 121.752 23.0226 121.752 23.7158V29.4658H120.411V28.284H120.342C120.252 28.4734 120.1 28.676 119.888 28.892C119.676 29.1079 119.394 29.2916 119.041 29.4431C118.689 29.5946 118.259 29.6704 117.752 29.6704ZM117.956 28.4658C118.486 28.4658 118.933 28.3617 119.297 28.1533C119.664 27.945 119.941 27.676 120.127 27.3465C120.316 27.017 120.411 26.6704 120.411 26.3067V25.0795C120.354 25.1476 120.229 25.2101 120.036 25.267C119.846 25.32 119.627 25.3673 119.377 25.409C119.13 25.4469 118.89 25.481 118.655 25.5113C118.424 25.5378 118.236 25.5605 118.092 25.5795C117.744 25.6249 117.418 25.6988 117.115 25.801C116.816 25.8995 116.573 26.0492 116.388 26.2499C116.206 26.4469 116.115 26.7158 116.115 27.0567C116.115 27.5226 116.287 27.8749 116.632 28.1135C116.981 28.3484 117.422 28.4658 117.956 28.4658ZM124.199 29.4658V20.7385H125.494V22.0567H125.585C125.744 21.6249 126.032 21.2745 126.449 21.0056C126.866 20.7367 127.335 20.6022 127.858 20.6022C127.957 20.6022 128.08 20.6041 128.227 20.6079C128.375 20.6117 128.487 20.6173 128.563 20.6249V21.9885C128.517 21.9772 128.413 21.9601 128.25 21.9374C128.091 21.9109 127.922 21.8976 127.744 21.8976C127.32 21.8976 126.941 21.9867 126.608 22.1647C126.278 22.3389 126.017 22.5814 125.824 22.892C125.635 23.1988 125.54 23.5492 125.54 23.9431V29.4658H124.199ZM133.182 29.6476C132.455 29.6476 131.813 29.4639 131.256 29.0965C130.699 28.7253 130.263 28.2026 129.949 27.5283C129.635 26.8503 129.477 26.0492 129.477 25.1249C129.477 24.2082 129.635 23.4128 129.949 22.7385C130.263 22.0643 130.701 21.5435 131.261 21.176C131.822 20.8086 132.47 20.6249 133.205 20.6249C133.773 20.6249 134.222 20.7196 134.551 20.909C134.885 21.0946 135.138 21.3067 135.313 21.5454C135.491 21.7802 135.629 21.9734 135.727 22.1249H135.841V17.8295H137.182V29.4658H135.886V28.1249H135.727C135.629 28.284 135.489 28.4848 135.307 28.7272C135.125 28.9658 134.866 29.1798 134.528 29.3692C134.191 29.5548 133.743 29.6476 133.182 29.6476ZM133.364 28.4431C133.902 28.4431 134.356 28.3029 134.727 28.0226C135.099 27.7385 135.381 27.3465 135.574 26.8465C135.767 26.3427 135.864 25.7613 135.864 25.1022C135.864 24.4507 135.769 23.8806 135.58 23.392C135.39 22.8995 135.11 22.517 134.739 22.2442C134.368 21.9677 133.909 21.8295 133.364 21.8295C132.796 21.8295 132.322 21.9753 131.943 22.267C131.568 22.5548 131.286 22.9469 131.097 23.4431C130.911 23.9355 130.818 24.4885 130.818 25.1022C130.818 25.7234 130.913 26.2878 131.102 26.7954C131.296 27.2992 131.58 27.7007 131.955 27.9999C132.333 28.2954 132.803 28.4431 133.364 28.4431Z" fill="white"/>
</svg>
