<svg width="232" height="47" viewBox="0 0 232 47" fill="none" xmlns="http://www.w3.org/2000/svg">
<path d="M78.9529 13.7556L78.9529 34.21C78.9523 34.8125 78.7126 35.3903 78.2865 35.8163C77.8605 36.2424 77.2827 36.4821 76.6802 36.4827L72.1348 36.4827C71.5322 36.4821 70.9545 36.2424 70.5284 35.8163C70.1023 35.3903 69.8627 34.8125 69.8621 34.21L69.8621 13.7556C69.8627 13.1531 70.1023 12.5753 70.5284 12.1493C70.9545 11.7232 71.5322 11.4835 72.1348 11.4829L76.6802 11.4829C77.2827 11.4835 77.8605 11.7232 78.2865 12.1493C78.7126 12.5753 78.9523 13.1531 78.9529 13.7556ZM72.1348 34.21L76.6802 34.21L76.6802 13.7556L72.1348 13.7556L72.1348 34.21ZM72.1348 13.7556L72.1348 34.21C72.1342 34.8125 71.8945 35.3902 71.4684 35.8163C71.0423 36.2424 70.4646 36.482 69.8621 36.4826L65.3166 36.4826C64.7141 36.482 64.1363 36.2424 63.7103 35.8163C63.2842 35.3902 63.0445 34.8125 63.0439 34.2099L63.0439 13.7556C63.0445 13.153 63.2842 12.5753 63.7103 12.1492C64.1363 11.7231 64.7141 11.4835 65.3166 11.4829L69.862 11.4829C70.4646 11.4835 71.0423 11.7231 71.4684 12.1492C71.8945 12.5753 72.1342 13.1531 72.1348 13.7556ZM65.3166 34.2099L69.8621 34.21L69.8621 13.7556L65.3166 13.7556L65.3166 34.2099ZM65.3166 13.7556L65.3166 34.2099C65.316 34.8125 65.0764 35.3902 64.6503 35.8163C64.2242 36.2424 63.6465 36.482 63.0439 36.4826L58.4985 36.4826C57.896 36.482 57.3182 36.2424 56.8922 35.8163C56.4661 35.3902 56.2264 34.8125 56.2258 34.2099L56.2258 13.7556C56.2264 13.153 56.4661 12.5753 56.8922 12.1492C57.3182 11.7231 57.896 11.4835 58.4985 11.4829L63.0439 11.4829C63.6465 11.4835 64.2242 11.7231 64.6503 12.1492C65.0764 12.5753 65.316 13.153 65.3166 13.7556ZM58.4985 34.2099L63.0439 34.2099L63.0439 13.7556L58.4985 13.7556L58.4985 34.2099Z" fill="#CDCDCD"/>
<path d="M85.771 13.7559L85.771 34.2102C85.7704 34.8128 85.5307 35.3905 85.1046 35.8166C84.6786 36.2427 84.1008 36.4823 83.4983 36.4829L78.9529 36.4829C78.3503 36.4823 77.7726 36.2427 77.3465 35.8166C76.9204 35.3905 76.6808 34.8125 76.6802 34.21L76.6802 13.7556C76.6808 13.1531 76.9204 12.5756 77.3465 12.1495C77.7726 11.7234 78.3503 11.4838 78.9529 11.4832L83.4983 11.4832C84.1008 11.4838 84.6786 11.7234 85.1046 12.1495C85.5307 12.5756 85.7704 13.1533 85.771 13.7559ZM78.9529 34.21L83.4983 34.2102L83.4983 13.7559L78.9529 13.7556L78.9529 34.21Z" fill="#CDCDCD"/>
<path d="M95.4075 29.4829V17.8465H99.4757C100.286 17.8465 100.955 17.9867 101.481 18.267C102.008 18.5435 102.4 18.9166 102.658 19.3863C102.915 19.8522 103.044 20.3693 103.044 20.9375C103.044 21.4375 102.955 21.8503 102.777 22.1761C102.603 22.5018 102.372 22.7594 102.084 22.9488C101.8 23.1382 101.491 23.2784 101.158 23.3693V23.4829C101.514 23.5056 101.872 23.6306 102.231 23.8579C102.591 24.0852 102.892 24.4109 103.135 24.8352C103.377 25.2594 103.498 25.7784 103.498 26.392C103.498 26.9753 103.366 27.5 103.101 27.9659C102.836 28.4318 102.417 28.8011 101.845 29.0738C101.273 29.3465 100.529 29.4829 99.612 29.4829H95.4075ZM96.8166 28.2329H99.612C100.533 28.2329 101.186 28.0549 101.572 27.6988C101.962 27.339 102.158 26.9034 102.158 26.392C102.158 25.9981 102.057 25.6344 101.856 25.3011C101.656 24.964 101.37 24.695 100.998 24.4943C100.627 24.2897 100.188 24.1875 99.6802 24.1875H96.8166V28.2329ZM96.8166 22.9602H99.4302C99.8545 22.9602 100.237 22.8768 100.578 22.7102C100.923 22.5435 101.195 22.3087 101.396 22.0056C101.601 21.7026 101.703 21.3465 101.703 20.9375C101.703 20.4261 101.525 19.9924 101.169 19.6363C100.813 19.2765 100.248 19.0965 99.4757 19.0965H96.8166V22.9602ZM109.177 29.6647C108.39 29.6647 107.698 29.4772 107.104 29.1022C106.513 28.7272 106.05 28.2026 105.717 27.5284C105.388 26.8541 105.223 26.0662 105.223 25.1647C105.223 24.2556 105.388 23.4621 105.717 22.784C106.05 22.106 106.513 21.5795 107.104 21.2045C107.698 20.8295 108.39 20.642 109.177 20.642C109.965 20.642 110.655 20.8295 111.246 21.2045C111.84 21.5795 112.302 22.106 112.632 22.784C112.965 23.4621 113.132 24.2556 113.132 25.1647C113.132 26.0662 112.965 26.8541 112.632 27.5284C112.302 28.2026 111.84 28.7272 111.246 29.1022C110.655 29.4772 109.965 29.6647 109.177 29.6647ZM109.177 28.4602C109.776 28.4602 110.268 28.3068 110.655 28C111.041 27.6931 111.327 27.2897 111.513 26.7897C111.698 26.2897 111.791 25.7481 111.791 25.1647C111.791 24.5814 111.698 24.0378 111.513 23.534C111.327 23.0303 111.041 22.6231 110.655 22.3125C110.268 22.0018 109.776 21.8465 109.177 21.8465C108.579 21.8465 108.086 22.0018 107.7 22.3125C107.314 22.6231 107.028 23.0303 106.842 23.534C106.657 24.0378 106.564 24.5814 106.564 25.1647C106.564 25.7481 106.657 26.2897 106.842 26.7897C107.028 27.2897 107.314 27.6931 107.7 28C108.086 28.3068 108.579 28.4602 109.177 28.4602ZM117.747 29.6875C117.194 29.6875 116.692 29.5833 116.241 29.375C115.791 29.1628 115.433 28.8579 115.167 28.4602C114.902 28.0587 114.77 27.5738 114.77 27.0056C114.77 26.5056 114.868 26.1003 115.065 25.7897C115.262 25.4753 115.525 25.2291 115.855 25.0511C116.184 24.8731 116.548 24.7405 116.946 24.6534C117.347 24.5625 117.751 24.4905 118.156 24.4375C118.686 24.3693 119.116 24.3181 119.446 24.284C119.779 24.2462 120.022 24.1837 120.173 24.0965C120.328 24.0094 120.406 23.8579 120.406 23.642V23.5965C120.406 23.0359 120.253 22.6003 119.946 22.2897C119.643 21.9791 119.183 21.8238 118.565 21.8238C117.925 21.8238 117.423 21.964 117.059 22.2443C116.696 22.5246 116.44 22.8238 116.292 23.142L115.02 22.6875C115.247 22.1572 115.55 21.7443 115.929 21.4488C116.311 21.1496 116.728 20.9412 117.179 20.8238C117.633 20.7026 118.08 20.642 118.52 20.642C118.8 20.642 119.122 20.6761 119.486 20.7443C119.853 20.8087 120.207 20.9431 120.548 21.1477C120.893 21.3522 121.179 21.6609 121.406 22.0738C121.633 22.4867 121.747 23.0397 121.747 23.7329V29.4829H120.406V28.3011H120.338C120.247 28.4905 120.095 28.6931 119.883 28.909C119.671 29.125 119.389 29.3087 119.037 29.4602C118.684 29.6117 118.255 29.6875 117.747 29.6875ZM117.952 28.4829C118.482 28.4829 118.929 28.3787 119.292 28.1704C119.66 27.9621 119.936 27.6931 120.122 27.3636C120.311 27.034 120.406 26.6875 120.406 26.3238V25.0965C120.349 25.1647 120.224 25.2272 120.031 25.284C119.842 25.3371 119.622 25.3844 119.372 25.4261C119.126 25.464 118.885 25.4981 118.65 25.5284C118.419 25.5549 118.232 25.5776 118.088 25.5965C117.739 25.642 117.414 25.7159 117.111 25.8181C116.811 25.9166 116.569 26.0662 116.383 26.267C116.202 26.464 116.111 26.7329 116.111 27.0738C116.111 27.5397 116.283 27.892 116.628 28.1306C116.976 28.3655 117.417 28.4829 117.952 28.4829ZM124.194 29.4829V20.7556H125.49V22.0738H125.581C125.74 21.642 126.028 21.2916 126.444 21.0227C126.861 20.7537 127.331 20.6193 127.854 20.6193C127.952 20.6193 128.075 20.6212 128.223 20.625C128.371 20.6287 128.482 20.6344 128.558 20.642V22.0056C128.513 21.9943 128.408 21.9772 128.246 21.9545C128.086 21.928 127.918 21.9147 127.74 21.9147C127.316 21.9147 126.937 22.0037 126.604 22.1818C126.274 22.356 126.013 22.5984 125.819 22.909C125.63 23.2159 125.535 23.5662 125.535 23.9602V29.4829H124.194ZM133.177 29.6647C132.45 29.6647 131.808 29.481 131.251 29.1136C130.694 28.7424 130.259 28.2197 129.944 27.5454C129.63 26.8674 129.473 26.0662 129.473 25.142C129.473 24.2253 129.63 23.4299 129.944 22.7556C130.259 22.0814 130.696 21.5606 131.257 21.1931C131.818 20.8257 132.465 20.642 133.2 20.642C133.768 20.642 134.217 20.7367 134.547 20.9261C134.88 21.1117 135.134 21.3238 135.308 21.5625C135.486 21.7973 135.624 21.9905 135.723 22.142H135.836V17.8465H137.177V29.4829H135.882V28.142H135.723C135.624 28.3011 135.484 28.5018 135.302 28.7443C135.121 28.9829 134.861 29.1969 134.524 29.3863C134.187 29.5719 133.738 29.6647 133.177 29.6647ZM133.359 28.4602C133.897 28.4602 134.352 28.32 134.723 28.0397C135.094 27.7556 135.376 27.3636 135.569 26.8636C135.763 26.3598 135.859 25.7784 135.859 25.1193C135.859 24.4678 135.765 23.8977 135.575 23.409C135.386 22.9166 135.105 22.534 134.734 22.2613C134.363 21.9848 133.905 21.8465 133.359 21.8465C132.791 21.8465 132.318 21.9924 131.939 22.284C131.564 22.5719 131.282 22.964 131.092 23.4602C130.907 23.9526 130.814 24.5056 130.814 25.1193C130.814 25.7405 130.908 26.3049 131.098 26.8125C131.291 27.3162 131.575 27.7178 131.95 28.017C132.329 28.3125 132.799 28.4602 133.359 28.4602Z" fill="#CDCDCD"/>
</svg>
