<svg width="272" height="176" viewBox="0 0 272 176" fill="none" xmlns="http://www.w3.org/2000/svg">
<g filter="url(#filter0_d_86105_6083)">
<rect x="4" y="4" width="264" height="168" rx="30" fill="white"/>
<circle cx="102" cy="88" r="34.5" fill="#2A3647"/>
<path d="M87.0283 88.0001L98.2571 99.0662L116.972 76.9341" stroke="white" stroke-width="7" stroke-linecap="round" stroke-linejoin="round"/>
<path d="M187.193 52.9545V99.5H178.761V61.1591H178.489L167.602 68.1136V60.3864L179.17 52.9545H187.193Z" fill="black"/>
<path d="M160.75 133.5H156.261V118.955H160.949C162.36 118.955 163.567 119.246 164.571 119.828C165.575 120.406 166.344 121.237 166.879 122.321C167.414 123.401 167.682 124.693 167.682 126.199C167.682 127.714 167.412 129.018 166.872 130.112C166.332 131.201 165.546 132.039 164.514 132.626C163.482 133.209 162.227 133.5 160.75 133.5ZM158.023 131.938H160.636C161.839 131.938 162.836 131.705 163.626 131.241C164.417 130.777 165.007 130.117 165.395 129.26C165.783 128.403 165.977 127.383 165.977 126.199C165.977 125.025 165.786 124.014 165.402 123.166C165.018 122.314 164.446 121.661 163.683 121.206C162.921 120.747 161.972 120.517 160.835 120.517H158.023V131.938ZM174.841 133.727C173.856 133.727 172.992 133.493 172.249 133.024C171.51 132.555 170.932 131.9 170.516 131.057C170.104 130.214 169.898 129.229 169.898 128.102C169.898 126.966 170.104 125.974 170.516 125.126C170.932 124.279 171.51 123.621 172.249 123.152C172.992 122.683 173.856 122.449 174.841 122.449C175.826 122.449 176.688 122.683 177.426 123.152C178.17 123.621 178.747 124.279 179.159 125.126C179.576 125.974 179.784 126.966 179.784 128.102C179.784 129.229 179.576 130.214 179.159 131.057C178.747 131.9 178.17 132.555 177.426 133.024C176.688 133.493 175.826 133.727 174.841 133.727ZM174.841 132.222C175.589 132.222 176.205 132.03 176.688 131.646C177.17 131.263 177.528 130.759 177.76 130.134C177.992 129.509 178.108 128.831 178.108 128.102C178.108 127.373 177.992 126.694 177.76 126.064C177.528 125.434 177.17 124.925 176.688 124.537C176.205 124.149 175.589 123.955 174.841 123.955C174.093 123.955 173.477 124.149 172.994 124.537C172.511 124.925 172.154 125.434 171.922 126.064C171.69 126.694 171.574 127.373 171.574 128.102C171.574 128.831 171.69 129.509 171.922 130.134C172.154 130.759 172.511 131.263 172.994 131.646C173.477 132.03 174.093 132.222 174.841 132.222ZM184.019 126.938V133.5H182.343V122.591H183.962V124.295H184.104C184.36 123.741 184.748 123.296 185.269 122.96C185.79 122.619 186.462 122.449 187.286 122.449C188.025 122.449 188.671 122.6 189.225 122.903C189.779 123.202 190.21 123.656 190.517 124.267C190.825 124.873 190.979 125.64 190.979 126.568V133.5H189.303V126.682C189.303 125.825 189.08 125.157 188.635 124.679C188.19 124.196 187.579 123.955 186.803 123.955C186.268 123.955 185.79 124.071 185.368 124.303C184.952 124.535 184.623 124.873 184.381 125.318C184.14 125.763 184.019 126.303 184.019 126.938ZM198.616 133.727C197.565 133.727 196.658 133.495 195.896 133.031C195.138 132.562 194.553 131.909 194.141 131.071C193.734 130.228 193.531 129.248 193.531 128.131C193.531 127.013 193.734 126.028 194.141 125.176C194.553 124.319 195.126 123.652 195.86 123.173C196.599 122.69 197.46 122.449 198.445 122.449C199.013 122.449 199.575 122.544 200.129 122.733C200.683 122.922 201.187 123.23 201.641 123.656C202.096 124.078 202.458 124.636 202.728 125.332C202.998 126.028 203.133 126.885 203.133 127.903V128.614H194.724V127.165H201.428C201.428 126.549 201.305 126 201.059 125.517C200.817 125.034 200.472 124.653 200.022 124.374C199.577 124.094 199.051 123.955 198.445 123.955C197.778 123.955 197.2 124.12 196.712 124.452C196.229 124.778 195.858 125.205 195.597 125.73C195.337 126.256 195.207 126.819 195.207 127.42V128.386C195.207 129.21 195.349 129.909 195.633 130.482C195.922 131.05 196.322 131.483 196.833 131.781C197.344 132.075 197.939 132.222 198.616 132.222C199.056 132.222 199.454 132.16 199.809 132.037C200.169 131.909 200.479 131.72 200.739 131.469C201 131.213 201.201 130.896 201.343 130.517L202.962 130.972C202.792 131.521 202.505 132.004 202.103 132.42C201.701 132.832 201.203 133.154 200.612 133.386C200.02 133.614 199.354 133.727 198.616 133.727Z" fill="#2A3647"/>
</g>
<defs>
<filter id="filter0_d_86105_6083" x="0" y="0" width="272" height="176" filterUnits="userSpaceOnUse" color-interpolation-filters="sRGB">
<feFlood flood-opacity="0" result="BackgroundImageFix"/>
<feColorMatrix in="SourceAlpha" type="matrix" values="0 0 0 0 0 0 0 0 0 0 0 0 0 0 0 0 0 0 127 0" result="hardAlpha"/>
<feOffset/>
<feGaussianBlur stdDeviation="2"/>
<feColorMatrix type="matrix" values="0 0 0 0 0 0 0 0 0 0 0 0 0 0 0 0 0 0 0.1 0"/>
<feBlend mode="normal" in2="BackgroundImageFix" result="effect1_dropShadow_86105_6083"/>
<feBlend mode="normal" in="SourceGraphic" in2="effect1_dropShadow_86105_6083" result="shape"/>
</filter>
</defs>
</svg>
