<svg width="232" height="47" viewBox="0 0 232 47" fill="none" xmlns="http://www.w3.org/2000/svg">
<mask id="mask0_165003_5128" style="mask-type:alpha" maskUnits="userSpaceOnUse" x="55" y="8" width="31" height="31">
<rect x="55.9984" y="8.98291" width="30" height="30" fill="#D9D9D9"/>
</mask>
<g mask="url(#mask0_165003_5128)">
<path d="M70.9984 31.4829C69.8317 31.4829 68.7172 31.6652 67.6547 32.0298C66.5922 32.3944 65.6234 32.9412 64.7484 33.6704V33.9829H77.2484V33.6704C76.3734 32.9412 75.4047 32.3944 74.3422 32.0298C73.2797 31.6652 72.1651 31.4829 70.9984 31.4829ZM62.2484 32.5454C63.3734 31.4412 64.6807 30.5715 66.1703 29.936C67.6599 29.3006 69.2692 28.9829 70.9984 28.9829C72.7276 28.9829 74.337 29.3006 75.8265 29.936C77.3161 30.5715 78.6234 31.4412 79.7484 32.5454V16.4829H62.2484V32.5454ZM70.9984 26.4829C69.7901 26.4829 68.7588 26.0558 67.9047 25.2017C67.0505 24.3475 66.6234 23.3162 66.6234 22.1079C66.6234 20.8996 67.0505 19.8683 67.9047 19.0142C68.7588 18.16 69.7901 17.7329 70.9984 17.7329C72.2067 17.7329 73.238 18.16 74.0922 19.0142C74.9463 19.8683 75.3734 20.8996 75.3734 22.1079C75.3734 23.3162 74.9463 24.3475 74.0922 25.2017C73.238 26.0558 72.2067 26.4829 70.9984 26.4829ZM70.9984 23.9829C71.5192 23.9829 71.962 23.8006 72.3265 23.436C72.6911 23.0715 72.8734 22.6287 72.8734 22.1079C72.8734 21.5871 72.6911 21.1444 72.3265 20.7798C71.962 20.4152 71.5192 20.2329 70.9984 20.2329C70.4776 20.2329 70.0349 20.4152 69.6703 20.7798C69.3057 21.1444 69.1234 21.5871 69.1234 22.1079C69.1234 22.6287 69.3057 23.0715 69.6703 23.436C70.0349 23.8006 70.4776 23.9829 70.9984 23.9829ZM62.2484 36.4829C61.5609 36.4829 60.9724 36.2381 60.4828 35.7485C59.9932 35.259 59.7484 34.6704 59.7484 33.9829V16.4829C59.7484 15.7954 59.9932 15.2069 60.4828 14.7173C60.9724 14.2277 61.5609 13.9829 62.2484 13.9829H63.4984V11.4829H65.9984V13.9829H75.9984V11.4829H78.4984V13.9829H79.7484C80.4359 13.9829 81.0245 14.2277 81.514 14.7173C82.0036 15.2069 82.2484 15.7954 82.2484 16.4829V33.9829C82.2484 34.6704 82.0036 35.259 81.514 35.7485C81.0245 36.2381 80.4359 36.4829 79.7484 36.4829H62.2484Z" fill="#CDCDCD"/>
</g>
<path d="M104.771 21.4829H103.362C103.279 21.0776 103.133 20.7215 102.925 20.4147C102.72 20.1079 102.47 19.8503 102.175 19.642C101.883 19.4299 101.559 19.2708 101.203 19.1647C100.847 19.0587 100.476 19.0056 100.089 19.0056C99.3848 19.0056 98.7465 19.1837 98.1745 19.5397C97.6064 19.8958 97.1537 20.4204 96.8166 21.1136C96.4833 21.8068 96.3166 22.6572 96.3166 23.6647C96.3166 24.6723 96.4833 25.5227 96.8166 26.2159C97.1537 26.909 97.6064 27.4337 98.1745 27.7897C98.7465 28.1458 99.3848 28.3238 100.089 28.3238C100.476 28.3238 100.847 28.2708 101.203 28.1647C101.559 28.0587 101.883 27.9015 102.175 27.6931C102.47 27.481 102.72 27.2215 102.925 26.9147C103.133 26.6041 103.279 26.2481 103.362 25.8465H104.771C104.665 26.4412 104.472 26.9734 104.192 27.4431C103.911 27.9128 103.563 28.3125 103.146 28.642C102.729 28.9678 102.262 29.2159 101.743 29.3863C101.228 29.5568 100.676 29.642 100.089 29.642C99.0969 29.642 98.2143 29.3996 97.4416 28.9147C96.6689 28.4299 96.0609 27.7405 95.6177 26.8465C95.1745 25.9526 94.953 24.892 94.953 23.6647C94.953 22.4375 95.1745 21.3768 95.6177 20.4829C96.0609 19.589 96.6689 18.8996 97.4416 18.4147C98.2143 17.9299 99.0969 17.6875 100.089 17.6875C100.676 17.6875 101.228 17.7727 101.743 17.9431C102.262 18.1136 102.729 18.3636 103.146 18.6931C103.563 19.0189 103.911 19.4166 104.192 19.8863C104.472 20.3522 104.665 20.8844 104.771 21.4829ZM110.412 29.6647C109.624 29.6647 108.933 29.4772 108.338 29.1022C107.747 28.7272 107.285 28.2026 106.952 27.5284C106.622 26.8541 106.457 26.0662 106.457 25.1647C106.457 24.2556 106.622 23.4621 106.952 22.784C107.285 22.106 107.747 21.5795 108.338 21.2045C108.933 20.8295 109.624 20.642 110.412 20.642C111.2 20.642 111.889 20.8295 112.48 21.2045C113.075 21.5795 113.537 22.106 113.866 22.784C114.2 23.4621 114.366 24.2556 114.366 25.1647C114.366 26.0662 114.2 26.8541 113.866 27.5284C113.537 28.2026 113.075 28.7272 112.48 29.1022C111.889 29.4772 111.2 29.6647 110.412 29.6647ZM110.412 28.4602C111.01 28.4602 111.503 28.3068 111.889 28C112.275 27.6931 112.561 27.2897 112.747 26.7897C112.933 26.2897 113.025 25.7481 113.025 25.1647C113.025 24.5814 112.933 24.0378 112.747 23.534C112.561 23.0303 112.275 22.6231 111.889 22.3125C111.503 22.0018 111.01 21.8465 110.412 21.8465C109.813 21.8465 109.321 22.0018 108.934 22.3125C108.548 22.6231 108.262 23.0303 108.077 23.534C107.891 24.0378 107.798 24.5814 107.798 25.1647C107.798 25.7481 107.891 26.2897 108.077 26.7897C108.262 27.2897 108.548 27.6931 108.934 28C109.321 28.3068 109.813 28.4602 110.412 28.4602ZM117.754 24.2329V29.4829H116.413V20.7556H117.709V22.1193H117.822C118.027 21.6761 118.337 21.32 118.754 21.0511C119.171 20.7784 119.709 20.642 120.368 20.642C120.959 20.642 121.476 20.7632 121.919 21.0056C122.362 21.2443 122.707 21.6079 122.953 22.0965C123.199 22.5814 123.322 23.195 123.322 23.9375V29.4829H121.981V24.0284C121.981 23.3428 121.803 22.8087 121.447 22.4261C121.091 22.0397 120.603 21.8465 119.981 21.8465C119.553 21.8465 119.171 21.9393 118.834 22.125C118.5 22.3106 118.237 22.5814 118.044 22.9375C117.851 23.2935 117.754 23.7253 117.754 24.2329ZM129.568 20.7556V21.892H125.045V20.7556H129.568ZM126.363 18.6647H127.704V26.9829C127.704 27.3617 127.759 27.6458 127.869 27.8352C127.983 28.0208 128.127 28.1458 128.301 28.2102C128.479 28.2708 128.667 28.3011 128.863 28.3011C129.011 28.3011 129.132 28.2935 129.227 28.2784C129.322 28.2594 129.398 28.2443 129.454 28.2329L129.727 29.4375C129.636 29.4715 129.509 29.5056 129.346 29.5397C129.184 29.5776 128.977 29.5965 128.727 29.5965C128.348 29.5965 127.977 29.5151 127.613 29.3522C127.254 29.1893 126.954 28.9412 126.716 28.6079C126.481 28.2746 126.363 27.8541 126.363 27.3465V18.6647ZM134.153 29.6875C133.6 29.6875 133.098 29.5833 132.648 29.375C132.197 29.1628 131.839 28.8579 131.574 28.4602C131.309 28.0587 131.176 27.5738 131.176 27.0056C131.176 26.5056 131.274 26.1003 131.471 25.7897C131.668 25.4753 131.932 25.2291 132.261 25.0511C132.591 24.8731 132.954 24.7405 133.352 24.6534C133.754 24.5625 134.157 24.4905 134.562 24.4375C135.093 24.3693 135.523 24.3181 135.852 24.284C136.185 24.2462 136.428 24.1837 136.579 24.0965C136.735 24.0094 136.812 23.8579 136.812 23.642V23.5965C136.812 23.0359 136.659 22.6003 136.352 22.2897C136.049 21.9791 135.589 21.8238 134.971 21.8238C134.331 21.8238 133.829 21.964 133.466 22.2443C133.102 22.5246 132.846 22.8238 132.699 23.142L131.426 22.6875C131.653 22.1572 131.956 21.7443 132.335 21.4488C132.718 21.1496 133.134 20.9412 133.585 20.8238C134.04 20.7026 134.487 20.642 134.926 20.642C135.206 20.642 135.528 20.6761 135.892 20.7443C136.259 20.8087 136.613 20.9431 136.954 21.1477C137.299 21.3522 137.585 21.6609 137.812 22.0738C138.04 22.4867 138.153 23.0397 138.153 23.7329V29.4829H136.812V28.3011H136.744C136.653 28.4905 136.502 28.6931 136.29 28.909C136.077 29.125 135.795 29.3087 135.443 29.4602C135.091 29.6117 134.661 29.6875 134.153 29.6875ZM134.358 28.4829C134.888 28.4829 135.335 28.3787 135.699 28.1704C136.066 27.9621 136.343 27.6931 136.528 27.3636C136.718 27.034 136.812 26.6875 136.812 26.3238V25.0965C136.756 25.1647 136.631 25.2272 136.437 25.284C136.248 25.3371 136.028 25.3844 135.778 25.4261C135.532 25.464 135.292 25.4981 135.057 25.5284C134.826 25.5549 134.638 25.5776 134.494 25.5965C134.146 25.642 133.82 25.7159 133.517 25.8181C133.218 25.9166 132.975 26.0662 132.79 26.267C132.608 26.464 132.517 26.7329 132.517 27.0738C132.517 27.5397 132.689 27.892 133.034 28.1306C133.382 28.3655 133.824 28.4829 134.358 28.4829ZM144.146 29.6647C143.328 29.6647 142.623 29.4715 142.033 29.0852C141.442 28.6988 140.987 28.1666 140.669 27.4886C140.351 26.8106 140.192 26.0359 140.192 25.1647C140.192 24.2784 140.354 23.4962 140.68 22.8181C141.01 22.1363 141.468 21.6041 142.055 21.2215C142.646 20.8352 143.336 20.642 144.123 20.642C144.737 20.642 145.29 20.7556 145.783 20.9829C146.275 21.2102 146.678 21.5284 146.993 21.9375C147.307 22.3465 147.502 22.8238 147.578 23.3693H146.237C146.135 22.9715 145.908 22.6193 145.555 22.3125C145.207 22.0018 144.737 21.8465 144.146 21.8465C143.623 21.8465 143.165 21.9829 142.771 22.2556C142.381 22.5246 142.076 22.9053 141.856 23.3977C141.64 23.8863 141.533 24.4602 141.533 25.1193C141.533 25.7935 141.639 26.3806 141.851 26.8806C142.067 27.3806 142.37 27.7689 142.76 28.0454C143.154 28.3219 143.616 28.4602 144.146 28.4602C144.495 28.4602 144.811 28.3996 145.095 28.2784C145.379 28.1572 145.62 27.9829 145.817 27.7556C146.014 27.5284 146.154 27.2556 146.237 26.9375H147.578C147.502 27.4526 147.315 27.9166 147.015 28.3295C146.72 28.7386 146.328 29.0643 145.839 29.3068C145.354 29.5454 144.79 29.6647 144.146 29.6647ZM153.334 20.7556V21.892H148.811V20.7556H153.334ZM150.129 18.6647H151.47V26.9829C151.47 27.3617 151.525 27.6458 151.635 27.8352C151.748 28.0208 151.892 28.1458 152.067 28.2102C152.245 28.2708 152.432 28.3011 152.629 28.3011C152.777 28.3011 152.898 28.2935 152.993 28.2784C153.087 28.2594 153.163 28.2443 153.22 28.2329L153.493 29.4375C153.402 29.4715 153.275 29.5056 153.112 29.5397C152.949 29.5776 152.743 29.5965 152.493 29.5965C152.114 29.5965 151.743 29.5151 151.379 29.3522C151.019 29.1893 150.72 28.9412 150.481 28.6079C150.247 28.2746 150.129 27.8541 150.129 27.3465V18.6647ZM161.376 22.7102L160.172 23.0511C160.096 22.8503 159.984 22.6553 159.836 22.4659C159.693 22.2727 159.496 22.1136 159.246 21.9886C158.996 21.8636 158.675 21.8011 158.285 21.8011C157.751 21.8011 157.306 21.9242 156.95 22.1704C156.598 22.4128 156.422 22.7215 156.422 23.0965C156.422 23.4299 156.543 23.6931 156.785 23.8863C157.028 24.0795 157.407 24.2405 157.922 24.3693L159.217 24.6875C159.997 24.8768 160.579 25.1666 160.961 25.5568C161.344 25.9431 161.535 26.4412 161.535 27.0511C161.535 27.5511 161.391 27.9981 161.104 28.392C160.819 28.7859 160.422 29.0965 159.91 29.3238C159.399 29.5511 158.804 29.6647 158.126 29.6647C157.236 29.6647 156.499 29.4715 155.916 29.0852C155.333 28.6988 154.963 28.1344 154.808 27.392L156.081 27.0738C156.202 27.5435 156.431 27.8958 156.768 28.1306C157.109 28.3655 157.554 28.4829 158.104 28.4829C158.729 28.4829 159.225 28.3503 159.592 28.0852C159.963 27.8162 160.149 27.4943 160.149 27.1193C160.149 26.8162 160.043 26.5625 159.831 26.3579C159.619 26.1496 159.293 25.9943 158.854 25.892L157.399 25.5511C156.6 25.3617 156.013 25.0681 155.638 24.6704C155.266 24.2689 155.081 23.767 155.081 23.1647C155.081 22.6723 155.219 22.2367 155.496 21.8579C155.776 21.4791 156.157 21.1818 156.638 20.9659C157.122 20.75 157.672 20.642 158.285 20.642C159.149 20.642 159.827 20.8314 160.319 21.2102C160.816 21.589 161.168 22.089 161.376 22.7102Z" fill="#CDCDCD"/>
</svg>
