<svg width="232" height="47" viewBox="0 0 232 47" fill="none" xmlns="http://www.w3.org/2000/svg">
<rect width="232" height="46" transform="translate(0.00292969 0.96582)" fill="#091931"/>
<mask id="mask0_45_2639" style="mask-type:alpha" maskUnits="userSpaceOnUse" x="56" y="8" width="31" height="31">
<rect x="56.0029" y="8.96582" width="30" height="30" fill="#D9D9D9"/>
</mask>
<g mask="url(#mask0_45_2639)">
<path d="M71.0029 31.4658C69.8363 31.4658 68.7217 31.6481 67.6592 32.0127C66.5967 32.3773 65.6279 32.9242 64.7529 33.6533V33.9658H77.2529V33.6533C76.3779 32.9242 75.4092 32.3773 74.3467 32.0127C73.2842 31.6481 72.1696 31.4658 71.0029 31.4658ZM62.2529 32.5283C63.3779 31.4242 64.6852 30.5544 66.1748 29.9189C67.6644 29.2835 69.2738 28.9658 71.0029 28.9658C72.7321 28.9658 74.3415 29.2835 75.8311 29.9189C77.3206 30.5544 78.6279 31.4242 79.7529 32.5283V16.4658H62.2529V32.5283ZM71.0029 26.4658C69.7946 26.4658 68.7633 26.0387 67.9092 25.1846C67.055 24.3304 66.6279 23.2992 66.6279 22.0908C66.6279 20.8825 67.055 19.8512 67.9092 18.9971C68.7633 18.1429 69.7946 17.7158 71.0029 17.7158C72.2113 17.7158 73.2425 18.1429 74.0967 18.9971C74.9508 19.8512 75.3779 20.8825 75.3779 22.0908C75.3779 23.2992 74.9508 24.3304 74.0967 25.1846C73.2425 26.0387 72.2113 26.4658 71.0029 26.4658ZM71.0029 23.9658C71.5238 23.9658 71.9665 23.7835 72.3311 23.4189C72.6956 23.0544 72.8779 22.6117 72.8779 22.0908C72.8779 21.57 72.6956 21.1273 72.3311 20.7627C71.9665 20.3981 71.5238 20.2158 71.0029 20.2158C70.4821 20.2158 70.0394 20.3981 69.6748 20.7627C69.3102 21.1273 69.1279 21.57 69.1279 22.0908C69.1279 22.6117 69.3102 23.0544 69.6748 23.4189C70.0394 23.7835 70.4821 23.9658 71.0029 23.9658ZM62.2529 36.4658C61.5654 36.4658 60.9769 36.221 60.4873 35.7314C59.9977 35.2419 59.7529 34.6533 59.7529 33.9658V16.4658C59.7529 15.7783 59.9977 15.1898 60.4873 14.7002C60.9769 14.2106 61.5654 13.9658 62.2529 13.9658H63.5029V11.4658H66.0029V13.9658H76.0029V11.4658H78.5029V13.9658H79.7529C80.4404 13.9658 81.029 14.2106 81.5186 14.7002C82.0081 15.1898 82.2529 15.7783 82.2529 16.4658V33.9658C82.2529 34.6533 82.0081 35.2419 81.5186 35.7314C81.029 36.221 80.4404 36.4658 79.7529 36.4658H62.2529Z" fill="white"/>
</g>
<path d="M104.776 21.4658H103.367C103.283 21.0605 103.137 20.7045 102.929 20.3976C102.725 20.0908 102.475 19.8332 102.179 19.6249C101.887 19.4128 101.564 19.2537 101.207 19.1476C100.851 19.0416 100.48 18.9885 100.094 18.9885C99.3893 18.9885 98.751 19.1666 98.1791 19.5226C97.6109 19.8787 97.1582 20.4033 96.8211 21.0965C96.4878 21.7897 96.3211 22.6401 96.3211 23.6476C96.3211 24.6552 96.4878 25.5056 96.8211 26.1988C97.1582 26.892 97.6109 27.4166 98.1791 27.7726C98.751 28.1287 99.3893 28.3067 100.094 28.3067C100.48 28.3067 100.851 28.2537 101.207 28.1476C101.564 28.0416 101.887 27.8844 102.179 27.676C102.475 27.4639 102.725 27.2045 102.929 26.8976C103.137 26.587 103.283 26.231 103.367 25.8295H104.776C104.67 26.4242 104.476 26.9564 104.196 27.426C103.916 27.8957 103.567 28.2954 103.151 28.6249C102.734 28.9507 102.266 29.1988 101.747 29.3692C101.232 29.5397 100.681 29.6249 100.094 29.6249C99.1014 29.6249 98.2188 29.3825 97.4461 28.8976C96.6734 28.4128 96.0654 27.7234 95.6222 26.8295C95.1791 25.9355 94.9575 24.8749 94.9575 23.6476C94.9575 22.4204 95.1791 21.3598 95.6222 20.4658C96.0654 19.5719 96.6734 18.8825 97.4461 18.3976C98.2188 17.9128 99.1014 17.6704 100.094 17.6704C100.681 17.6704 101.232 17.7556 101.747 17.926C102.266 18.0965 102.734 18.3465 103.151 18.676C103.567 19.0018 103.916 19.3995 104.196 19.8692C104.476 20.3351 104.67 20.8673 104.776 21.4658ZM110.416 29.6476C109.628 29.6476 108.937 29.4601 108.342 29.0851C107.752 28.7101 107.289 28.1855 106.956 27.5113C106.627 26.837 106.462 26.0492 106.462 25.1476C106.462 24.2385 106.627 23.445 106.956 22.767C107.289 22.0889 107.752 21.5624 108.342 21.1874C108.937 20.8124 109.628 20.6249 110.416 20.6249C111.204 20.6249 111.894 20.8124 112.484 21.1874C113.079 21.5624 113.541 22.0889 113.871 22.767C114.204 23.445 114.371 24.2385 114.371 25.1476C114.371 26.0492 114.204 26.837 113.871 27.5113C113.541 28.1855 113.079 28.7101 112.484 29.0851C111.894 29.4601 111.204 29.6476 110.416 29.6476ZM110.416 28.4431C111.015 28.4431 111.507 28.2897 111.894 27.9829C112.28 27.676 112.566 27.2726 112.752 26.7726C112.937 26.2726 113.03 25.731 113.03 25.1476C113.03 24.5643 112.937 24.0207 112.752 23.517C112.566 23.0132 112.28 22.606 111.894 22.2954C111.507 21.9848 111.015 21.8295 110.416 21.8295C109.818 21.8295 109.325 21.9848 108.939 22.2954C108.553 22.606 108.267 23.0132 108.081 23.517C107.895 24.0207 107.803 24.5643 107.803 25.1476C107.803 25.731 107.895 26.2726 108.081 26.7726C108.267 27.2726 108.553 27.676 108.939 27.9829C109.325 28.2897 109.818 28.4431 110.416 28.4431ZM117.759 24.2158V29.4658H116.418V20.7385H117.713V22.1022H117.827C118.031 21.659 118.342 21.3029 118.759 21.034C119.175 20.7613 119.713 20.6249 120.372 20.6249C120.963 20.6249 121.48 20.7461 121.923 20.9885C122.367 21.2272 122.711 21.5908 122.957 22.0795C123.204 22.5643 123.327 23.1779 123.327 23.9204V29.4658H121.986V24.0113C121.986 23.3257 121.808 22.7916 121.452 22.409C121.096 22.0226 120.607 21.8295 119.986 21.8295C119.558 21.8295 119.175 21.9223 118.838 22.1079C118.505 22.2935 118.242 22.5643 118.048 22.9204C117.855 23.2764 117.759 23.7082 117.759 24.2158ZM129.573 20.7385V21.8749H125.05V20.7385H129.573ZM126.368 18.6476H127.709V26.9658C127.709 27.3446 127.764 27.6287 127.874 27.8181C127.987 28.0037 128.131 28.1287 128.305 28.1931C128.484 28.2537 128.671 28.284 128.868 28.284C129.016 28.284 129.137 28.2764 129.232 28.2613C129.326 28.2423 129.402 28.2272 129.459 28.2158L129.732 29.4204C129.641 29.4545 129.514 29.4885 129.351 29.5226C129.188 29.5605 128.982 29.5795 128.732 29.5795C128.353 29.5795 127.982 29.498 127.618 29.3351C127.258 29.1723 126.959 28.9242 126.72 28.5908C126.485 28.2575 126.368 27.837 126.368 27.3295V18.6476ZM134.158 29.6704C133.605 29.6704 133.103 29.5662 132.652 29.3579C132.201 29.1457 131.843 28.8408 131.578 28.4431C131.313 28.0416 131.18 27.5567 131.18 26.9885C131.18 26.4885 131.279 26.0832 131.476 25.7726C131.673 25.4582 131.936 25.212 132.266 25.034C132.595 24.856 132.959 24.7234 133.357 24.6363C133.758 24.5454 134.162 24.4734 134.567 24.4204C135.097 24.3522 135.527 24.301 135.857 24.267C136.19 24.2291 136.432 24.1666 136.584 24.0795C136.739 23.9923 136.817 23.8408 136.817 23.6249V23.5795C136.817 23.0189 136.663 22.5832 136.357 22.2726C136.054 21.962 135.593 21.8067 134.976 21.8067C134.336 21.8067 133.834 21.9469 133.47 22.2272C133.107 22.5075 132.851 22.8067 132.703 23.1249L131.43 22.6704C131.658 22.1401 131.961 21.7272 132.34 21.4317C132.722 21.1325 133.139 20.9242 133.59 20.8067C134.044 20.6855 134.491 20.6249 134.93 20.6249C135.211 20.6249 135.533 20.659 135.896 20.7272C136.264 20.7916 136.618 20.926 136.959 21.1306C137.304 21.3351 137.59 21.6439 137.817 22.0567C138.044 22.4696 138.158 23.0226 138.158 23.7158V29.4658H136.817V28.284H136.749C136.658 28.4734 136.506 28.676 136.294 28.892C136.082 29.1079 135.8 29.2916 135.448 29.4431C135.095 29.5946 134.665 29.6704 134.158 29.6704ZM134.362 28.4658C134.893 28.4658 135.34 28.3617 135.703 28.1533C136.071 27.945 136.347 27.676 136.533 27.3465C136.722 27.017 136.817 26.6704 136.817 26.3067V25.0795C136.76 25.1476 136.635 25.2101 136.442 25.267C136.252 25.32 136.033 25.3673 135.783 25.409C135.537 25.4469 135.296 25.481 135.061 25.5113C134.83 25.5378 134.643 25.5605 134.499 25.5795C134.15 25.6249 133.824 25.6988 133.521 25.801C133.222 25.8995 132.98 26.0492 132.794 26.2499C132.612 26.4469 132.521 26.7158 132.521 27.0567C132.521 27.5226 132.694 27.8749 133.038 28.1135C133.387 28.3484 133.828 28.4658 134.362 28.4658ZM144.151 29.6476C143.332 29.6476 142.628 29.4545 142.037 29.0681C141.446 28.6817 140.992 28.1495 140.673 27.4715C140.355 26.7935 140.196 26.0189 140.196 25.1476C140.196 24.2613 140.359 23.4791 140.685 22.801C141.014 22.1192 141.473 21.587 142.06 21.2045C142.651 20.8181 143.34 20.6249 144.128 20.6249C144.742 20.6249 145.295 20.7385 145.787 20.9658C146.279 21.1931 146.683 21.5113 146.997 21.9204C147.312 22.3295 147.507 22.8067 147.582 23.3522H146.242C146.139 22.9545 145.912 22.6022 145.56 22.2954C145.211 21.9848 144.742 21.8295 144.151 21.8295C143.628 21.8295 143.17 21.9658 142.776 22.2385C142.386 22.5075 142.081 22.8882 141.861 23.3806C141.645 23.8692 141.537 24.4431 141.537 25.1022C141.537 25.7764 141.643 26.3635 141.855 26.8635C142.071 27.3635 142.374 27.7518 142.764 28.0283C143.158 28.3048 143.62 28.4431 144.151 28.4431C144.499 28.4431 144.815 28.3825 145.1 28.2613C145.384 28.1401 145.624 27.9658 145.821 27.7385C146.018 27.5113 146.158 27.2385 146.242 26.9204H147.582C147.507 27.4355 147.319 27.8995 147.02 28.3124C146.725 28.7215 146.332 29.0473 145.844 29.2897C145.359 29.5283 144.795 29.6476 144.151 29.6476ZM153.338 20.7385V21.8749H148.815V20.7385H153.338ZM150.134 18.6476H151.475V26.9658C151.475 27.3446 151.529 27.6287 151.639 27.8181C151.753 28.0037 151.897 28.1287 152.071 28.1931C152.249 28.2537 152.437 28.284 152.634 28.284C152.781 28.284 152.903 28.2764 152.997 28.2613C153.092 28.2423 153.168 28.2272 153.225 28.2158L153.497 29.4204C153.406 29.4545 153.279 29.4885 153.117 29.5226C152.954 29.5605 152.747 29.5795 152.497 29.5795C152.118 29.5795 151.747 29.498 151.384 29.3351C151.024 29.1723 150.725 28.9242 150.486 28.5908C150.251 28.2575 150.134 27.837 150.134 27.3295V18.6476ZM161.381 22.6931L160.176 23.034C160.1 22.8332 159.989 22.6382 159.841 22.4488C159.697 22.2556 159.5 22.0965 159.25 21.9715C159 21.8465 158.68 21.784 158.29 21.784C157.756 21.784 157.311 21.9071 156.955 22.1533C156.602 22.3957 156.426 22.7045 156.426 23.0795C156.426 23.4128 156.547 23.676 156.79 23.8692C157.032 24.0624 157.411 24.2234 157.926 24.3522L159.222 24.6704C160.002 24.8598 160.583 25.1495 160.966 25.5397C161.349 25.926 161.54 26.4242 161.54 27.034C161.54 27.534 161.396 27.981 161.108 28.3749C160.824 28.7689 160.426 29.0795 159.915 29.3067C159.403 29.534 158.809 29.6476 158.131 29.6476C157.241 29.6476 156.504 29.4545 155.921 29.0681C155.337 28.6817 154.968 28.1173 154.813 27.3749L156.085 27.0567C156.207 27.5264 156.436 27.8787 156.773 28.1135C157.114 28.3484 157.559 28.4658 158.108 28.4658C158.733 28.4658 159.229 28.3332 159.597 28.0681C159.968 27.7992 160.153 27.4772 160.153 27.1022C160.153 26.7992 160.047 26.5454 159.835 26.3408C159.623 26.1325 159.297 25.9772 158.858 25.8749L157.403 25.534C156.604 25.3446 156.017 25.051 155.642 24.6533C155.271 24.2518 155.085 23.7499 155.085 23.1476C155.085 22.6552 155.224 22.2196 155.5 21.8408C155.78 21.462 156.161 21.1647 156.642 20.9488C157.127 20.7329 157.676 20.6249 158.29 20.6249C159.153 20.6249 159.832 20.8143 160.324 21.1931C160.82 21.5719 161.172 22.0719 161.381 22.6931Z" fill="white"/>
</svg>
