<svg width="56" height="57" viewBox="0 0 56 57" fill="none" xmlns="http://www.w3.org/2000/svg">
<rect width="48" height="48" rx="24" transform="matrix(1 0 0 -1 4 52.9658)" fill="white"/>
<rect width="48" height="48" rx="24" transform="matrix(1 0 0 -1 4 52.9658)" fill="#0C2E62" fill-opacity="0.12"/>
<path d="M32.4443 25.5248C32.3112 25.0621 32.1243 24.6534 31.8835 24.2985C31.6427 23.9373 31.348 23.6331 30.9994 23.386C30.6572 23.1325 30.2643 22.9392 29.8207 22.8061C29.3835 22.673 28.8987 22.6065 28.3664 22.6065C27.3714 22.6065 26.4969 22.8537 25.7428 23.3479C24.995 23.8422 24.412 24.5615 23.9937 25.5057C23.5755 26.4436 23.3664 27.5907 23.3664 28.9468C23.3664 30.303 23.5723 31.4563 23.9842 32.4069C24.3961 33.3575 24.9792 34.0831 25.7333 34.5837C26.4874 35.078 27.3778 35.3251 28.4044 35.3251C29.3359 35.3251 30.1313 35.1604 30.7903 34.8308C31.4557 34.495 31.9627 34.0229 32.3112 33.4145C32.6661 32.8061 32.8435 32.0869 32.8435 31.2567L33.68 31.3803H28.661V28.2814H36.8074V30.7339C36.8074 32.4449 36.4462 33.9151 35.7238 35.1445C35.0013 36.3676 34.0064 37.3118 32.739 37.9772C31.4716 38.6363 30.0204 38.9658 28.3854 38.9658C26.5603 38.9658 24.957 38.5634 23.5755 37.7586C22.194 36.9474 21.1167 35.7973 20.3435 34.308C19.5768 32.8125 19.1934 31.0381 19.1934 28.9848C19.1934 27.4069 19.4215 26 19.8778 24.7643C20.3404 23.5222 20.9868 22.4703 21.8169 21.6084C22.6471 20.7466 23.6135 20.0907 24.7162 19.6407C25.8188 19.1908 27.0134 18.9658 28.2998 18.9658C29.4025 18.9658 30.4291 19.1274 31.3797 19.4506C32.3302 19.7675 33.1731 20.2174 33.9082 20.8004C34.6496 21.3834 35.2548 22.0774 35.7238 22.8822C36.1927 23.6806 36.4937 24.5615 36.6268 25.5248H32.4443Z" fill="#29ABE2"/>
<circle cx="28" cy="28.9658" r="26.5" stroke="#2A3647" stroke-width="3"/>
</svg>
