<svg width="145" height="64" viewBox="0 0 145 64" fill="none" xmlns="http://www.w3.org/2000/svg">
<g filter="url(#filter0_d_165003_5543)">
<rect x="4.24854" y="4" width="136" height="56" rx="10" fill="white"/>
<path d="M40.0099 39V24.4545H41.7713V37.4375H48.5326V39H40.0099ZM55.4644 39.2273C54.4796 39.2273 53.6155 38.9929 52.8721 38.5241C52.1335 38.0554 51.5558 37.3996 51.1392 36.5568C50.7272 35.714 50.5213 34.7292 50.5213 33.6023C50.5213 32.4659 50.7272 31.474 51.1392 30.6264C51.5558 29.7789 52.1335 29.1207 52.8721 28.652C53.6155 28.1832 54.4796 27.9489 55.4644 27.9489C56.4493 27.9489 57.311 28.1832 58.0497 28.652C58.793 29.1207 59.3707 29.7789 59.7826 30.6264C60.1993 31.474 60.4076 32.4659 60.4076 33.6023C60.4076 34.7292 60.1993 35.714 59.7826 36.5568C59.3707 37.3996 58.793 38.0554 58.0497 38.5241C57.311 38.9929 56.4493 39.2273 55.4644 39.2273ZM55.4644 37.7216C56.2126 37.7216 56.8281 37.5298 57.311 37.1463C57.794 36.7628 58.1515 36.2585 58.3835 35.6335C58.6155 35.0085 58.7315 34.3314 58.7315 33.6023C58.7315 32.8731 58.6155 32.1937 58.3835 31.5639C58.1515 30.9342 57.794 30.4252 57.311 30.0369C56.8281 29.6487 56.2126 29.4545 55.4644 29.4545C54.7163 29.4545 54.1008 29.6487 53.6179 30.0369C53.1349 30.4252 52.7774 30.9342 52.5454 31.5639C52.3134 32.1937 52.1974 32.8731 52.1974 33.6023C52.1974 34.3314 52.3134 35.0085 52.5454 35.6335C52.7774 36.2585 53.1349 36.7628 53.6179 37.1463C54.1008 37.5298 54.7163 37.7216 55.4644 37.7216ZM65.0667 39L61.7429 28.0909H63.5042L65.8622 36.4432H65.9758L68.3054 28.0909H70.0951L72.3963 36.4148H72.5099L74.8679 28.0909H76.6292L73.3054 39H71.6576L69.2713 30.6193H69.1008L66.7144 39H65.0667Z" fill="black"/>
<path d="M96.2485 33.5059C96.0139 33.5063 95.7854 33.4315 95.5966 33.2924L86.6934 26.7226C86.5776 26.6371 86.4798 26.5296 86.4055 26.4062C86.3313 26.2829 86.282 26.1461 86.2607 26.0038C86.2175 25.7163 86.2904 25.4235 86.4633 25.1897C86.6363 24.9559 86.895 24.8004 87.1827 24.7572C87.4704 24.7141 87.7635 24.787 87.9974 24.9598L96.2485 31.0422L104.5 24.9598C104.615 24.8742 104.747 24.8123 104.887 24.7775C105.027 24.7428 105.172 24.7359 105.314 24.7572C105.457 24.7786 105.594 24.8278 105.717 24.902C105.841 24.9762 105.948 25.0739 106.034 25.1897C106.119 25.3055 106.181 25.4369 106.216 25.5766C106.251 25.7163 106.258 25.8614 106.236 26.0038C106.215 26.1461 106.166 26.2829 106.092 26.4062C106.017 26.5296 105.919 26.6371 105.804 26.7226L96.9005 33.2924C96.7117 33.4315 96.4831 33.5063 96.2485 33.5059Z" fill="#7AE229"/>
<path d="M96.2485 39.2544C96.0139 39.2548 95.7854 39.18 95.5966 39.0409L86.6934 32.4712C86.4595 32.2984 86.3038 32.0398 86.2607 31.7523C86.2175 31.4648 86.2904 31.172 86.4633 30.9382C86.6363 30.7045 86.895 30.5489 87.1827 30.5058C87.4704 30.4627 87.7635 30.5355 87.9974 30.7083L96.2485 36.7908L104.5 30.7083C104.734 30.5355 105.027 30.4627 105.314 30.5058C105.602 30.5489 105.861 30.7045 106.034 30.9382C106.207 31.172 106.28 31.4648 106.236 31.7523C106.193 32.0398 106.038 32.2984 105.804 32.4712L96.9005 39.0409C96.7117 39.18 96.4831 39.2548 96.2485 39.2544Z" fill="#7AE229"/>
</g>
<defs>
<filter id="filter0_d_165003_5543" x="0.248535" y="0" width="144" height="64" filterUnits="userSpaceOnUse" color-interpolation-filters="sRGB">
<feFlood flood-opacity="0" result="BackgroundImageFix"/>
<feColorMatrix in="SourceAlpha" type="matrix" values="0 0 0 0 0 0 0 0 0 0 0 0 0 0 0 0 0 0 127 0" result="hardAlpha"/>
<feOffset/>
<feGaussianBlur stdDeviation="2"/>
<feColorMatrix type="matrix" values="0 0 0 0 0 0 0 0 0 0 0 0 0 0 0 0 0 0 0.1 0"/>
<feBlend mode="normal" in2="BackgroundImageFix" result="effect1_dropShadow_165003_5543"/>
<feBlend mode="normal" in="SourceGraphic" in2="effect1_dropShadow_165003_5543" result="shape"/>
</filter>
</defs>
</svg>
