<svg width="137" height="56" viewBox="0 0 137 56" fill="none" xmlns="http://www.w3.org/2000/svg">
<rect x="0.248535" width="136" height="56" rx="10" fill="#FFA800"/>
<path d="M13.5759 20.7273H17.5582L21.7642 30.9886H21.9431L26.1491 20.7273H30.1313V36H26.9992V26.0593H26.8725L22.9201 35.9254H20.7872L16.8348 26.022H16.7081V36H13.5759V20.7273ZM37.9523 36.2237C36.774 36.2237 35.7598 35.9851 34.9097 35.5078C34.0645 35.0256 33.4132 34.3445 32.9558 33.4645C32.4984 32.5795 32.2698 31.533 32.2698 30.3249C32.2698 29.1467 32.4984 28.1126 32.9558 27.2227C33.4132 26.3327 34.057 25.6392 34.8873 25.142C35.7225 24.6449 36.7019 24.3963 37.8255 24.3963C38.5812 24.3963 39.2847 24.5181 39.9359 24.7617C40.5922 25.0004 41.1639 25.3608 41.6511 25.843C42.1433 26.3253 42.5261 26.9318 42.7996 27.6626C43.073 28.3885 43.2097 29.2386 43.2097 30.2131V31.0856H33.5375V29.1168H40.2193C40.2193 28.6594 40.1199 28.2543 39.921 27.9013C39.7222 27.5483 39.4462 27.2724 39.0933 27.0735C38.7453 26.8697 38.3401 26.7678 37.8777 26.7678C37.3955 26.7678 36.9679 26.8796 36.595 27.1033C36.2271 27.3221 35.9388 27.6179 35.73 27.9908C35.5212 28.3587 35.4143 28.7688 35.4093 29.2212V31.093C35.4093 31.6598 35.5137 32.1495 35.7225 32.5621C35.9363 32.9748 36.2371 33.293 36.6249 33.5167C37.0127 33.7404 37.4725 33.8523 38.0045 33.8523C38.3575 33.8523 38.6806 33.8026 38.9739 33.7031C39.2673 33.6037 39.5183 33.4545 39.7271 33.2557C39.9359 33.0568 40.095 32.8132 40.2044 32.5249L43.1426 32.7188C42.9935 33.4247 42.6877 34.0412 42.2254 34.5682C41.768 35.0902 41.1764 35.4979 40.4505 35.7912C39.7296 36.0795 38.8969 36.2237 37.9523 36.2237ZM49.5038 36.1864C48.6337 36.1864 47.8457 35.9627 47.1398 35.5153C46.4388 35.0629 45.882 34.3991 45.4693 33.5241C45.0617 32.6442 44.8578 31.5653 44.8578 30.2876C44.8578 28.9751 45.0691 27.8839 45.4917 27.0138C45.9143 26.1388 46.4761 25.4851 47.1771 25.0526C47.883 24.6151 48.6561 24.3963 49.4963 24.3963C50.1377 24.3963 50.6721 24.5057 51.0997 24.7244C51.5322 24.9382 51.8802 25.2067 52.1437 25.5298C52.4122 25.848 52.616 26.1612 52.7552 26.4695H52.8521V20.7273H56.0215V36H52.8894V34.1655H52.7552C52.606 34.4837 52.3948 34.7994 52.1213 35.1126C51.8529 35.4208 51.5024 35.6768 51.0698 35.8807C50.6423 36.0845 50.1203 36.1864 49.5038 36.1864ZM50.5105 33.6584C51.0226 33.6584 51.4551 33.5192 51.8081 33.2408C52.1661 32.9574 52.4395 32.5621 52.6284 32.055C52.8223 31.5479 52.9193 30.9538 52.9193 30.2727C52.9193 29.5916 52.8248 29 52.6359 28.4979C52.447 27.9957 52.1735 27.608 51.8156 27.3345C51.4576 27.0611 51.0226 26.9244 50.5105 26.9244C49.9885 26.9244 49.5485 27.0661 49.1906 27.3494C48.8326 27.6328 48.5617 28.0256 48.3777 28.5277C48.1938 29.0298 48.1018 29.6115 48.1018 30.2727C48.1018 30.9389 48.1938 31.5281 48.3777 32.0401C48.5666 32.5472 48.8376 32.945 49.1906 33.2333C49.5485 33.5167 49.9885 33.6584 50.5105 33.6584ZM58.6335 36V24.5455H61.8103V36H58.6335ZM60.2294 23.0689C59.7571 23.0689 59.3519 22.9123 59.0138 22.5991C58.6807 22.2809 58.5142 21.9006 58.5142 21.4581C58.5142 21.0206 58.6807 20.6452 59.0138 20.332C59.3519 20.0138 59.7571 19.8548 60.2294 19.8548C60.7017 19.8548 61.1044 20.0138 61.4375 20.332C61.7755 20.6452 61.9446 21.0206 61.9446 21.4581C61.9446 21.9006 61.7755 22.2809 61.4375 22.5991C61.1044 22.9123 60.7017 23.0689 60.2294 23.0689ZM71.7007 31.1229V24.5455H74.8775V36H71.8275V33.9194H71.7081C71.4496 34.5906 71.0196 35.13 70.418 35.5376C69.8214 35.9453 69.0931 36.1491 68.233 36.1491C67.4674 36.1491 66.7937 35.9751 66.212 35.6271C65.6304 35.2791 65.1755 34.7844 64.8473 34.1431C64.5242 33.5018 64.3601 32.7337 64.3552 31.8388V24.5455H67.532V31.272C67.537 31.9482 67.7184 32.4826 68.0764 32.8754C68.4343 33.2681 68.9141 33.4645 69.5157 33.4645C69.8985 33.4645 70.2564 33.3775 70.5895 33.2035C70.9226 33.0245 71.1911 32.761 71.3949 32.413C71.6037 32.065 71.7057 31.6349 71.7007 31.1229ZM77.4186 36V24.5455H80.4463V26.5664H80.5806C80.8192 25.8952 81.2169 25.3658 81.7737 24.978C82.3306 24.5902 82.9968 24.3963 83.7723 24.3963C84.5578 24.3963 85.2265 24.5927 85.7784 24.9854C86.3302 25.3732 86.6981 25.9002 86.8821 26.5664H87.0014C87.235 25.9102 87.6576 25.3857 88.2691 24.9929C88.8856 24.5952 89.6139 24.3963 90.4541 24.3963C91.523 24.3963 92.3906 24.7369 93.0568 25.418C93.7279 26.0941 94.0635 27.0536 94.0635 28.2965V36H90.8941V28.9229C90.8941 28.2866 90.7251 27.8093 90.387 27.4911C90.049 27.1729 89.6264 27.0138 89.1193 27.0138C88.5426 27.0138 88.0926 27.1978 87.7695 27.5657C87.4463 27.9286 87.2848 28.4084 87.2848 29.005V36H84.2049V28.8558C84.2049 28.294 84.0433 27.8466 83.7201 27.5135C83.4019 27.1804 82.9818 27.0138 82.4598 27.0138C82.1068 27.0138 81.7887 27.1033 81.5053 27.2823C81.2269 27.4563 81.0056 27.7024 80.8416 28.0206C80.6775 28.3338 80.5955 28.7017 80.5955 29.1243V36H77.4186Z" fill="white"/>
<g clip-path="url(#clip0_165003_5536)">
<path d="M123.153 31.7253H105.344C105.054 31.7253 104.775 31.609 104.57 31.402C104.364 31.195 104.249 30.9142 104.249 30.6214C104.249 30.3287 104.364 30.0479 104.57 29.8409C104.775 29.6339 105.054 29.5176 105.344 29.5176H123.153C123.443 29.5176 123.722 29.6339 123.928 29.8409C124.133 30.0479 124.249 30.3287 124.249 30.6214C124.249 30.9142 124.133 31.195 123.928 31.402C123.722 31.609 123.443 31.7253 123.153 31.7253Z" fill="white"/>
<path d="M123.153 26.4821H105.344C105.054 26.4821 104.775 26.3658 104.57 26.1588C104.364 25.9518 104.249 25.671 104.249 25.3783C104.249 25.0855 104.364 24.8047 104.57 24.5977C104.775 24.3907 105.054 24.2744 105.344 24.2744H123.153C123.443 24.2744 123.722 24.3907 123.928 24.5977C124.133 24.8047 124.249 25.0855 124.249 25.3783C124.249 25.671 124.133 25.9518 123.928 26.1588C123.722 26.3658 123.443 26.4821 123.153 26.4821Z" fill="white"/>
</g>
<defs>
<clipPath id="clip0_165003_5536">
<rect width="20" height="7.45098" fill="white" transform="translate(104.249 24.2744)"/>
</clipPath>
</defs>
</svg>
