<svg width="17" height="8" viewBox="0 0 17 8" fill="none" xmlns="http://www.w3.org/2000/svg">
<path d="M16.0685 7.16658H0.931507C0.684456 7.16658 0.447523 7.06773 0.272832 6.89177C0.0981406 6.71581 0 6.47716 0 6.22831C0 5.97947 0.0981406 5.74081 0.272832 5.56485C0.447523 5.38889 0.684456 5.29004 0.931507 5.29004H16.0685C16.3155 5.29004 16.5525 5.38889 16.7272 5.56485C16.9019 5.74081 17 5.97947 17 6.22831C17 6.47716 16.9019 6.71581 16.7272 6.89177C16.5525 7.06773 16.3155 7.16658 16.0685 7.16658Z" fill="#FF7A00"/>
<path d="M16.0685 2.7098H0.931507C0.684456 2.7098 0.447523 2.61094 0.272832 2.43498C0.0981406 2.25902 0 2.02037 0 1.77152C0 1.52268 0.0981406 1.28403 0.272832 1.10807C0.447523 0.932105 0.684456 0.833252 0.931507 0.833252H16.0685C16.3155 0.833252 16.5525 0.932105 16.7272 1.10807C16.9019 1.28403 17 1.52268 17 1.77152C17 2.02037 16.9019 2.25902 16.7272 2.43498C16.5525 2.61094 16.3155 2.7098 16.0685 2.7098Z" fill="#FF7A00"/>
</svg>
