<svg width="76" height="76" viewBox="0 0 76 76" fill="none" xmlns="http://www.w3.org/2000/svg">
<path d="M47 16.5H29C27.8954 16.5 27 17.3965 27 18.501C27 18.5294 27 18.5493 27 18.5592V36.5592C27 37.6311 27.87 38.5 28.9419 38.5C28.9701 38.5 28.99 38.5 29 38.5H47C47.01 38.5 47.0299 38.5 47.0581 38.5C48.13 38.5 49 37.6311 49 36.5592V18.5591C49 18.5493 49 18.5294 49 18.501C49 17.3965 48.1046 16.5 47 16.5ZM40 36.5592H29V28.5591H40V36.5592ZM40 26.5591H29V18.5592L40 18.5591V26.5591ZM47 36.5592H42V18.5592H47V36.5592Z" fill="#CDCDCD"/>
<path d="M13.5068 54.8408C13.5068 55.4333 13.3587 55.9391 13.0625 56.3584C12.7708 56.7731 12.3607 57.0898 11.832 57.3086C11.3034 57.5273 10.6813 57.6367 9.96582 57.6367C9.58757 57.6367 9.22982 57.6185 8.89258 57.582C8.55534 57.5456 8.24544 57.4932 7.96289 57.4248C7.68034 57.3564 7.43197 57.2721 7.21777 57.1719V56.0576C7.55957 56.1989 7.97656 56.3311 8.46875 56.4541C8.96094 56.5726 9.47591 56.6318 10.0137 56.6318C10.515 56.6318 10.9388 56.5658 11.2852 56.4336C11.6315 56.2969 11.8936 56.1032 12.0713 55.8525C12.2536 55.5973 12.3447 55.292 12.3447 54.9365C12.3447 54.5947 12.2695 54.3099 12.1191 54.082C11.9688 53.8496 11.7181 53.64 11.3672 53.4531C11.0208 53.2617 10.5469 53.0589 9.94531 52.8447C9.52148 52.6943 9.14779 52.5303 8.82422 52.3525C8.50065 52.1702 8.22949 51.9652 8.01074 51.7373C7.79199 51.5094 7.62565 51.2451 7.51172 50.9443C7.40234 50.6436 7.34766 50.2995 7.34766 49.9121C7.34766 49.3789 7.4821 48.9232 7.75098 48.5449C8.02441 48.1621 8.40039 47.8704 8.87891 47.6699C9.36198 47.4648 9.91569 47.3623 10.54 47.3623C11.0732 47.3623 11.5654 47.4124 12.0166 47.5127C12.4723 47.613 12.8893 47.7474 13.2676 47.916L12.9053 48.9141C12.5452 48.7637 12.1624 48.6383 11.7568 48.5381C11.3558 48.4378 10.9411 48.3877 10.5127 48.3877C10.0843 48.3877 9.72201 48.4515 9.42578 48.5791C9.13411 48.7021 8.91081 48.8776 8.75586 49.1055C8.60091 49.3333 8.52344 49.6045 8.52344 49.9189C8.52344 50.2699 8.59635 50.5615 8.74219 50.7939C8.89258 51.0264 9.12956 51.2337 9.45312 51.416C9.78125 51.5938 10.2142 51.7806 10.752 51.9766C11.3398 52.1908 11.8389 52.4186 12.249 52.6602C12.6592 52.8971 12.9714 53.1888 13.1855 53.5352C13.3997 53.877 13.5068 54.3122 13.5068 54.8408ZM21.5664 50.0078V57.5H20.6367L20.4727 56.4473H20.4111C20.2562 56.707 20.0557 56.9258 19.8096 57.1035C19.5635 57.2812 19.2855 57.4134 18.9756 57.5C18.6702 57.5911 18.3444 57.6367 17.998 57.6367C17.4056 57.6367 16.9089 57.541 16.5078 57.3496C16.1068 57.1582 15.8037 56.862 15.5986 56.4609C15.3981 56.0599 15.2979 55.5449 15.2979 54.916V50.0078H16.4463V54.834C16.4463 55.4583 16.5876 55.9255 16.8701 56.2354C17.1527 56.5407 17.5833 56.6934 18.1621 56.6934C18.7181 56.6934 19.1602 56.5885 19.4883 56.3789C19.821 56.1693 20.0602 55.8617 20.2061 55.4561C20.3519 55.0459 20.4248 54.5446 20.4248 53.9521V50.0078H21.5664ZM32.1006 49.8711C32.9255 49.8711 33.5475 50.0876 33.9668 50.5205C34.3861 50.9489 34.5957 51.6393 34.5957 52.5918V57.5H33.4746V52.6465C33.4746 52.0404 33.3424 51.5869 33.0781 51.2861C32.8184 50.9808 32.431 50.8281 31.916 50.8281C31.1914 50.8281 30.665 51.0378 30.3369 51.457C30.0088 51.8763 29.8447 52.4938 29.8447 53.3096V57.5H28.7168V52.6465C28.7168 52.2409 28.6576 51.9036 28.5391 51.6348C28.4251 51.3659 28.252 51.1654 28.0195 51.0332C27.7917 50.8965 27.5023 50.8281 27.1514 50.8281C26.6546 50.8281 26.2559 50.9307 25.9551 51.1357C25.6543 51.3408 25.4355 51.6462 25.2988 52.0518C25.1667 52.4528 25.1006 52.9473 25.1006 53.5352V57.5H23.9658V50.0078H24.8818L25.0527 51.0674H25.1143C25.2646 50.8076 25.4538 50.5889 25.6816 50.4111C25.9095 50.2334 26.1647 50.099 26.4473 50.0078C26.7298 49.9167 27.0306 49.8711 27.3496 49.8711C27.9193 49.8711 28.3955 49.9782 28.7783 50.1924C29.1657 50.402 29.446 50.7233 29.6191 51.1562H29.6807C29.9268 50.7233 30.264 50.402 30.6924 50.1924C31.1208 49.9782 31.5902 49.8711 32.1006 49.8711ZM45.0615 49.8711C45.8864 49.8711 46.5085 50.0876 46.9277 50.5205C47.347 50.9489 47.5566 51.6393 47.5566 52.5918V57.5H46.4355V52.6465C46.4355 52.0404 46.3034 51.5869 46.0391 51.2861C45.7793 50.9808 45.3919 50.8281 44.877 50.8281C44.1523 50.8281 43.626 51.0378 43.2979 51.457C42.9697 51.8763 42.8057 52.4938 42.8057 53.3096V57.5H41.6777V52.6465C41.6777 52.2409 41.6185 51.9036 41.5 51.6348C41.3861 51.3659 41.2129 51.1654 40.9805 51.0332C40.7526 50.8965 40.4632 50.8281 40.1123 50.8281C39.6156 50.8281 39.2168 50.9307 38.916 51.1357C38.6152 51.3408 38.3965 51.6462 38.2598 52.0518C38.1276 52.4528 38.0615 52.9473 38.0615 53.5352V57.5H36.9268V50.0078H37.8428L38.0137 51.0674H38.0752C38.2256 50.8076 38.4147 50.5889 38.6426 50.4111C38.8704 50.2334 39.1257 50.099 39.4082 50.0078C39.6908 49.9167 39.9915 49.8711 40.3105 49.8711C40.8802 49.8711 41.3564 49.9782 41.7393 50.1924C42.1266 50.402 42.4069 50.7233 42.5801 51.1562H42.6416C42.8877 50.7233 43.2249 50.402 43.6533 50.1924C44.0817 49.9782 44.5511 49.8711 45.0615 49.8711ZM52.6904 49.8848C53.5837 49.8848 54.2467 50.0853 54.6797 50.4863C55.1126 50.8874 55.3291 51.5277 55.3291 52.4072V57.5H54.502L54.2832 56.3926H54.2285C54.0189 56.666 53.8001 56.8962 53.5723 57.083C53.3444 57.2653 53.0801 57.4043 52.7793 57.5C52.4831 57.5911 52.1185 57.6367 51.6855 57.6367C51.2298 57.6367 50.8242 57.557 50.4688 57.3975C50.1178 57.238 49.8398 56.9964 49.6348 56.6729C49.4342 56.3493 49.334 55.9391 49.334 55.4424C49.334 54.695 49.6302 54.1208 50.2227 53.7197C50.8151 53.3187 51.7174 53.0999 52.9297 53.0635L54.2217 53.0088V52.5508C54.2217 51.9036 54.0827 51.4502 53.8047 51.1904C53.5267 50.9307 53.1348 50.8008 52.6289 50.8008C52.237 50.8008 51.8633 50.8577 51.5078 50.9717C51.1523 51.0856 50.8151 51.2201 50.4961 51.375L50.1475 50.5137C50.4847 50.3405 50.8721 50.1924 51.3096 50.0693C51.7471 49.9463 52.2074 49.8848 52.6904 49.8848ZM54.208 53.8086L53.0664 53.8564C52.1322 53.8929 51.4736 54.0456 51.0908 54.3145C50.708 54.5833 50.5166 54.9639 50.5166 55.4561C50.5166 55.8844 50.6465 56.2012 50.9062 56.4062C51.166 56.6113 51.5101 56.7139 51.9385 56.7139C52.6038 56.7139 53.1484 56.5293 53.5723 56.1602C53.9961 55.791 54.208 55.2373 54.208 54.499V53.8086ZM61.0713 49.8711C61.2217 49.8711 61.3789 49.8802 61.543 49.8984C61.707 49.9121 61.8529 49.9326 61.9805 49.96L61.8369 51.0127C61.7139 50.9808 61.5771 50.9557 61.4268 50.9375C61.2764 50.9193 61.1351 50.9102 61.0029 50.9102C60.7021 50.9102 60.4173 50.9717 60.1484 51.0947C59.8841 51.2132 59.6517 51.3864 59.4512 51.6143C59.2507 51.8376 59.0934 52.1087 58.9795 52.4277C58.8656 52.7422 58.8086 53.0931 58.8086 53.4805V57.5H57.667V50.0078H58.6104L58.7334 51.3887H58.7812C58.9362 51.1107 59.123 50.8577 59.3418 50.6299C59.5605 50.3975 59.8135 50.2129 60.1006 50.0762C60.3923 49.9395 60.7158 49.8711 61.0713 49.8711ZM62.2129 50.0078H63.4297L65.084 54.3555C65.1797 54.6107 65.2686 54.8568 65.3506 55.0938C65.4326 55.3262 65.5055 55.5495 65.5693 55.7637C65.6331 55.9779 65.6833 56.1852 65.7197 56.3857H65.7676C65.8314 56.1579 65.9225 55.8594 66.041 55.4902C66.1595 55.1165 66.2871 54.736 66.4238 54.3486L67.9893 50.0078H69.2129L65.9521 58.6006C65.779 59.0609 65.5762 59.4619 65.3438 59.8037C65.1159 60.1455 64.8379 60.4076 64.5098 60.5898C64.1816 60.7767 63.7852 60.8701 63.3203 60.8701C63.1061 60.8701 62.917 60.8564 62.7529 60.8291C62.5889 60.8063 62.4476 60.779 62.3291 60.7471V59.8379C62.4294 59.8607 62.5501 59.8812 62.6914 59.8994C62.8372 59.9176 62.9876 59.9268 63.1426 59.9268C63.4251 59.9268 63.6689 59.8721 63.874 59.7627C64.0837 59.6579 64.2637 59.5029 64.4141 59.2979C64.5645 59.0928 64.6943 58.849 64.8037 58.5664L65.2139 57.5137L62.2129 50.0078Z" fill="#CDCDCD"/>
</svg>
