<svg width="76" height="76" viewBox="0 0 76 76" fill="none" xmlns="http://www.w3.org/2000/svg">
<mask id="mask0_69718_5466" style="mask-type:alpha" maskUnits="userSpaceOnUse" x="26" y="15" width="24" height="25">
<rect x="26" y="15.5" width="24" height="24" fill="#D9D9D9"/>
</mask>
<g mask="url(#mask0_69718_5466)">
<path d="M38 34.7C36.88 34.7 35.81 34.875 34.79 35.225C33.77 35.575 32.84 36.1 32 36.8V37.1H44V36.8C43.16 36.1 42.23 35.575 41.21 35.225C40.19 34.875 39.12 34.7 38 34.7ZM29.6 35.72C30.68 34.66 31.935 33.825 33.365 33.215C34.795 32.605 36.34 32.3 38 32.3C39.66 32.3 41.205 32.605 42.635 33.215C44.065 33.825 45.32 34.66 46.4 35.72V20.3H29.6V35.72ZM38 29.9C36.84 29.9 35.85 29.49 35.03 28.67C34.21 27.85 33.8 26.86 33.8 25.7C33.8 24.54 34.21 23.55 35.03 22.73C35.85 21.91 36.84 21.5 38 21.5C39.16 21.5 40.15 21.91 40.97 22.73C41.79 23.55 42.2 24.54 42.2 25.7C42.2 26.86 41.79 27.85 40.97 28.67C40.15 29.49 39.16 29.9 38 29.9ZM38 27.5C38.5 27.5 38.925 27.325 39.275 26.975C39.625 26.625 39.8 26.2 39.8 25.7C39.8 25.2 39.625 24.775 39.275 24.425C38.925 24.075 38.5 23.9 38 23.9C37.5 23.9 37.075 24.075 36.725 24.425C36.375 24.775 36.2 25.2 36.2 25.7C36.2 26.2 36.375 26.625 36.725 26.975C37.075 27.325 37.5 27.5 38 27.5ZM29.6 39.5C28.94 39.5 28.375 39.265 27.905 38.795C27.435 38.325 27.2 37.76 27.2 37.1V20.3C27.2 19.64 27.435 19.075 27.905 18.605C28.375 18.135 28.94 17.9 29.6 17.9H30.8V16.7C30.8 16.0373 31.3373 15.5 32 15.5C32.6627 15.5 33.2 16.0373 33.2 16.7V17.9H42.8V16.7C42.8 16.0373 43.3373 15.5 44 15.5C44.6627 15.5 45.2 16.0373 45.2 16.7V17.9H46.4C47.06 17.9 47.625 18.135 48.095 18.605C48.565 19.075 48.8 19.64 48.8 20.3V37.1C48.8 37.76 48.565 38.325 48.095 38.795C47.625 39.265 47.06 39.5 46.4 39.5H29.6Z" fill="#CDCDCD"/>
</g>
<path d="M15.1396 48.3877C14.5882 48.3877 14.0915 48.4834 13.6494 48.6748C13.2119 48.8617 12.8382 49.1351 12.5283 49.4951C12.223 49.8506 11.9883 50.2812 11.8242 50.7871C11.6602 51.293 11.5781 51.8626 11.5781 52.4961C11.5781 53.3346 11.708 54.0638 11.9678 54.6836C12.2321 55.2988 12.624 55.7751 13.1436 56.1123C13.6676 56.4495 14.3216 56.6182 15.1055 56.6182C15.5521 56.6182 15.9714 56.5817 16.3633 56.5088C16.7598 56.4313 17.1449 56.3356 17.5186 56.2217V57.2334C17.154 57.3701 16.7712 57.4704 16.3701 57.5342C15.9691 57.6025 15.4928 57.6367 14.9414 57.6367C13.9251 57.6367 13.0752 57.4271 12.3916 57.0078C11.7126 56.584 11.2021 55.987 10.8604 55.2168C10.5231 54.4466 10.3545 53.5374 10.3545 52.4893C10.3545 51.7327 10.4593 51.0423 10.6689 50.418C10.8831 49.7891 11.193 49.2467 11.5986 48.791C12.0088 48.3353 12.5101 47.9844 13.1025 47.7383C13.6995 47.4876 14.3831 47.3623 15.1533 47.3623C15.6592 47.3623 16.1468 47.4124 16.6162 47.5127C17.0856 47.613 17.5094 47.7565 17.8877 47.9434L17.4229 48.9277C17.1038 48.7819 16.7529 48.6566 16.3701 48.5518C15.9919 48.4424 15.5817 48.3877 15.1396 48.3877ZM25.9746 53.7402C25.9746 54.3555 25.8949 54.9046 25.7354 55.3877C25.5758 55.8708 25.3457 56.2786 25.0449 56.6113C24.7441 56.944 24.3796 57.1992 23.9512 57.377C23.5273 57.5501 23.0465 57.6367 22.5088 57.6367C22.0075 57.6367 21.5472 57.5501 21.1279 57.377C20.7132 57.1992 20.3532 56.944 20.0479 56.6113C19.7471 56.2786 19.5124 55.8708 19.3438 55.3877C19.1797 54.9046 19.0977 54.3555 19.0977 53.7402C19.0977 52.9199 19.2367 52.2227 19.5146 51.6484C19.7926 51.0697 20.1891 50.6299 20.7041 50.3291C21.2236 50.0238 21.8411 49.8711 22.5566 49.8711C23.2402 49.8711 23.8372 50.0238 24.3477 50.3291C24.8626 50.6344 25.2614 51.0765 25.5439 51.6553C25.8311 52.2295 25.9746 52.9245 25.9746 53.7402ZM20.2734 53.7402C20.2734 54.3418 20.3532 54.8636 20.5127 55.3057C20.6722 55.7477 20.9183 56.0895 21.251 56.3311C21.5837 56.5726 22.012 56.6934 22.5361 56.6934C23.0557 56.6934 23.4818 56.5726 23.8145 56.3311C24.1517 56.0895 24.4001 55.7477 24.5596 55.3057C24.7191 54.8636 24.7988 54.3418 24.7988 53.7402C24.7988 53.1432 24.7191 52.6283 24.5596 52.1953C24.4001 51.7578 24.154 51.4206 23.8213 51.1836C23.4886 50.9466 23.0579 50.8281 22.5293 50.8281C21.75 50.8281 21.1781 51.0856 20.8135 51.6006C20.4535 52.1156 20.2734 52.8288 20.2734 53.7402ZM31.4844 49.8711C32.373 49.8711 33.0452 50.0898 33.501 50.5273C33.9567 50.9603 34.1846 51.6576 34.1846 52.6191V57.5H33.0635V52.6943C33.0635 52.07 32.9199 51.6029 32.6328 51.293C32.3503 50.9831 31.915 50.8281 31.3271 50.8281C30.4977 50.8281 29.9144 51.0628 29.5771 51.5322C29.2399 52.0016 29.0713 52.6829 29.0713 53.5762V57.5H27.9365V50.0078H28.8525L29.0234 51.0879H29.085C29.2445 50.8236 29.4473 50.6025 29.6934 50.4248C29.9395 50.2425 30.2152 50.1058 30.5205 50.0146C30.8258 49.9189 31.1471 49.8711 31.4844 49.8711ZM38.9424 56.707C39.1292 56.707 39.3206 56.6911 39.5166 56.6592C39.7126 56.6273 39.8721 56.5885 39.9951 56.543V57.4248C39.863 57.484 39.6784 57.5342 39.4414 57.5752C39.209 57.6162 38.9811 57.6367 38.7578 57.6367C38.3613 57.6367 38.0013 57.5684 37.6777 57.4316C37.3542 57.2904 37.0944 57.0534 36.8984 56.7207C36.707 56.388 36.6113 55.9277 36.6113 55.3398V50.8965H35.5449V50.3428L36.6182 49.8984L37.0693 48.2715H37.7529V50.0078H39.9473V50.8965H37.7529V55.3057C37.7529 55.7751 37.86 56.126 38.0742 56.3584C38.293 56.5908 38.5824 56.707 38.9424 56.707ZM44.3154 49.8848C45.2087 49.8848 45.8717 50.0853 46.3047 50.4863C46.7376 50.8874 46.9541 51.5277 46.9541 52.4072V57.5H46.127L45.9082 56.3926H45.8535C45.6439 56.666 45.4251 56.8962 45.1973 57.083C44.9694 57.2653 44.7051 57.4043 44.4043 57.5C44.1081 57.5911 43.7435 57.6367 43.3105 57.6367C42.8548 57.6367 42.4492 57.557 42.0938 57.3975C41.7428 57.238 41.4648 56.9964 41.2598 56.6729C41.0592 56.3493 40.959 55.9391 40.959 55.4424C40.959 54.695 41.2552 54.1208 41.8477 53.7197C42.4401 53.3187 43.3424 53.0999 44.5547 53.0635L45.8467 53.0088V52.5508C45.8467 51.9036 45.7077 51.4502 45.4297 51.1904C45.1517 50.9307 44.7598 50.8008 44.2539 50.8008C43.862 50.8008 43.4883 50.8577 43.1328 50.9717C42.7773 51.0856 42.4401 51.2201 42.1211 51.375L41.7725 50.5137C42.1097 50.3405 42.4971 50.1924 42.9346 50.0693C43.3721 49.9463 43.8324 49.8848 44.3154 49.8848ZM45.833 53.8086L44.6914 53.8564C43.7572 53.8929 43.0986 54.0456 42.7158 54.3145C42.333 54.5833 42.1416 54.9639 42.1416 55.4561C42.1416 55.8844 42.2715 56.2012 42.5312 56.4062C42.791 56.6113 43.1351 56.7139 43.5635 56.7139C44.2288 56.7139 44.7734 56.5293 45.1973 56.1602C45.6211 55.791 45.833 55.2373 45.833 54.499V53.8086ZM52.293 57.6367C51.6185 57.6367 51.0238 57.4977 50.5088 57.2197C49.9938 56.9417 49.5928 56.5179 49.3057 55.9482C49.0186 55.3786 48.875 54.6608 48.875 53.7949C48.875 52.888 49.0254 52.1475 49.3262 51.5732C49.6315 50.9945 50.0508 50.5661 50.584 50.2881C51.1172 50.0101 51.7233 49.8711 52.4023 49.8711C52.776 49.8711 53.1361 49.9098 53.4824 49.9873C53.8333 50.0602 54.1204 50.1536 54.3438 50.2676L54.002 51.2178C53.7741 51.1266 53.5098 51.0446 53.209 50.9717C52.9128 50.8988 52.6348 50.8623 52.375 50.8623C51.8555 50.8623 51.4225 50.974 51.0762 51.1973C50.7344 51.4206 50.4769 51.7487 50.3037 52.1816C50.1351 52.6146 50.0508 53.1478 50.0508 53.7812C50.0508 54.3874 50.1328 54.9046 50.2969 55.333C50.4655 55.7614 50.7139 56.0895 51.042 56.3174C51.3747 56.5407 51.7894 56.6523 52.2861 56.6523C52.6826 56.6523 53.0404 56.6113 53.3594 56.5293C53.6784 56.4427 53.9678 56.3424 54.2275 56.2285V57.2402C53.9769 57.3678 53.6966 57.4658 53.3867 57.5342C53.0814 57.6025 52.7168 57.6367 52.293 57.6367ZM58.4248 56.707C58.6117 56.707 58.8031 56.6911 58.999 56.6592C59.195 56.6273 59.3545 56.5885 59.4775 56.543V57.4248C59.3454 57.484 59.1608 57.5342 58.9238 57.5752C58.6914 57.6162 58.4635 57.6367 58.2402 57.6367C57.8438 57.6367 57.4837 57.5684 57.1602 57.4316C56.8366 57.2904 56.5768 57.0534 56.3809 56.7207C56.1895 56.388 56.0938 55.9277 56.0938 55.3398V50.8965H55.0273V50.3428L56.1006 49.8984L56.5518 48.2715H57.2354V50.0078H59.4297V50.8965H57.2354V55.3057C57.2354 55.7751 57.3424 56.126 57.5566 56.3584C57.7754 56.5908 58.0648 56.707 58.4248 56.707ZM65.8418 55.4492C65.8418 55.9277 65.721 56.3311 65.4795 56.6592C65.2425 56.9827 64.9007 57.2266 64.4541 57.3906C64.012 57.5547 63.4834 57.6367 62.8682 57.6367C62.3441 57.6367 61.8906 57.5957 61.5078 57.5137C61.125 57.4316 60.79 57.3154 60.5029 57.165V56.1191C60.8083 56.2695 61.1729 56.4062 61.5967 56.5293C62.0205 56.6523 62.4535 56.7139 62.8955 56.7139C63.5426 56.7139 64.012 56.609 64.3037 56.3994C64.5954 56.1898 64.7412 55.9049 64.7412 55.5449C64.7412 55.3398 64.682 55.1598 64.5635 55.0049C64.4495 54.8454 64.2559 54.6927 63.9824 54.5469C63.709 54.3965 63.3307 54.2324 62.8477 54.0547C62.3691 53.8724 61.9544 53.6924 61.6035 53.5146C61.2572 53.3324 60.9883 53.1113 60.7969 52.8516C60.61 52.5918 60.5166 52.2546 60.5166 51.8398C60.5166 51.2064 60.7718 50.721 61.2822 50.3838C61.7972 50.042 62.4717 49.8711 63.3057 49.8711C63.7568 49.8711 64.1784 49.9167 64.5703 50.0078C64.9668 50.0944 65.3359 50.2129 65.6777 50.3633L65.2949 51.2725C64.985 51.1403 64.6546 51.0286 64.3037 50.9375C63.9528 50.8464 63.5951 50.8008 63.2305 50.8008C62.7064 50.8008 62.3031 50.8874 62.0205 51.0605C61.7425 51.2337 61.6035 51.4707 61.6035 51.7715C61.6035 52.0039 61.6673 52.1953 61.7949 52.3457C61.9271 52.4961 62.1367 52.6374 62.4238 52.7695C62.7109 52.9017 63.0892 53.0566 63.5586 53.2344C64.028 53.4076 64.4336 53.5876 64.7754 53.7744C65.1172 53.9567 65.3792 54.18 65.5615 54.4443C65.7484 54.7041 65.8418 55.0391 65.8418 55.4492Z" fill="#CDCDCD"/>
</svg>
