<svg width="77" height="76" viewBox="0 0 77 76" fill="none" xmlns="http://www.w3.org/2000/svg">
<mask id="mask0_69718_5441" style="mask-type:alpha" maskUnits="userSpaceOnUse" x="26" y="15" width="25" height="25">
<rect x="26.6667" y="15.5" width="24" height="24" fill="#D9D9D9"/>
</mask>
<g mask="url(#mask0_69718_5441)">
<path d="M29.0078 39.5151C28.3639 39.5151 27.8127 39.2858 27.3541 38.8273C26.8956 38.3687 26.6663 37.8175 26.6663 37.1736V20.7828C26.6663 20.1389 26.8956 19.5877 27.3541 19.1291C27.8127 18.6706 28.3639 18.4413 29.0078 18.4413H39.4569L37.1154 20.7828H29.0078V37.1736H45.3986V29.0367L47.7401 26.6952V37.1736C47.7401 37.8175 47.5108 38.3687 47.0523 38.8273C46.5937 39.2858 46.0425 39.5151 45.3986 39.5151H29.0078ZM42.0912 19.1145L43.7595 20.7536L36.0324 28.4806V30.149H37.6715L45.4279 22.3926L47.0962 24.0317L39.3399 31.788C39.1252 32.0027 38.8764 32.1734 38.5935 32.3003C38.3106 32.4271 38.013 32.4905 37.7008 32.4905H34.8617C34.53 32.4905 34.2519 32.3783 34.0275 32.1539C33.8031 31.9295 33.6909 31.6515 33.6909 31.3197V28.4806C33.6909 28.1684 33.7495 27.8709 33.8665 27.5879C33.9836 27.305 34.1495 27.0562 34.3641 26.8416L42.0912 19.1145ZM47.0962 24.0317L42.0912 19.1145L45.0181 16.1876C45.4864 15.7193 46.0474 15.4851 46.7011 15.4851C47.3547 15.4851 47.906 15.7193 48.3548 16.1876L49.9938 17.8559C50.4426 18.3047 50.667 18.8511 50.667 19.495C50.667 20.1389 50.4426 20.6853 49.9938 21.1341L47.0962 24.0317Z" fill="#CDCDCD"/>
</g>
<path d="M13.3024 57.5L12.0719 54.3281H8.06609L6.84245 57.5H5.66667L9.57683 47.4648H10.6227L14.5055 57.5H13.3024ZM11.7233 53.2959L10.5544 50.1445C10.527 50.0625 10.4815 49.9281 10.4176 49.7412C10.3584 49.5544 10.2969 49.3607 10.2331 49.1602C10.1693 48.9596 10.1169 48.7979 10.0759 48.6748C10.0303 48.8617 9.98015 49.0485 9.92546 49.2354C9.87533 49.4176 9.8252 49.5885 9.77507 49.748C9.72494 49.903 9.68165 50.0352 9.64519 50.1445L8.45573 53.2959H11.7233ZM18.3884 57.6367C17.4404 57.6367 16.6885 57.3132 16.1325 56.666C15.5811 56.0189 15.3053 55.0573 15.3053 53.7812C15.3053 52.4915 15.5879 51.5186 16.153 50.8623C16.7181 50.2015 17.4701 49.8711 18.4089 49.8711C18.8053 49.8711 19.1517 49.9235 19.4479 50.0283C19.7441 50.1331 19.9994 50.2744 20.2135 50.4521C20.4277 50.6253 20.6078 50.8236 20.7536 51.0469H20.8356C20.8174 50.9056 20.7992 50.7119 20.7809 50.4658C20.7627 50.2197 20.7536 50.0192 20.7536 49.8643V46.8633H21.8884V57.5H20.9723L20.8014 56.4336H20.7536C20.6123 56.6569 20.4323 56.8597 20.2135 57.042C19.9994 57.2243 19.7419 57.3701 19.4411 57.4795C19.1449 57.5843 18.794 57.6367 18.3884 57.6367ZM18.5661 56.6934C19.3682 56.6934 19.9356 56.4655 20.2682 56.0098C20.6009 55.554 20.7673 54.8773 20.7673 53.9795V53.7744C20.7673 52.8219 20.6078 52.0905 20.2887 51.5801C19.9743 51.0697 19.4001 50.8145 18.5661 50.8145C17.8688 50.8145 17.347 51.0833 17.0007 51.6211C16.6543 52.1543 16.4811 52.8835 16.4811 53.8086C16.4811 54.7292 16.652 55.4401 16.9938 55.9414C17.3402 56.4427 17.8643 56.6934 18.5661 56.6934ZM26.9606 57.6367C26.0127 57.6367 25.2607 57.3132 24.7048 56.666C24.1533 56.0189 23.8776 55.0573 23.8776 53.7812C23.8776 52.4915 24.1602 51.5186 24.7253 50.8623C25.2904 50.2015 26.0423 49.8711 26.9811 49.8711C27.3776 49.8711 27.724 49.9235 28.0202 50.0283C28.3164 50.1331 28.5716 50.2744 28.7858 50.4521C29 50.6253 29.18 50.8236 29.3259 51.0469H29.4079C29.3897 50.9056 29.3714 50.7119 29.3532 50.4658C29.335 50.2197 29.3259 50.0192 29.3259 49.8643V46.8633H30.4606V57.5H29.5446L29.3737 56.4336H29.3259C29.1846 56.6569 29.0046 56.8597 28.7858 57.042C28.5716 57.2243 28.3141 57.3701 28.0134 57.4795C27.7171 57.5843 27.3662 57.6367 26.9606 57.6367ZM27.1384 56.6934C27.9404 56.6934 28.5078 56.4655 28.8405 56.0098C29.1732 55.554 29.3395 54.8773 29.3395 53.9795V53.7744C29.3395 52.8219 29.18 52.0905 28.861 51.5801C28.5466 51.0697 27.9723 50.8145 27.1384 50.8145C26.4411 50.8145 25.9193 51.0833 25.5729 51.6211C25.2266 52.1543 25.0534 52.8835 25.0534 53.8086C25.0534 54.7292 25.2243 55.4401 25.5661 55.9414C25.9124 56.4427 26.4365 56.6934 27.1384 56.6934ZM39.7438 57.5H38.5749V48.5312H35.4303V47.5059H42.8747V48.5312H39.7438V57.5ZM47.0173 49.8848C47.9105 49.8848 48.5736 50.0853 49.0065 50.4863C49.4395 50.8874 49.6559 51.5277 49.6559 52.4072V57.5H48.8288L48.61 56.3926H48.5553C48.3457 56.666 48.127 56.8962 47.8991 57.083C47.6712 57.2653 47.4069 57.4043 47.1061 57.5C46.8099 57.5911 46.4453 57.6367 46.0124 57.6367C45.5566 57.6367 45.151 57.557 44.7956 57.3975C44.4447 57.238 44.1667 56.9964 43.9616 56.6729C43.7611 56.3493 43.6608 55.9391 43.6608 55.4424C43.6608 54.695 43.957 54.1208 44.5495 53.7197C45.1419 53.3187 46.0443 53.0999 47.2565 53.0635L48.5485 53.0088V52.5508C48.5485 51.9036 48.4095 51.4502 48.1315 51.1904C47.8535 50.9307 47.4616 50.8008 46.9557 50.8008C46.5638 50.8008 46.1901 50.8577 45.8346 50.9717C45.4792 51.0856 45.1419 51.2201 44.8229 51.375L44.4743 50.5137C44.8115 50.3405 45.1989 50.1924 45.6364 50.0693C46.0739 49.9463 46.5342 49.8848 47.0173 49.8848ZM48.5348 53.8086L47.3932 53.8564C46.459 53.8929 45.8005 54.0456 45.4176 54.3145C45.0348 54.5833 44.8434 54.9639 44.8434 55.4561C44.8434 55.8844 44.9733 56.2012 45.2331 56.4062C45.4928 56.6113 45.8369 56.7139 46.2653 56.7139C46.9307 56.7139 47.4753 56.5293 47.8991 56.1602C48.3229 55.791 48.5348 55.2373 48.5348 54.499V53.8086ZM56.8405 55.4492C56.8405 55.9277 56.7197 56.3311 56.4782 56.6592C56.2412 56.9827 55.8994 57.2266 55.4528 57.3906C55.0107 57.5547 54.4821 57.6367 53.8669 57.6367C53.3428 57.6367 52.8893 57.5957 52.5065 57.5137C52.1237 57.4316 51.7887 57.3154 51.5016 57.165V56.1191C51.807 56.2695 52.1716 56.4062 52.5954 56.5293C53.0192 56.6523 53.4522 56.7139 53.8942 56.7139C54.5413 56.7139 55.0107 56.609 55.3024 56.3994C55.5941 56.1898 55.7399 55.9049 55.7399 55.5449C55.7399 55.3398 55.6807 55.1598 55.5622 55.0049C55.4482 54.8454 55.2546 54.6927 54.9811 54.5469C54.7077 54.3965 54.3294 54.2324 53.8464 54.0547C53.3678 53.8724 52.9531 53.6924 52.6022 53.5146C52.2559 53.3324 51.987 53.1113 51.7956 52.8516C51.6087 52.5918 51.5153 52.2546 51.5153 51.8398C51.5153 51.2064 51.7705 50.721 52.2809 50.3838C52.7959 50.042 53.4704 49.8711 54.3044 49.8711C54.7555 49.8711 55.1771 49.9167 55.569 50.0078C55.9655 50.0944 56.3346 50.2129 56.6764 50.3633L56.2936 51.2725C55.9837 51.1403 55.6533 51.0286 55.3024 50.9375C54.9515 50.8464 54.5938 50.8008 54.2292 50.8008C53.7051 50.8008 53.3018 50.8874 53.0192 51.0605C52.7412 51.2337 52.6022 51.4707 52.6022 51.7715C52.6022 52.0039 52.666 52.1953 52.7936 52.3457C52.9258 52.4961 53.1354 52.6374 53.4225 52.7695C53.7096 52.9017 54.0879 53.0566 54.5573 53.2344C55.0267 53.4076 55.4323 53.5876 55.7741 53.7744C56.1159 53.9567 56.3779 54.18 56.5602 54.4443C56.7471 54.7041 56.8405 55.0391 56.8405 55.4492ZM59.7936 46.8633V52.3867C59.7936 52.569 59.7868 52.7923 59.7731 53.0566C59.7594 53.3164 59.7481 53.5465 59.7389 53.7471H59.7868C59.8825 53.6286 60.0215 53.4531 60.2038 53.2207C60.3906 52.9883 60.5479 52.8014 60.6755 52.6602L63.1637 50.0078H64.4967L61.4821 53.207L64.7155 57.5H63.3483L60.7028 53.9521L59.7936 54.7861V57.5H58.6657V46.8633H59.7936ZM70.8678 55.4492C70.8678 55.9277 70.7471 56.3311 70.5055 56.6592C70.2686 56.9827 69.9268 57.2266 69.4801 57.3906C69.0381 57.5547 68.5094 57.6367 67.8942 57.6367C67.3701 57.6367 66.9167 57.5957 66.5339 57.5137C66.151 57.4316 65.8161 57.3154 65.529 57.165V56.1191C65.8343 56.2695 66.1989 56.4062 66.6227 56.5293C67.0466 56.6523 67.4795 56.7139 67.9216 56.7139C68.5687 56.7139 69.0381 56.609 69.3298 56.3994C69.6214 56.1898 69.7673 55.9049 69.7673 55.5449C69.7673 55.3398 69.708 55.1598 69.5895 55.0049C69.4756 54.8454 69.2819 54.6927 69.0085 54.5469C68.735 54.3965 68.3568 54.2324 67.8737 54.0547C67.3952 53.8724 66.9805 53.6924 66.6296 53.5146C66.2832 53.3324 66.0143 53.1113 65.8229 52.8516C65.6361 52.5918 65.5426 52.2546 65.5426 51.8398C65.5426 51.2064 65.7979 50.721 66.3083 50.3838C66.8232 50.042 67.4977 49.8711 68.3317 49.8711C68.7829 49.8711 69.2044 49.9167 69.5964 50.0078C69.9928 50.0944 70.362 50.2129 70.7038 50.3633L70.321 51.2725C70.0111 51.1403 69.6807 51.0286 69.3298 50.9375C68.9788 50.8464 68.6211 50.8008 68.2565 50.8008C67.7324 50.8008 67.3291 50.8874 67.0466 51.0605C66.7686 51.2337 66.6296 51.4707 66.6296 51.7715C66.6296 52.0039 66.6934 52.1953 66.821 52.3457C66.9531 52.4961 67.1628 52.6374 67.4499 52.7695C67.737 52.9017 68.1152 53.0566 68.5846 53.2344C69.054 53.4076 69.4596 53.5876 69.8014 53.7744C70.1432 53.9567 70.4053 54.18 70.5876 54.4443C70.7744 54.7041 70.8678 55.0391 70.8678 55.4492Z" fill="#CDCDCD"/>
</svg>
