<svg width="77" height="76" viewBox="0 0 77 76" fill="none" xmlns="http://www.w3.org/2000/svg">
<path d="M44.7949 19.1923L44.7949 35.8077C44.7944 36.2972 44.5997 36.7665 44.2536 37.1126C43.9075 37.4587 43.4382 37.6534 42.9487 37.6539L39.2564 37.6539C38.7669 37.6534 38.2976 37.4587 37.9515 37.1126C37.6054 36.7665 37.4108 36.2972 37.4103 35.8077L37.4103 19.1923C37.4108 18.7028 37.6054 18.2335 37.9515 17.8874C38.2976 17.5413 38.7669 17.3467 39.2564 17.3462L42.9487 17.3462C43.4382 17.3467 43.9075 17.5413 44.2536 17.8874C44.5997 18.2335 44.7944 18.7028 44.7949 19.1923ZM39.2564 35.8077L42.9487 35.8077L42.9487 19.1923L39.2564 19.1923L39.2564 35.8077ZM39.2564 19.1923L39.2564 35.8077C39.2559 36.2972 39.0613 36.7665 38.7152 37.1126C38.369 37.4587 37.8997 37.6533 37.4103 37.6538L33.718 37.6538C33.2285 37.6533 32.7592 37.4587 32.4131 37.1126C32.067 36.7665 31.8723 36.2972 31.8718 35.8077L31.8718 19.1923C31.8723 18.7028 32.067 18.2335 32.4131 17.8874C32.7592 17.5413 33.2285 17.3466 33.718 17.3461L37.4103 17.3461C37.8997 17.3466 38.369 17.5413 38.7152 17.8874C39.0613 18.2335 39.2559 18.7028 39.2564 19.1923ZM33.718 35.8077L37.4103 35.8077L37.4103 19.1923L33.718 19.1923L33.718 35.8077ZM33.718 19.1923L33.718 35.8077C33.7175 36.2972 33.5228 36.7665 33.1767 37.1126C32.8306 37.4587 32.3613 37.6533 31.8718 37.6538L28.1795 37.6538C27.69 37.6533 27.2207 37.4587 26.8746 37.1126C26.5285 36.7665 26.3338 36.2972 26.3333 35.8077L26.3333 19.1923C26.3338 18.7028 26.5285 18.2335 26.8746 17.8874C27.2207 17.5413 27.69 17.3466 28.1795 17.3461L31.8718 17.3461C32.3613 17.3466 32.8306 17.5413 33.1767 17.8874C33.5228 18.2335 33.7175 18.7028 33.718 19.1923ZM28.1795 35.8077L31.8718 35.8077L31.8718 19.1923L28.1795 19.1923L28.1795 35.8077Z" fill="#CDCDCD"/>
<path d="M50.3333 19.1925L50.3333 35.8079C50.3329 36.2974 50.1382 36.7667 49.7921 37.1128C49.446 37.4589 48.9767 37.6536 48.4872 37.6541L44.7949 37.6541C44.3054 37.6536 43.8361 37.4589 43.49 37.1128C43.1439 36.7667 42.9492 36.2972 42.9487 35.8077L42.9487 19.1923C42.9492 18.7028 43.1439 18.2337 43.49 17.8876C43.8361 17.5415 44.3054 17.3469 44.7949 17.3464L48.4872 17.3464C48.9767 17.3469 49.446 17.5415 49.7921 17.8876C50.1382 18.2337 50.3329 18.703 50.3333 19.1925ZM44.7949 35.8077L48.4872 35.8079L48.4872 19.1925L44.7949 19.1923L44.7949 35.8077Z" fill="#CDCDCD"/>
<path d="M19.7005 47.5059H22.5306C23.7793 47.5059 24.7181 47.6927 25.347 48.0664C25.9759 48.4401 26.2904 49.0758 26.2904 49.9736C26.2904 50.361 26.2152 50.7096 26.0648 51.0195C25.919 51.3249 25.7048 51.5778 25.4222 51.7783C25.1397 51.9788 24.791 52.1178 24.3763 52.1953V52.2637C24.8138 52.332 25.2012 52.4574 25.5384 52.6396C25.8757 52.8219 26.14 53.0771 26.3314 53.4053C26.5228 53.7334 26.6185 54.1504 26.6185 54.6562C26.6185 55.2715 26.4749 55.791 26.1878 56.2148C25.9053 56.6387 25.5042 56.96 24.9847 57.1787C24.4652 57.3929 23.8499 57.5 23.139 57.5H19.7005V47.5059ZM20.8626 51.792H22.7767C23.6471 51.792 24.2487 51.6484 24.5814 51.3613C24.9186 51.0742 25.0872 50.6549 25.0872 50.1035C25.0872 49.5339 24.8867 49.1237 24.4857 48.873C24.0892 48.6224 23.4557 48.4971 22.5853 48.4971H20.8626V51.792ZM20.8626 52.7695V56.5088H22.9408C23.8294 56.5088 24.4583 56.3356 24.8275 55.9893C25.1966 55.6383 25.3812 55.1667 25.3812 54.5742C25.3812 54.196 25.2969 53.8724 25.1283 53.6035C24.9642 53.3346 24.6953 53.1296 24.3216 52.9883C23.9525 52.8424 23.458 52.7695 22.8382 52.7695H20.8626ZM35.0404 53.7402C35.0404 54.3555 34.9606 54.9046 34.8011 55.3877C34.6416 55.8708 34.4115 56.2786 34.1107 56.6113C33.8099 56.944 33.4453 57.1992 33.0169 57.377C32.5931 57.5501 32.1123 57.6367 31.5746 57.6367C31.0733 57.6367 30.613 57.5501 30.1937 57.377C29.779 57.1992 29.419 56.944 29.1136 56.6113C28.8128 56.2786 28.5781 55.8708 28.4095 55.3877C28.2455 54.9046 28.1634 54.3555 28.1634 53.7402C28.1634 52.9199 28.3024 52.2227 28.5804 51.6484C28.8584 51.0697 29.2549 50.6299 29.7699 50.3291C30.2894 50.0238 30.9069 49.8711 31.6224 49.8711C32.306 49.8711 32.903 50.0238 33.4134 50.3291C33.9284 50.6344 34.3272 51.0765 34.6097 51.6553C34.8968 52.2295 35.0404 52.9245 35.0404 53.7402ZM29.3392 53.7402C29.3392 54.3418 29.419 54.8636 29.5785 55.3057C29.738 55.7477 29.9841 56.0895 30.3167 56.3311C30.6494 56.5726 31.0778 56.6934 31.6019 56.6934C32.1214 56.6934 32.5475 56.5726 32.8802 56.3311C33.2175 56.0895 33.4658 55.7477 33.6253 55.3057C33.7848 54.8636 33.8646 54.3418 33.8646 53.7402C33.8646 53.1432 33.7848 52.6283 33.6253 52.1953C33.4658 51.7578 33.2197 51.4206 32.8871 51.1836C32.5544 50.9466 32.1237 50.8281 31.5951 50.8281C30.8158 50.8281 30.2438 51.0856 29.8792 51.6006C29.5192 52.1156 29.3392 52.8288 29.3392 53.7402ZM39.805 49.8848C40.6983 49.8848 41.3613 50.0853 41.7943 50.4863C42.2272 50.8874 42.4437 51.5277 42.4437 52.4072V57.5H41.6165L41.3978 56.3926H41.3431C41.1335 56.666 40.9147 56.8962 40.6869 57.083C40.459 57.2653 40.1947 57.4043 39.8939 57.5C39.5977 57.5911 39.2331 57.6367 38.8001 57.6367C38.3444 57.6367 37.9388 57.557 37.5833 57.3975C37.2324 57.238 36.9544 56.9964 36.7494 56.6729C36.5488 56.3493 36.4486 55.9391 36.4486 55.4424C36.4486 54.695 36.7448 54.1208 37.3372 53.7197C37.9297 53.3187 38.832 53.0999 40.0443 53.0635L41.3363 53.0088V52.5508C41.3363 51.9036 41.1973 51.4502 40.9193 51.1904C40.6413 50.9307 40.2494 50.8008 39.7435 50.8008C39.3516 50.8008 38.9779 50.8577 38.6224 50.9717C38.2669 51.0856 37.9297 51.2201 37.6107 51.375L37.2621 50.5137C37.5993 50.3405 37.9867 50.1924 38.4242 50.0693C38.8617 49.9463 39.322 49.8848 39.805 49.8848ZM41.3226 53.8086L40.181 53.8564C39.2468 53.8929 38.5882 54.0456 38.2054 54.3145C37.8226 54.5833 37.6312 54.9639 37.6312 55.4561C37.6312 55.8844 37.7611 56.2012 38.0208 56.4062C38.2806 56.6113 38.6247 56.7139 39.0531 56.7139C39.7184 56.7139 40.263 56.5293 40.6869 56.1602C41.1107 55.791 41.3226 55.2373 41.3226 54.499V53.8086ZM48.1859 49.8711C48.3363 49.8711 48.4935 49.8802 48.6576 49.8984C48.8216 49.9121 48.9675 49.9326 49.0951 49.96L48.9515 51.0127C48.8285 50.9808 48.6917 50.9557 48.5414 50.9375C48.391 50.9193 48.2497 50.9102 48.1175 50.9102C47.8167 50.9102 47.5319 50.9717 47.263 51.0947C46.9987 51.2132 46.7663 51.3864 46.5658 51.6143C46.3652 51.8376 46.208 52.1087 46.0941 52.4277C45.9802 52.7422 45.9232 53.0931 45.9232 53.4805V57.5H44.7816V50.0078H45.7249L45.848 51.3887H45.8958C46.0508 51.1107 46.2376 50.8577 46.4564 50.6299C46.6751 50.3975 46.9281 50.2129 47.2152 50.0762C47.5068 49.9395 47.8304 49.8711 48.1859 49.8711ZM53.1761 57.6367C52.2282 57.6367 51.4762 57.3132 50.9203 56.666C50.3688 56.0189 50.0931 55.0573 50.0931 53.7812C50.0931 52.4915 50.3757 51.5186 50.9408 50.8623C51.5059 50.2015 52.2578 49.8711 53.1966 49.8711C53.5931 49.8711 53.9395 49.9235 54.2357 50.0283C54.5319 50.1331 54.7871 50.2744 55.0013 50.4521C55.2155 50.6253 55.3955 50.8236 55.5414 51.0469H55.6234C55.6052 50.9056 55.5869 50.7119 55.5687 50.4658C55.5505 50.2197 55.5414 50.0192 55.5414 49.8643V46.8633H56.6761V57.5H55.7601L55.5892 56.4336H55.5414C55.4001 56.6569 55.2201 56.8597 55.0013 57.042C54.7871 57.2243 54.5296 57.3701 54.2289 57.4795C53.9326 57.5843 53.5817 57.6367 53.1761 57.6367ZM53.3539 56.6934C54.1559 56.6934 54.7233 56.4655 55.056 56.0098C55.3887 55.554 55.555 54.8773 55.555 53.9795V53.7744C55.555 52.8219 55.3955 52.0905 55.0765 51.5801C54.7621 51.0697 54.1878 50.8145 53.3539 50.8145C52.6566 50.8145 52.1348 51.0833 51.7884 51.6211C51.4421 52.1543 51.2689 52.8835 51.2689 53.8086C51.2689 54.7292 51.4398 55.4401 51.7816 55.9414C52.1279 56.4427 52.652 56.6934 53.3539 56.6934Z" fill="#CDCDCD"/>
</svg>
