<svg width="272" height="176" viewBox="0 0 272 176" fill="none" xmlns="http://www.w3.org/2000/svg">
<g filter="url(#filter0_d_86105_6082)">
<rect x="4" y="4" width="264" height="168" rx="30" fill="white"/>
<circle cx="95.5" cy="88" r="34.5" fill="#2A3647"/>
<mask id="mask0_86105_6082" style="mask-type:alpha" maskUnits="userSpaceOnUse" x="79" y="72" width="33" height="32">
<rect x="79.5" y="72" width="32" height="32" fill="#D9D9D9"/>
</mask>
<g mask="url(#mask0_86105_6082)">
<path d="M86.1667 97.3332H88.0333L99.5333 85.8332L97.6667 83.9665L86.1667 95.4665V97.3332ZM105.233 83.8998L99.5667 78.2998L101.433 76.4332C101.944 75.9221 102.572 75.6665 103.317 75.6665C104.061 75.6665 104.689 75.9221 105.2 76.4332L107.067 78.2998C107.578 78.8109 107.844 79.4276 107.867 80.1498C107.889 80.8721 107.644 81.4887 107.133 81.9998L105.233 83.8998ZM103.3 85.8665L89.1667 99.9998H83.5V94.3332L97.6333 80.1998L103.3 85.8665Z" fill="white"/>
</g>
<path d="M187.193 52.9545V99.5H178.761V61.1591H178.489L167.602 68.1136V60.3864L179.17 52.9545H187.193Z" fill="black"/>
<path d="M154.591 120.517V118.955H165.5V120.517H160.926V133.5H159.165V120.517H154.591ZM170.841 133.727C169.856 133.727 168.992 133.493 168.249 133.024C167.51 132.555 166.932 131.9 166.516 131.057C166.104 130.214 165.898 129.229 165.898 128.102C165.898 126.966 166.104 125.974 166.516 125.126C166.932 124.279 167.51 123.621 168.249 123.152C168.992 122.683 169.856 122.449 170.841 122.449C171.826 122.449 172.688 122.683 173.426 123.152C174.17 123.621 174.747 124.279 175.159 125.126C175.576 125.974 175.784 126.966 175.784 128.102C175.784 129.229 175.576 130.214 175.159 131.057C174.747 131.9 174.17 132.555 173.426 133.024C172.688 133.493 171.826 133.727 170.841 133.727ZM170.841 132.222C171.589 132.222 172.205 132.03 172.688 131.646C173.17 131.263 173.528 130.759 173.76 130.134C173.992 129.509 174.108 128.831 174.108 128.102C174.108 127.373 173.992 126.694 173.76 126.064C173.528 125.434 173.17 124.925 172.688 124.537C172.205 124.149 171.589 123.955 170.841 123.955C170.093 123.955 169.477 124.149 168.994 124.537C168.511 124.925 168.154 125.434 167.922 126.064C167.69 126.694 167.574 127.373 167.574 128.102C167.574 128.831 167.69 129.509 167.922 130.134C168.154 130.759 168.511 131.263 168.994 131.646C169.477 132.03 170.093 132.222 170.841 132.222ZM184.593 126.483V128.045H178.229V126.483H184.593ZM191.661 133.727C190.752 133.727 189.95 133.498 189.254 133.038C188.558 132.574 188.013 131.921 187.62 131.078C187.227 130.231 187.031 129.229 187.031 128.074C187.031 126.928 187.227 125.934 187.62 125.091C188.013 124.248 188.56 123.597 189.261 123.138C189.961 122.679 190.771 122.449 191.69 122.449C192.4 122.449 192.961 122.567 193.373 122.804C193.79 123.036 194.107 123.301 194.325 123.599C194.547 123.893 194.72 124.134 194.843 124.324H194.985V118.955H196.661V133.5H195.042V131.824H194.843C194.72 132.023 194.545 132.274 194.317 132.577C194.09 132.875 193.766 133.143 193.344 133.379C192.923 133.611 192.362 133.727 191.661 133.727ZM191.888 132.222C192.561 132.222 193.129 132.046 193.593 131.696C194.057 131.341 194.41 130.851 194.651 130.226C194.893 129.596 195.013 128.869 195.013 128.045C195.013 127.231 194.895 126.518 194.658 125.908C194.422 125.292 194.071 124.814 193.607 124.473C193.143 124.127 192.57 123.955 191.888 123.955C191.178 123.955 190.586 124.137 190.113 124.501C189.644 124.861 189.291 125.351 189.055 125.972C188.823 126.587 188.707 127.278 188.707 128.045C188.707 128.822 188.825 129.527 189.062 130.162C189.303 130.792 189.658 131.294 190.127 131.668C190.601 132.037 191.188 132.222 191.888 132.222ZM204.396 133.727C203.411 133.727 202.547 133.493 201.803 133.024C201.065 132.555 200.487 131.9 200.07 131.057C199.658 130.214 199.452 129.229 199.452 128.102C199.452 126.966 199.658 125.974 200.07 125.126C200.487 124.279 201.065 123.621 201.803 123.152C202.547 122.683 203.411 122.449 204.396 122.449C205.38 122.449 206.242 122.683 206.981 123.152C207.724 123.621 208.302 124.279 208.714 125.126C209.13 125.974 209.339 126.966 209.339 128.102C209.339 129.229 209.13 130.214 208.714 131.057C208.302 131.9 207.724 132.555 206.981 133.024C206.242 133.493 205.38 133.727 204.396 133.727ZM204.396 132.222C205.144 132.222 205.759 132.03 206.242 131.646C206.725 131.263 207.083 130.759 207.315 130.134C207.547 129.509 207.663 128.831 207.663 128.102C207.663 127.373 207.547 126.694 207.315 126.064C207.083 125.434 206.725 124.925 206.242 124.537C205.759 124.149 205.144 123.955 204.396 123.955C203.647 123.955 203.032 124.149 202.549 124.537C202.066 124.925 201.709 125.434 201.477 126.064C201.245 126.694 201.129 127.373 201.129 128.102C201.129 128.831 201.245 129.509 201.477 130.134C201.709 130.759 202.066 131.263 202.549 131.646C203.032 132.03 203.647 132.222 204.396 132.222Z" fill="#2A3647"/>
</g>
<defs>
<filter id="filter0_d_86105_6082" x="0" y="0" width="272" height="176" filterUnits="userSpaceOnUse" color-interpolation-filters="sRGB">
<feFlood flood-opacity="0" result="BackgroundImageFix"/>
<feColorMatrix in="SourceAlpha" type="matrix" values="0 0 0 0 0 0 0 0 0 0 0 0 0 0 0 0 0 0 127 0" result="hardAlpha"/>
<feOffset/>
<feGaussianBlur stdDeviation="2"/>
<feColorMatrix type="matrix" values="0 0 0 0 0 0 0 0 0 0 0 0 0 0 0 0 0 0 0.1 0"/>
<feBlend mode="normal" in2="BackgroundImageFix" result="effect1_dropShadow_86105_6082"/>
<feBlend mode="normal" in="SourceGraphic" in2="effect1_dropShadow_86105_6082" result="shape"/>
</filter>
</defs>
</svg>
