<svg width="232" height="47" viewBox="0 0 232 47" fill="none" xmlns="http://www.w3.org/2000/svg">
<rect width="232" height="46" transform="translate(0 0.96582)" fill="#091931"/>
<path d="M81.2273 11.4658H60.7727H60.5C59.3954 11.4658 58.5 12.3615 58.5 13.4661C58.5 13.6459 58.5 13.7733 58.5 13.8058V34.2603V34.4658C58.5 35.5704 59.3957 36.4658 60.5003 36.4658C60.6438 36.4658 60.744 36.4658 60.7727 36.4658H81.2273C81.256 36.4658 81.3562 36.4658 81.4997 36.4658C82.6043 36.4658 83.5 35.5699 83.5 34.4653C83.5 34.3585 83.5 34.2846 83.5 34.2603V13.8058C83.5 13.7733 83.5 13.6459 83.5 13.4661C83.5 12.3615 82.6043 11.4658 81.4997 11.4658C81.3562 11.4658 81.256 11.4658 81.2273 11.4658ZM73.2727 34.2603H60.7727V25.1694H73.2727V34.2603ZM73.2727 22.8967H60.7727V13.8058L73.2727 13.8058V22.8967ZM81.2273 34.2603H75.5455V13.8058H81.2273V34.2603Z" fill="white"/>
<path d="M101.773 20.7385C101.705 20.1628 101.428 19.7158 100.943 19.3976C100.458 19.0795 99.8636 18.9204 99.1591 18.9204C98.6439 18.9204 98.1932 19.0037 97.8068 19.1704C97.4242 19.337 97.125 19.5662 96.9091 19.8579C96.697 20.1495 96.5909 20.481 96.5909 20.8522C96.5909 21.1628 96.6648 21.4298 96.8125 21.6533C96.964 21.873 97.1572 22.0567 97.392 22.2045C97.6269 22.3484 97.8731 22.4677 98.1307 22.5624C98.3883 22.6533 98.625 22.7272 98.8409 22.784L100.023 23.1022C100.326 23.1817 100.663 23.2916 101.034 23.4317C101.409 23.5719 101.767 23.7632 102.108 24.0056C102.453 24.2442 102.737 24.551 102.96 24.926C103.184 25.301 103.295 25.7613 103.295 26.3067C103.295 26.9355 103.131 27.5037 102.801 28.0113C102.475 28.5189 101.998 28.9223 101.369 29.2215C100.744 29.5207 99.9848 29.6704 99.0909 29.6704C98.2576 29.6704 97.536 29.5359 96.9261 29.267C96.3201 28.998 95.8428 28.623 95.4943 28.142C95.1496 27.6609 94.9545 27.1022 94.9091 26.4658H96.3636C96.4015 26.9052 96.5492 27.2689 96.8068 27.5567C97.0682 27.8408 97.3977 28.0529 97.7955 28.1931C98.197 28.3295 98.6288 28.3976 99.0909 28.3976C99.6288 28.3976 100.112 28.3105 100.54 28.1363C100.968 27.9582 101.307 27.712 101.557 27.3976C101.807 27.0795 101.932 26.7082 101.932 26.284C101.932 25.8976 101.824 25.5832 101.608 25.3408C101.392 25.0984 101.108 24.9014 100.756 24.7499C100.403 24.5984 100.023 24.4658 99.6136 24.3522L98.1818 23.9431C97.2727 23.6817 96.553 23.3086 96.0227 22.8238C95.4924 22.3389 95.2273 21.7045 95.2273 20.9204C95.2273 20.2689 95.4034 19.7007 95.7557 19.2158C96.1117 18.7272 96.589 18.3484 97.1875 18.0795C97.7898 17.8067 98.4621 17.6704 99.2045 17.6704C99.9545 17.6704 100.621 17.8048 101.205 18.0738C101.788 18.3389 102.25 18.7026 102.591 19.1647C102.936 19.6268 103.117 20.1514 103.136 20.7385H101.773ZM110.93 25.8976V20.7385H112.271V29.4658H110.93V27.9885H110.839C110.635 28.4317 110.317 28.8086 109.885 29.1192C109.453 29.426 108.908 29.5795 108.249 29.5795C107.703 29.5795 107.218 29.4601 106.794 29.2215C106.37 28.9791 106.036 28.6154 105.794 28.1306C105.552 27.642 105.43 27.0264 105.43 26.284V20.7385H106.771V26.1931C106.771 26.8295 106.949 27.337 107.305 27.7158C107.665 28.0946 108.124 28.284 108.68 28.284C109.014 28.284 109.353 28.1988 109.697 28.0283C110.046 27.8579 110.338 27.5965 110.572 27.2442C110.811 26.892 110.93 26.4431 110.93 25.8976ZM114.727 29.4658V20.7385H116.023V22.1022H116.136C116.318 21.6363 116.612 21.2745 117.017 21.017C117.422 20.7556 117.909 20.6249 118.477 20.6249C119.053 20.6249 119.532 20.7556 119.915 21.017C120.301 21.2745 120.602 21.6363 120.818 22.1022H120.909C121.133 21.6514 121.468 21.2935 121.915 21.0283C122.362 20.7594 122.898 20.6249 123.523 20.6249C124.303 20.6249 124.941 20.8692 125.438 21.3579C125.934 21.8427 126.182 22.5984 126.182 23.6249V29.4658H124.841V23.6249C124.841 22.981 124.665 22.5207 124.312 22.2442C123.96 21.9677 123.545 21.8295 123.068 21.8295C122.455 21.8295 121.979 22.0151 121.642 22.3863C121.305 22.7537 121.136 23.2196 121.136 23.784V29.4658H119.773V23.4885C119.773 22.9923 119.612 22.5927 119.29 22.2897C118.968 21.9829 118.553 21.8295 118.045 21.8295C117.697 21.8295 117.371 21.9223 117.068 22.1079C116.769 22.2935 116.527 22.551 116.341 22.8806C116.159 23.2064 116.068 23.5832 116.068 24.0113V29.4658H114.727ZM128.634 29.4658V20.7385H129.929V22.1022H130.043C130.224 21.6363 130.518 21.2745 130.923 21.017C131.329 20.7556 131.815 20.6249 132.384 20.6249C132.959 20.6249 133.438 20.7556 133.821 21.017C134.207 21.2745 134.509 21.6363 134.724 22.1022H134.815C135.039 21.6514 135.374 21.2935 135.821 21.0283C136.268 20.7594 136.804 20.6249 137.429 20.6249C138.209 20.6249 138.848 20.8692 139.344 21.3579C139.84 21.8427 140.088 22.5984 140.088 23.6249V29.4658H138.747V23.6249C138.747 22.981 138.571 22.5207 138.219 22.2442C137.866 21.9677 137.452 21.8295 136.974 21.8295C136.361 21.8295 135.885 22.0151 135.548 22.3863C135.211 22.7537 135.043 23.2196 135.043 23.784V29.4658H133.679V23.4885C133.679 22.9923 133.518 22.5927 133.196 22.2897C132.874 21.9829 132.459 21.8295 131.952 21.8295C131.603 21.8295 131.277 21.9223 130.974 22.1079C130.675 22.2935 130.433 22.551 130.247 22.8806C130.065 23.2064 129.974 23.5832 129.974 24.0113V29.4658H128.634ZM145.108 29.6704C144.555 29.6704 144.053 29.5662 143.602 29.3579C143.152 29.1457 142.794 28.8408 142.528 28.4431C142.263 28.0416 142.131 27.5567 142.131 26.9885C142.131 26.4885 142.229 26.0832 142.426 25.7726C142.623 25.4582 142.886 25.212 143.216 25.034C143.545 24.856 143.909 24.7234 144.307 24.6363C144.708 24.5454 145.112 24.4734 145.517 24.4204C146.047 24.3522 146.477 24.301 146.807 24.267C147.14 24.2291 147.383 24.1666 147.534 24.0795C147.689 23.9923 147.767 23.8408 147.767 23.6249V23.5795C147.767 23.0189 147.614 22.5832 147.307 22.2726C147.004 21.962 146.544 21.8067 145.926 21.8067C145.286 21.8067 144.784 21.9469 144.42 22.2272C144.057 22.5075 143.801 22.8067 143.653 23.1249L142.381 22.6704C142.608 22.1401 142.911 21.7272 143.29 21.4317C143.672 21.1325 144.089 20.9242 144.54 20.8067C144.994 20.6855 145.441 20.6249 145.881 20.6249C146.161 20.6249 146.483 20.659 146.847 20.7272C147.214 20.7916 147.568 20.926 147.909 21.1306C148.254 21.3351 148.54 21.6439 148.767 22.0567C148.994 22.4696 149.108 23.0226 149.108 23.7158V29.4658H147.767V28.284H147.699C147.608 28.4734 147.456 28.676 147.244 28.892C147.032 29.1079 146.75 29.2916 146.398 29.4431C146.045 29.5946 145.616 29.6704 145.108 29.6704ZM145.312 28.4658C145.843 28.4658 146.29 28.3617 146.653 28.1533C147.021 27.945 147.297 27.676 147.483 27.3465C147.672 27.017 147.767 26.6704 147.767 26.3067V25.0795C147.71 25.1476 147.585 25.2101 147.392 25.267C147.203 25.32 146.983 25.3673 146.733 25.409C146.487 25.4469 146.246 25.481 146.011 25.5113C145.78 25.5378 145.593 25.5605 145.449 25.5795C145.1 25.6249 144.775 25.6988 144.472 25.801C144.172 25.8995 143.93 26.0492 143.744 26.2499C143.563 26.4469 143.472 26.7158 143.472 27.0567C143.472 27.5226 143.644 27.8749 143.989 28.1135C144.337 28.3484 144.778 28.4658 145.312 28.4658ZM151.555 29.4658V20.7385H152.851V22.0567H152.942C153.101 21.6249 153.389 21.2745 153.805 21.0056C154.222 20.7367 154.692 20.6022 155.214 20.6022C155.313 20.6022 155.436 20.6041 155.584 20.6079C155.732 20.6117 155.843 20.6173 155.919 20.6249V21.9885C155.874 21.9772 155.769 21.9601 155.607 21.9374C155.447 21.9109 155.279 21.8976 155.101 21.8976C154.677 21.8976 154.298 21.9867 153.964 22.1647C153.635 22.3389 153.374 22.5814 153.18 22.892C152.991 23.1988 152.896 23.5492 152.896 23.9431V29.4658H151.555ZM158.638 32.7385C158.411 32.7385 158.208 32.7196 158.03 32.6817C157.852 32.6476 157.729 32.6135 157.661 32.5795L158.001 31.3976C158.327 31.481 158.615 31.5113 158.865 31.4885C159.115 31.4658 159.337 31.3541 159.53 31.1533C159.727 30.9564 159.907 30.6363 160.07 30.1931L160.32 29.5113L157.092 20.7385H158.547L160.956 27.6931H161.047L163.456 20.7385H164.911L161.206 30.7385C161.039 31.1893 160.833 31.5624 160.587 31.8579C160.34 32.1571 160.054 32.3787 159.729 32.5226C159.407 32.6666 159.043 32.7385 158.638 32.7385Z" fill="white"/>
</svg>
