<svg width="232" height="47" viewBox="0 0 232 47" fill="none" xmlns="http://www.w3.org/2000/svg">
<path d="M81.2257 11.4829H60.7711H60.4984C59.3938 11.4829 58.4984 12.3786 58.4984 13.4832C58.4984 13.663 58.4984 13.7904 58.4984 13.8229V34.2774V34.4829C58.4984 35.5875 59.3941 36.4829 60.4987 36.4829C60.6422 36.4829 60.7424 36.4829 60.7711 36.4829H81.2257C81.2544 36.4829 81.3546 36.4829 81.4981 36.4829C82.6027 36.4829 83.4984 35.587 83.4984 34.4824C83.4984 34.3756 83.4984 34.3017 83.4984 34.2774V13.8229C83.4984 13.7903 83.4984 13.663 83.4984 13.4832C83.4984 12.3786 82.6027 11.4829 81.4981 11.4829C81.3546 11.4829 81.2544 11.4829 81.2257 11.4829ZM73.2711 34.2774H60.7711V25.1865H73.2711V34.2774ZM73.2711 22.9138H60.7711V13.8229L73.2711 13.8229V22.9138ZM81.2257 34.2774H75.5439V13.8229H81.2257V34.2774Z" fill="#CDCDCD"/>
<path d="M101.771 20.7556C101.703 20.1799 101.426 19.7329 100.942 19.4147C100.457 19.0965 99.862 18.9375 99.1575 18.9375C98.6424 18.9375 98.1916 19.0208 97.8052 19.1875C97.4227 19.3541 97.1234 19.5833 96.9075 19.875C96.6954 20.1666 96.5893 20.4981 96.5893 20.8693C96.5893 21.1799 96.6632 21.4469 96.8109 21.6704C96.9624 21.8901 97.1556 22.0738 97.3905 22.2215C97.6253 22.3655 97.8715 22.4848 98.1291 22.5795C98.3867 22.6704 98.6234 22.7443 98.8393 22.8011L100.021 23.1193C100.324 23.1988 100.661 23.3087 101.033 23.4488C101.408 23.589 101.765 23.7803 102.106 24.0227C102.451 24.2613 102.735 24.5681 102.959 24.9431C103.182 25.3181 103.294 25.7784 103.294 26.3238C103.294 26.9526 103.129 27.5208 102.8 28.0284C102.474 28.5359 101.997 28.9393 101.368 29.2386C100.743 29.5378 99.9833 29.6875 99.0893 29.6875C98.256 29.6875 97.5344 29.553 96.9245 29.284C96.3185 29.0151 95.8412 28.6401 95.4927 28.159C95.148 27.678 94.953 27.1193 94.9075 26.4829H96.362C96.3999 26.9223 96.5477 27.2859 96.8052 27.5738C97.0666 27.8579 97.3961 28.07 97.7939 28.2102C98.1954 28.3465 98.6272 28.4147 99.0893 28.4147C99.6272 28.4147 100.11 28.3276 100.538 28.1534C100.966 27.9753 101.305 27.7291 101.555 27.4147C101.805 27.0965 101.93 26.7253 101.93 26.3011C101.93 25.9147 101.822 25.6003 101.606 25.3579C101.39 25.1155 101.106 24.9185 100.754 24.767C100.402 24.6155 100.021 24.4829 99.612 24.3693L98.1802 23.9602C97.2711 23.6988 96.5514 23.3257 96.0211 22.8409C95.4908 22.356 95.2257 21.7215 95.2257 20.9375C95.2257 20.2859 95.4018 19.7178 95.7541 19.2329C96.1102 18.7443 96.5874 18.3655 97.1859 18.0965C97.7882 17.8238 98.4605 17.6875 99.203 17.6875C99.953 17.6875 100.62 17.8219 101.203 18.0909C101.786 18.356 102.248 18.7197 102.589 19.1818C102.934 19.6439 103.116 20.1685 103.135 20.7556H101.771ZM110.929 25.9147V20.7556H112.27V29.4829H110.929V28.0056H110.838C110.633 28.4488 110.315 28.8257 109.883 29.1363C109.452 29.4431 108.906 29.5965 108.247 29.5965C107.702 29.5965 107.217 29.4772 106.792 29.2386C106.368 28.9962 106.035 28.6325 105.792 28.1477C105.55 27.659 105.429 27.0435 105.429 26.3011V20.7556H106.77V26.2102C106.77 26.8465 106.948 27.3541 107.304 27.7329C107.664 28.1117 108.122 28.3011 108.679 28.3011C109.012 28.3011 109.351 28.2159 109.696 28.0454C110.044 27.875 110.336 27.6136 110.571 27.2613C110.809 26.909 110.929 26.4602 110.929 25.9147ZM114.726 29.4829V20.7556H116.021V22.1193H116.135C116.317 21.6534 116.61 21.2916 117.015 21.034C117.421 20.7727 117.908 20.642 118.476 20.642C119.051 20.642 119.531 20.7727 119.913 21.034C120.3 21.2916 120.601 21.6534 120.817 22.1193H120.908C121.131 21.6685 121.466 21.3106 121.913 21.0454C122.36 20.7765 122.896 20.642 123.521 20.642C124.301 20.642 124.94 20.8863 125.436 21.375C125.932 21.8598 126.18 22.6155 126.18 23.642V29.4829H124.839V23.642C124.839 22.9981 124.663 22.5378 124.311 22.2613C123.959 21.9848 123.544 21.8465 123.067 21.8465C122.453 21.8465 121.978 22.0322 121.64 22.4034C121.303 22.7708 121.135 23.2367 121.135 23.8011V29.4829H119.771V23.5056C119.771 23.0094 119.61 22.6098 119.288 22.3068C118.966 22 118.551 21.8465 118.044 21.8465C117.695 21.8465 117.37 21.9393 117.067 22.125C116.767 22.3106 116.525 22.5681 116.339 22.8977C116.158 23.2234 116.067 23.6003 116.067 24.0284V29.4829H114.726ZM128.632 29.4829V20.7556H129.927V22.1193H130.041C130.223 21.6534 130.516 21.2916 130.922 21.034C131.327 20.7727 131.814 20.642 132.382 20.642C132.958 20.642 133.437 20.7727 133.819 21.034C134.206 21.2916 134.507 21.6534 134.723 22.1193H134.814C135.037 21.6685 135.372 21.3106 135.819 21.0454C136.266 20.7765 136.802 20.642 137.427 20.642C138.208 20.642 138.846 20.8863 139.342 21.375C139.838 21.8598 140.086 22.6155 140.086 23.642V29.4829H138.746V23.642C138.746 22.9981 138.569 22.5378 138.217 22.2613C137.865 21.9848 137.45 21.8465 136.973 21.8465C136.359 21.8465 135.884 22.0322 135.547 22.4034C135.21 22.7708 135.041 23.2367 135.041 23.8011V29.4829H133.677V23.5056C133.677 23.0094 133.516 22.6098 133.194 22.3068C132.872 22 132.458 21.8465 131.95 21.8465C131.602 21.8465 131.276 21.9393 130.973 22.125C130.674 22.3106 130.431 22.5681 130.246 22.8977C130.064 23.2234 129.973 23.6003 129.973 24.0284V29.4829H128.632ZM145.106 29.6875C144.553 29.6875 144.051 29.5833 143.601 29.375C143.15 29.1628 142.792 28.8579 142.527 28.4602C142.262 28.0587 142.129 27.5738 142.129 27.0056C142.129 26.5056 142.228 26.1003 142.425 25.7897C142.622 25.4753 142.885 25.2291 143.214 25.0511C143.544 24.8731 143.908 24.7405 144.305 24.6534C144.707 24.5625 145.11 24.4905 145.515 24.4375C146.046 24.3693 146.476 24.3181 146.805 24.284C147.139 24.2462 147.381 24.1837 147.533 24.0965C147.688 24.0094 147.765 23.8579 147.765 23.642V23.5965C147.765 23.0359 147.612 22.6003 147.305 22.2897C147.002 21.9791 146.542 21.8238 145.925 21.8238C145.284 21.8238 144.783 21.964 144.419 22.2443C144.055 22.5246 143.8 22.8238 143.652 23.142L142.379 22.6875C142.606 22.1572 142.909 21.7443 143.288 21.4488C143.671 21.1496 144.087 20.9412 144.538 20.8238C144.993 20.7026 145.44 20.642 145.879 20.642C146.159 20.642 146.481 20.6761 146.845 20.7443C147.212 20.8087 147.567 20.9431 147.908 21.1477C148.252 21.3522 148.538 21.6609 148.765 22.0738C148.993 22.4867 149.106 23.0397 149.106 23.7329V29.4829H147.765V28.3011H147.697C147.606 28.4905 147.455 28.6931 147.243 28.909C147.031 29.125 146.748 29.3087 146.396 29.4602C146.044 29.6117 145.614 29.6875 145.106 29.6875ZM145.311 28.4829C145.841 28.4829 146.288 28.3787 146.652 28.1704C147.019 27.9621 147.296 27.6931 147.481 27.3636C147.671 27.034 147.765 26.6875 147.765 26.3238V25.0965C147.709 25.1647 147.584 25.2272 147.39 25.284C147.201 25.3371 146.981 25.3844 146.731 25.4261C146.485 25.464 146.245 25.4981 146.01 25.5284C145.779 25.5549 145.591 25.5776 145.447 25.5965C145.099 25.642 144.773 25.7159 144.47 25.8181C144.171 25.9166 143.928 26.0662 143.743 26.267C143.561 26.464 143.47 26.7329 143.47 27.0738C143.47 27.5397 143.642 27.892 143.987 28.1306C144.336 28.3655 144.777 28.4829 145.311 28.4829ZM151.554 29.4829V20.7556H152.849V22.0738H152.94C153.099 21.642 153.387 21.2916 153.804 21.0227C154.22 20.7537 154.69 20.6193 155.213 20.6193C155.311 20.6193 155.434 20.6212 155.582 20.625C155.73 20.6287 155.842 20.6344 155.917 20.642V22.0056C155.872 21.9943 155.768 21.9772 155.605 21.9545C155.446 21.928 155.277 21.9147 155.099 21.9147C154.675 21.9147 154.296 22.0037 153.963 22.1818C153.633 22.356 153.372 22.5984 153.179 22.909C152.989 23.2159 152.895 23.5662 152.895 23.9602V29.4829H151.554ZM158.636 32.7556C158.409 32.7556 158.206 32.7367 158.028 32.6988C157.85 32.6647 157.727 32.6306 157.659 32.5965L158 31.4147C158.326 31.4981 158.613 31.5284 158.863 31.5056C159.113 31.4829 159.335 31.3712 159.528 31.1704C159.725 30.9734 159.905 30.6534 160.068 30.2102L160.318 29.5284L157.091 20.7556H158.545L160.954 27.7102H161.045L163.454 20.7556H164.909L161.204 30.7556C161.038 31.2064 160.831 31.5795 160.585 31.875C160.339 32.1742 160.053 32.3958 159.727 32.5397C159.405 32.6837 159.042 32.7556 158.636 32.7556Z" fill="#CDCDCD"/>
</svg>
