<svg width="21" height="16" viewBox="0 0 21 16" fill="none" xmlns="http://www.w3.org/2000/svg">
<g clip-path="url(#clip0_3_14301)">
<path d="M19.2597 15.4466C19.0251 15.447 18.7965 15.3722 18.6077 15.2331L10.3556 9.14989L2.10356 15.2331C1.98771 15.3186 1.85613 15.3806 1.71633 15.4153C1.57652 15.4501 1.43124 15.457 1.28877 15.4356C1.14631 15.4142 1.00944 15.3651 0.885997 15.2908C0.762552 15.2166 0.654943 15.1189 0.569314 15.0031C0.483684 14.8873 0.421712 14.7558 0.386936 14.6161C0.352159 14.4764 0.345259 14.3313 0.366629 14.1889C0.409788 13.9014 0.565479 13.6428 0.799451 13.47L9.70356 6.89951C9.89226 6.75992 10.1208 6.68457 10.3556 6.68457C10.5904 6.68457 10.819 6.75992 11.0077 6.89951L19.9118 13.47C20.0977 13.6069 20.2356 13.799 20.3057 14.0189C20.3759 14.2388 20.3747 14.4752 20.3024 14.6944C20.2301 14.9135 20.0904 15.1043 19.9031 15.2394C19.7159 15.3745 19.4907 15.447 19.2597 15.4466Z" fill="white"/>
<path d="M19.2597 9.69746C19.0251 9.69786 18.7965 9.62301 18.6077 9.48391L10.3556 3.40075L2.10356 9.48391C1.86959 9.65672 1.57651 9.72958 1.28878 9.68645C1.00105 9.64332 0.742254 9.48775 0.569318 9.25395C0.396382 9.02015 0.323475 8.72728 0.366634 8.43976C0.409793 8.15225 0.565483 7.89364 0.799455 7.72084L9.70356 1.15036C9.89226 1.01077 10.1208 0.935425 10.3556 0.935425C10.5904 0.935425 10.819 1.01077 11.0077 1.15036L19.9118 7.72084C20.0977 7.85775 20.2356 8.04987 20.3057 8.26975C20.3759 8.48962 20.3747 8.72603 20.3024 8.94521C20.2301 9.1644 20.0904 9.35515 19.9031 9.49024C19.7159 9.62533 19.4907 9.69785 19.2597 9.69746Z" fill="white"/>
</g>
<defs>
<clipPath id="clip0_3_14301">
<rect width="20" height="14.5098" fill="white" transform="translate(0.355469 0.936768)"/>
</clipPath>
</defs>
</svg>
