<svg width="145" height="64" viewBox="0 0 145 64" fill="none" xmlns="http://www.w3.org/2000/svg">
<g filter="url(#filter0_d_165003_5529)">
<rect x="4.24854" y="4" width="136" height="56" rx="10" fill="white"/>
<path d="M37.0554 24.4545H38.8167V34.0852C38.8167 35.0795 38.5823 35.9673 38.1136 36.7486C37.6496 37.5251 36.9938 38.1383 36.1463 38.5881C35.2987 39.0331 34.3044 39.2557 33.1633 39.2557C32.0222 39.2557 31.0279 39.0331 30.1804 38.5881C29.3328 38.1383 28.6747 37.5251 28.2059 36.7486C27.7419 35.9673 27.5099 35.0795 27.5099 34.0852V24.4545H29.2713V33.9432C29.2713 34.6534 29.4275 35.2855 29.74 35.8395C30.0525 36.3887 30.4976 36.822 31.0752 37.1392C31.6576 37.4517 32.3536 37.608 33.1633 37.608C33.973 37.608 34.669 37.4517 35.2514 37.1392C35.8338 36.822 36.2788 36.3887 36.5866 35.8395C36.8991 35.2855 37.0554 34.6534 37.0554 33.9432V24.4545ZM42.1068 39V28.0909H43.7262V29.7386H43.8398C44.0387 29.1989 44.3985 28.7609 44.9193 28.4247C45.4402 28.0885 46.0273 27.9205 46.6807 27.9205C46.8038 27.9205 46.9577 27.9228 47.1424 27.9276C47.327 27.9323 47.4667 27.9394 47.5614 27.9489V29.6534C47.5046 29.6392 47.3744 29.6179 47.1708 29.5895C46.9719 29.5563 46.7612 29.5398 46.5387 29.5398C46.0084 29.5398 45.5349 29.651 45.1182 29.8736C44.7063 30.0914 44.3796 30.3944 44.1381 30.7827C43.9014 31.1662 43.783 31.6042 43.783 32.0966V39H42.1068ZM53.6196 43.3182C52.81 43.3182 52.1139 43.214 51.5316 43.0057C50.9492 42.8021 50.4639 42.5322 50.0756 42.196C49.6921 41.8646 49.3867 41.5095 49.1594 41.1307L50.4946 40.1932C50.6461 40.392 50.8379 40.6193 51.0699 40.875C51.3019 41.1354 51.6192 41.3603 52.0216 41.5497C52.4288 41.7438 52.9615 41.8409 53.6196 41.8409C54.5003 41.8409 55.2271 41.6278 55.8 41.2017C56.3729 40.7756 56.6594 40.108 56.6594 39.1989V36.983H56.5174C56.3943 37.1818 56.2191 37.428 55.9918 37.7216C55.7693 38.0104 55.4473 38.2685 55.0259 38.4957C54.6092 38.7183 54.0458 38.8295 53.3355 38.8295C52.4549 38.8295 51.6641 38.6212 50.9634 38.2045C50.2674 37.7879 49.7157 37.1818 49.3085 36.3864C48.9061 35.5909 48.7049 34.625 48.7049 33.4886C48.7049 32.3712 48.9014 31.3982 49.2943 30.5696C49.6873 29.7363 50.2342 29.0923 50.935 28.6378C51.6357 28.1785 52.4454 27.9489 53.3639 27.9489C54.0742 27.9489 54.6376 28.0672 55.0543 28.304C55.4757 28.536 55.7977 28.8011 56.0202 29.0994C56.2475 29.393 56.4227 29.6345 56.5458 29.8239H56.7162V28.0909H58.3355V39.3125C58.3355 40.25 58.1225 41.0123 57.6963 41.5994C57.2749 42.1913 56.7068 42.6245 55.9918 42.8991C55.2816 43.1785 54.4908 43.3182 53.6196 43.3182ZM53.5628 37.3239C54.2352 37.3239 54.8033 37.17 55.2674 36.8622C55.7314 36.5545 56.0841 36.1117 56.3256 35.5341C56.5671 34.9564 56.6878 34.2652 56.6878 33.4602C56.6878 32.6742 56.5694 31.9806 56.3327 31.3793C56.096 30.7779 55.7456 30.3068 55.2816 29.9659C54.8175 29.625 54.2446 29.4545 53.5628 29.4545C52.8526 29.4545 52.2607 29.6345 51.7872 29.9943C51.3185 30.3542 50.9657 30.8371 50.729 31.4432C50.497 32.0492 50.381 32.7216 50.381 33.4602C50.381 34.2178 50.4994 34.8878 50.7361 35.4702C50.9776 36.0478 51.3327 36.5024 51.8014 36.8338C52.2749 37.1605 52.8621 37.3239 53.5628 37.3239ZM65.9776 39.2273C64.9264 39.2273 64.0197 38.9953 63.2574 38.5312C62.4998 38.0625 61.9151 37.4091 61.5032 36.571C61.096 35.7282 60.8924 34.7481 60.8924 33.6307C60.8924 32.5133 61.096 31.5284 61.5032 30.6761C61.9151 29.8191 62.488 29.1515 63.2219 28.6733C63.9605 28.1903 64.8223 27.9489 65.8071 27.9489C66.3753 27.9489 66.9364 28.0436 67.4904 28.233C68.0443 28.4223 68.5486 28.7301 69.0032 29.1562C69.4577 29.5777 69.8199 30.1364 70.0898 30.8324C70.3597 31.5284 70.4946 32.3854 70.4946 33.4034V34.1136H62.0855V32.6648H68.7901C68.7901 32.0492 68.667 31.5 68.4208 31.017C68.1793 30.5341 67.8336 30.1529 67.3838 29.8736C66.9388 29.5942 66.4132 29.4545 65.8071 29.4545C65.1395 29.4545 64.5619 29.6203 64.0742 29.9517C63.5912 30.2784 63.2195 30.7045 62.9591 31.2301C62.6987 31.7557 62.5685 32.3191 62.5685 32.9205V33.8864C62.5685 34.7102 62.7105 35.4086 62.9946 35.9815C63.2835 36.5497 63.6835 36.983 64.1949 37.2812C64.7063 37.5748 65.3005 37.7216 65.9776 37.7216C66.4179 37.7216 66.8157 37.66 67.1708 37.5369C67.5306 37.4091 67.8407 37.2197 68.1012 36.9688C68.3616 36.7131 68.5628 36.3958 68.7049 36.017L70.3242 36.4716C70.1537 37.0208 69.8673 37.5038 69.4648 37.9205C69.0623 38.3324 68.5652 38.6544 67.9733 38.8864C67.3815 39.1136 66.7162 39.2273 65.9776 39.2273ZM74.7205 32.4375V39H73.0443V28.0909H74.6637V29.7955H74.8057C75.0614 29.2415 75.4496 28.7964 75.9705 28.4602C76.4913 28.1193 77.1637 27.9489 77.9875 27.9489C78.7262 27.9489 79.3725 28.1004 79.9264 28.4034C80.4804 28.7017 80.9113 29.1562 81.2191 29.767C81.5268 30.3731 81.6807 31.1402 81.6807 32.0682V39H80.0046V32.1818C80.0046 31.3248 79.782 30.6572 79.337 30.179C78.8919 29.696 78.2811 29.4545 77.5046 29.4545C76.9695 29.4545 76.4913 29.5705 76.0699 29.8026C75.6532 30.0346 75.3242 30.3731 75.0827 30.8182C74.8412 31.2633 74.7205 31.803 74.7205 32.4375ZM89.4879 28.0909V29.5114H83.8345V28.0909H89.4879ZM85.4822 25.4773H87.1583V35.875C87.1583 36.3485 87.227 36.7036 87.3643 36.9403C87.5063 37.1723 87.6863 37.3286 87.9041 37.4091C88.1266 37.4848 88.361 37.5227 88.6072 37.5227C88.7919 37.5227 88.9434 37.5133 89.0617 37.4943C89.1801 37.4706 89.2748 37.4517 89.3458 37.4375L89.6867 38.9432C89.5731 38.9858 89.4145 39.0284 89.2109 39.071C89.0073 39.1184 88.7492 39.142 88.4367 39.142C87.9633 39.142 87.4992 39.0402 87.0447 38.8366C86.5949 38.633 86.2208 38.3229 85.9225 37.9062C85.629 37.4896 85.4822 36.964 85.4822 36.3295V25.4773Z" fill="black"/>
<g clip-path="url(#clip0_165003_5529)">
<path d="M117.653 39.2547C117.418 39.2551 117.19 39.1803 117.001 39.0412L108.749 32.958L100.497 39.0412C100.381 39.1267 100.249 39.1887 100.109 39.2234C99.9696 39.2582 99.8243 39.2651 99.6818 39.2437C99.5394 39.2223 99.4025 39.1732 99.2791 39.099C99.1556 39.0247 99.048 38.927 98.9624 38.8112C98.8768 38.6954 98.8148 38.5639 98.78 38.4243C98.7452 38.2846 98.7383 38.1394 98.7597 37.997C98.8029 37.7095 98.9585 37.4509 99.1925 37.2781L108.097 30.7076C108.285 30.568 108.514 30.4927 108.749 30.4927C108.983 30.4927 109.212 30.568 109.401 30.7076L118.305 37.2781C118.491 37.415 118.629 37.6071 118.699 37.827C118.769 38.0469 118.768 38.2833 118.695 38.5025C118.623 38.7216 118.483 38.9124 118.296 39.0475C118.109 39.1826 117.884 39.2551 117.653 39.2547Z" fill="#FF3D00"/>
<path d="M117.653 33.5057C117.418 33.5061 117.19 33.4312 117.001 33.2921L108.749 27.209L100.497 33.2921C100.263 33.4649 99.9696 33.5378 99.6818 33.4947C99.3941 33.4515 99.1353 33.296 98.9624 33.0622C98.7894 32.8284 98.7165 32.5355 98.7597 32.248C98.8029 31.9605 98.9585 31.7019 99.1925 31.5291L108.097 24.9586C108.285 24.819 108.514 24.7437 108.749 24.7437C108.983 24.7437 109.212 24.819 109.401 24.9586L118.305 31.5291C118.491 31.666 118.629 31.8581 118.699 32.078C118.769 32.2979 118.768 32.5343 118.695 32.7534C118.623 32.9726 118.483 33.1634 118.296 33.2985C118.109 33.4336 117.884 33.5061 117.653 33.5057Z" fill="#FF3D00"/>
</g>
</g>
<defs>
<filter id="filter0_d_165003_5529" x="0.248535" y="0" width="144" height="64" filterUnits="userSpaceOnUse" color-interpolation-filters="sRGB">
<feFlood flood-opacity="0" result="BackgroundImageFix"/>
<feColorMatrix in="SourceAlpha" type="matrix" values="0 0 0 0 0 0 0 0 0 0 0 0 0 0 0 0 0 0 127 0" result="hardAlpha"/>
<feOffset/>
<feGaussianBlur stdDeviation="2"/>
<feColorMatrix type="matrix" values="0 0 0 0 0 0 0 0 0 0 0 0 0 0 0 0 0 0 0.1 0"/>
<feBlend mode="normal" in2="BackgroundImageFix" result="effect1_dropShadow_165003_5529"/>
<feBlend mode="normal" in="SourceGraphic" in2="effect1_dropShadow_165003_5529" result="shape"/>
</filter>
<clipPath id="clip0_165003_5529">
<rect width="20" height="14.5098" fill="white" transform="translate(98.7485 24.7451)"/>
</clipPath>
</defs>
</svg>
