<svg width="220" height="231" viewBox="0 0 220 231" fill="none" xmlns="http://www.w3.org/2000/svg">
<rect width="113" height="27" rx="8" fill="#0038FF"/>
<path d="M25.0455 7.36364H26.4545V15.0682C26.4545 15.8636 26.267 16.5739 25.892 17.1989C25.5208 17.8201 24.9962 18.3106 24.3182 18.6705C23.6402 19.0265 22.8447 19.2045 21.9318 19.2045C21.0189 19.2045 20.2235 19.0265 19.5455 18.6705C18.8674 18.3106 18.3409 17.8201 17.9659 17.1989C17.5947 16.5739 17.4091 15.8636 17.4091 15.0682V7.36364H18.8182V14.9545C18.8182 15.5227 18.9432 16.0284 19.1932 16.4716C19.4432 16.911 19.7992 17.2576 20.2614 17.5114C20.7273 17.7614 21.2841 17.8864 21.9318 17.8864C22.5795 17.8864 23.1364 17.7614 23.6023 17.5114C24.0682 17.2576 24.4242 16.911 24.6705 16.4716C24.9205 16.0284 25.0455 15.5227 25.0455 14.9545V7.36364ZM35.2685 12.2273L34.0639 12.5682C33.9882 12.3674 33.8764 12.1723 33.7287 11.983C33.5848 11.7898 33.3878 11.6307 33.1378 11.5057C32.8878 11.3807 32.5677 11.3182 32.1776 11.3182C31.6435 11.3182 31.1984 11.4413 30.8423 11.6875C30.4901 11.9299 30.3139 12.2386 30.3139 12.6136C30.3139 12.947 30.4351 13.2102 30.6776 13.4034C30.92 13.5966 31.2988 13.7576 31.8139 13.8864L33.1094 14.2045C33.8897 14.3939 34.4711 14.6837 34.8537 15.0739C35.2363 15.4602 35.4276 15.9583 35.4276 16.5682C35.4276 17.0682 35.2836 17.5152 34.9957 17.9091C34.7116 18.303 34.3139 18.6136 33.8026 18.8409C33.2912 19.0682 32.6965 19.1818 32.0185 19.1818C31.1283 19.1818 30.3916 18.9886 29.8082 18.6023C29.2249 18.2159 28.8556 17.6515 28.7003 16.9091L29.973 16.5909C30.0942 17.0606 30.3234 17.4129 30.6605 17.6477C31.0014 17.8826 31.4465 18 31.9957 18C32.6207 18 33.117 17.8674 33.4844 17.6023C33.8556 17.3333 34.0412 17.0114 34.0412 16.6364C34.0412 16.3333 33.9351 16.0795 33.723 15.875C33.5109 15.6667 33.1851 15.5114 32.7457 15.4091L31.2912 15.0682C30.492 14.8788 29.9048 14.5852 29.5298 14.1875C29.1586 13.786 28.973 13.2841 28.973 12.6818C28.973 12.1894 29.1113 11.7538 29.3878 11.375C29.6681 10.9962 30.0488 10.6989 30.5298 10.483C31.0147 10.267 31.5639 10.1591 32.1776 10.1591C33.0412 10.1591 33.7192 10.3485 34.2116 10.7273C34.7079 11.1061 35.0601 11.6061 35.2685 12.2273ZM41.1051 19.1818C40.2642 19.1818 39.5388 18.9962 38.929 18.625C38.3229 18.25 37.8551 17.7273 37.5256 17.0568C37.1998 16.3826 37.0369 15.5985 37.0369 14.7045C37.0369 13.8106 37.1998 13.0227 37.5256 12.3409C37.8551 11.6553 38.3134 11.1212 38.9006 10.7386C39.4915 10.3523 40.1809 10.1591 40.9688 10.1591C41.4233 10.1591 41.8722 10.2348 42.3153 10.3864C42.7585 10.5379 43.1619 10.7841 43.5256 11.125C43.8892 11.4621 44.179 11.9091 44.3949 12.4659C44.6108 13.0227 44.7188 13.7083 44.7188 14.5227V15.0909L37.9915 15.0909V13.9318H43.3551C43.3551 13.4394 43.2566 13 43.0597 12.6136C42.8665 12.2273 42.59 11.9223 42.2301 11.6989C41.8741 11.4754 41.4536 11.3636 40.9688 11.3636C40.4347 11.3636 39.9725 11.4962 39.5824 11.7614C39.196 12.0227 38.8987 12.3636 38.6903 12.7841C38.482 13.2045 38.3778 13.6553 38.3778 14.1364V14.9091C38.3778 15.5682 38.4915 16.1269 38.7188 16.5852C38.9498 17.0398 39.2699 17.3864 39.679 17.625C40.0881 17.8598 40.5634 17.9773 41.1051 17.9773C41.4574 17.9773 41.7756 17.928 42.0597 17.8295C42.3475 17.7273 42.5956 17.5758 42.804 17.375C43.0123 17.1705 43.1733 16.9167 43.2869 16.6136L44.5824 16.9773C44.446 17.4167 44.2169 17.803 43.8949 18.1364C43.5729 18.4659 43.1752 18.7235 42.7017 18.9091C42.2282 19.0909 41.696 19.1818 41.1051 19.1818ZM46.7585 19V10.2727H48.054V11.5909H48.1449C48.304 11.1591 48.5919 10.8087 49.0085 10.5398C49.4252 10.2708 49.8949 10.1364 50.4176 10.1364C50.5161 10.1364 50.6392 10.1383 50.7869 10.142C50.9347 10.1458 51.0464 10.1515 51.1222 10.1591V11.5227C51.0767 11.5114 50.9725 11.4943 50.8097 11.4716C50.6506 11.4451 50.482 11.4318 50.304 11.4318C49.8797 11.4318 49.5009 11.5208 49.1676 11.6989C48.8381 11.8731 48.5767 12.1155 48.3835 12.4261C48.1941 12.733 48.0994 13.0833 48.0994 13.4773V19H46.7585ZM63.7571 10.2727C63.6889 9.69697 63.4124 9.25 62.9276 8.93182C62.4427 8.61364 61.848 8.45455 61.1435 8.45455C60.6283 8.45455 60.1776 8.53788 59.7912 8.70455C59.4086 8.87121 59.1094 9.10038 58.8935 9.39205C58.6813 9.68371 58.5753 10.0152 58.5753 10.3864C58.5753 10.697 58.6491 10.964 58.7969 11.1875C58.9484 11.4072 59.1416 11.5909 59.3764 11.7386C59.6113 11.8826 59.8575 12.0019 60.1151 12.0966C60.3726 12.1875 60.6094 12.2614 60.8253 12.3182L62.0071 12.6364C62.3101 12.7159 62.6473 12.8258 63.0185 12.9659C63.3935 13.1061 63.7514 13.2973 64.0923 13.5398C64.437 13.7784 64.7211 14.0852 64.9446 14.4602C65.1681 14.8352 65.2798 15.2955 65.2798 15.8409C65.2798 16.4697 65.1151 17.0379 64.7855 17.5455C64.4598 18.053 63.9825 18.4564 63.3537 18.7557C62.7287 19.0549 61.9692 19.2045 61.0753 19.2045C60.242 19.2045 59.5204 19.0701 58.9105 18.8011C58.3045 18.5322 57.8272 18.1572 57.4787 17.6761C57.134 17.1951 56.9389 16.6364 56.8935 16H58.348C58.3859 16.4394 58.5336 16.803 58.7912 17.0909C59.0526 17.375 59.3821 17.5871 59.7798 17.7273C60.1813 17.8636 60.6132 17.9318 61.0753 17.9318C61.6132 17.9318 62.0961 17.8447 62.5241 17.6705C62.9522 17.4924 63.2912 17.2462 63.5412 16.9318C63.7912 16.6136 63.9162 16.2424 63.9162 15.8182C63.9162 15.4318 63.8082 15.1174 63.5923 14.875C63.3764 14.6326 63.0923 14.4356 62.7401 14.2841C62.3878 14.1326 62.0071 14 61.598 13.8864L60.1662 13.4773C59.2571 13.2159 58.5374 12.8428 58.0071 12.358C57.4768 11.8731 57.2116 11.2386 57.2116 10.4545C57.2116 9.80303 57.3878 9.23485 57.7401 8.75C58.0961 8.26136 58.5734 7.88258 59.1719 7.61364C59.7741 7.34091 60.4465 7.20455 61.1889 7.20455C61.9389 7.20455 62.6056 7.33901 63.1889 7.60795C63.7723 7.87311 64.2344 8.23674 64.5753 8.69886C64.92 9.16098 65.1018 9.68561 65.1207 10.2727H63.7571ZM71.2102 10.2727V11.4091L66.6875 11.4091V10.2727L71.2102 10.2727ZM68.0057 8.18182L69.3466 8.18182V16.5C69.3466 16.8788 69.4015 17.1629 69.5114 17.3523C69.625 17.5379 69.7689 17.6629 69.9432 17.7273C70.1212 17.7879 70.3087 17.8182 70.5057 17.8182C70.6534 17.8182 70.7746 17.8106 70.8693 17.7955C70.964 17.7765 71.0398 17.7614 71.0966 17.75L71.3693 18.9545C71.2784 18.9886 71.1515 19.0227 70.9886 19.0568C70.8258 19.0947 70.6193 19.1136 70.3693 19.1136C69.9905 19.1136 69.6193 19.0322 69.2557 18.8693C68.8958 18.7064 68.5966 18.4583 68.358 18.125C68.1231 17.7917 68.0057 17.3712 68.0057 16.8636V8.18182ZM76.679 19.1818C75.8911 19.1818 75.1998 18.9943 74.6051 18.6193C74.0142 18.2443 73.5521 17.7197 73.2188 17.0455C72.8892 16.3712 72.7244 15.5833 72.7244 14.6818C72.7244 13.7727 72.8892 12.9792 73.2188 12.3011C73.5521 11.6231 74.0142 11.0966 74.6051 10.7216C75.1998 10.3466 75.8911 10.1591 76.679 10.1591C77.4669 10.1591 78.1563 10.3466 78.7472 10.7216C79.3419 11.0966 79.804 11.6231 80.1335 12.3011C80.4669 12.9792 80.6335 13.7727 80.6335 14.6818C80.6335 15.5833 80.4669 16.3712 80.1335 17.0455C79.804 17.7197 79.3419 18.2443 78.7472 18.6193C78.1563 18.9943 77.4669 19.1818 76.679 19.1818ZM76.679 17.9773C77.2775 17.9773 77.7699 17.8239 78.1562 17.517C78.5426 17.2102 78.8286 16.8068 79.0142 16.3068C79.1998 15.8068 79.2926 15.2652 79.2926 14.6818C79.2926 14.0985 79.1998 13.5549 79.0142 13.0511C78.8286 12.5473 78.5426 12.1402 78.1562 11.8295C77.7699 11.5189 77.2775 11.3636 76.679 11.3636C76.0805 11.3636 75.5881 11.5189 75.2017 11.8295C74.8153 12.1402 74.5294 12.5473 74.3438 13.0511C74.1581 13.5549 74.0653 14.0985 74.0653 14.6818C74.0653 15.2652 74.1581 15.8068 74.3438 16.3068C74.5294 16.8068 74.8153 17.2102 75.2017 17.517C75.5881 17.8239 76.0805 17.9773 76.679 17.9773ZM82.6804 19V10.2727H83.9759V11.5909H84.0668C84.2259 11.1591 84.5137 10.8087 84.9304 10.5398C85.3471 10.2708 85.8168 10.1364 86.3395 10.1364C86.438 10.1364 86.5611 10.1383 86.7088 10.142C86.8565 10.1458 86.9683 10.1515 87.044 10.1591V11.5227C86.9986 11.5114 86.8944 11.4943 86.7315 11.4716C86.5724 11.4451 86.4039 11.4318 86.2259 11.4318C85.8016 11.4318 85.4228 11.5208 85.0895 11.6989C84.7599 11.8731 84.4986 12.1155 84.3054 12.4261C84.116 12.733 84.0213 13.0833 84.0213 13.4773V19H82.6804ZM89.7628 22.2727C89.5355 22.2727 89.3329 22.2538 89.1548 22.2159C88.9768 22.1818 88.8537 22.1477 88.7855 22.1136L89.1264 20.9318C89.4522 21.0152 89.7401 21.0455 89.9901 21.0227C90.2401 21 90.4616 20.8883 90.6548 20.6875C90.8518 20.4905 91.0317 20.1705 91.1946 19.7273L91.4446 19.0455L88.2173 10.2727H89.6719L92.081 17.2273H92.1719L94.581 10.2727H96.0355L92.331 20.2727C92.1643 20.7235 91.9579 21.0966 91.7116 21.392C91.4654 21.6913 91.1795 21.9129 90.8537 22.0568C90.5317 22.2008 90.1681 22.2727 89.7628 22.2727Z" fill="white"/>
<path d="M1.01136 66V54.3636H3.47159V59.4943H3.625L7.8125 54.3636H10.7614L6.44318 59.5739L10.8125 66H7.86932L4.68182 61.2159L3.47159 62.6932V66H1.01136ZM15.2997 66.1705C14.4171 66.1705 13.6539 65.983 13.0099 65.608C12.3698 65.2292 11.8755 64.7027 11.527 64.0284C11.1785 63.3504 11.0043 62.5644 11.0043 61.6705C11.0043 60.7689 11.1785 59.9811 11.527 59.3068C11.8755 58.6288 12.3698 58.1023 13.0099 57.7273C13.6539 57.3485 14.4171 57.1591 15.2997 57.1591C16.1823 57.1591 16.9437 57.3485 17.5838 57.7273C18.2277 58.1023 18.724 58.6288 19.0724 59.3068C19.4209 59.9811 19.5952 60.7689 19.5952 61.6705C19.5952 62.5644 19.4209 63.3504 19.0724 64.0284C18.724 64.7027 18.2277 65.2292 17.5838 65.608C16.9437 65.983 16.1823 66.1705 15.2997 66.1705ZM15.3111 64.2955C15.7126 64.2955 16.0478 64.1818 16.3168 63.9545C16.5857 63.7235 16.7884 63.4091 16.9247 63.0114C17.0649 62.6136 17.1349 62.161 17.1349 61.6534C17.1349 61.1458 17.0649 60.6932 16.9247 60.2955C16.7884 59.8977 16.5857 59.5833 16.3168 59.3523C16.0478 59.1212 15.7126 59.0057 15.3111 59.0057C14.9058 59.0057 14.5649 59.1212 14.2884 59.3523C14.0156 59.5833 13.8092 59.8977 13.669 60.2955C13.5327 60.6932 13.4645 61.1458 13.4645 61.6534C13.4645 62.161 13.5327 62.6136 13.669 63.0114C13.8092 63.4091 14.0156 63.7235 14.2884 63.9545C14.5649 64.1818 14.9058 64.2955 15.3111 64.2955ZM25.1122 66.1705C24.2183 66.1705 23.4493 65.9811 22.8054 65.6023C22.1652 65.2197 21.6728 64.6894 21.3281 64.0114C20.9872 63.3333 20.8168 62.553 20.8168 61.6705C20.8168 60.7765 20.9891 59.9924 21.3338 59.3182C21.6823 58.6402 22.1766 58.1117 22.8168 57.733C23.4569 57.3504 24.2183 57.1591 25.1009 57.1591C25.8622 57.1591 26.5289 57.2973 27.1009 57.5739C27.6728 57.8504 28.1255 58.2386 28.4588 58.7386C28.7921 59.2386 28.9759 59.8258 29.0099 60.5H26.7259C26.6615 60.0644 26.491 59.714 26.2145 59.4489C25.9418 59.1799 25.5838 59.0455 25.1406 59.0455C24.7656 59.0455 24.438 59.1477 24.1577 59.3523C23.8812 59.553 23.6652 59.8466 23.5099 60.233C23.3546 60.6193 23.277 61.0871 23.277 61.6364C23.277 62.1932 23.3527 62.6667 23.5043 63.0568C23.6596 63.447 23.8774 63.7443 24.1577 63.9489C24.438 64.1534 24.7656 64.2557 25.1406 64.2557C25.4171 64.2557 25.6652 64.1989 25.8849 64.0852C26.1084 63.9716 26.2921 63.8068 26.4361 63.5909C26.5838 63.3712 26.6804 63.108 26.7259 62.8011H29.0099C28.9721 63.4678 28.7902 64.0549 28.4645 64.5625C28.1425 65.0663 27.6974 65.4602 27.1293 65.7443C26.5611 66.0284 25.8887 66.1705 25.1122 66.1705ZM32.9801 60.9545V66H30.5597V54.3636H32.9119V58.8125H33.0142C33.2112 58.2973 33.5294 57.8939 33.9688 57.6023C34.4081 57.3068 34.9593 57.1591 35.6222 57.1591C36.2282 57.1591 36.7566 57.2917 37.2074 57.5568C37.6619 57.8182 38.0142 58.1951 38.2642 58.6875C38.518 59.1761 38.643 59.7614 38.6392 60.4432V66H36.2188V60.875C36.2225 60.3371 36.0862 59.9186 35.8097 59.6193C35.5369 59.3201 35.1544 59.1705 34.6619 59.1705C34.3324 59.1705 34.0407 59.2405 33.7869 59.3807C33.5369 59.5208 33.34 59.7254 33.196 59.9943C33.0559 60.2595 32.9839 60.5795 32.9801 60.9545ZM42.2656 66L39.8906 57.2727H42.3395L43.6918 63.1364H43.7713L45.1804 57.2727H47.5838L49.0156 63.1023H49.0895L50.419 57.2727H52.8622L50.4929 66H47.9304L46.4304 60.5114H46.3224L44.8224 66H42.2656ZM57.9119 66.1705C57.0142 66.1705 56.2415 65.9886 55.5938 65.625C54.9498 65.2576 54.4536 64.7386 54.1051 64.0682C53.7566 63.3939 53.5824 62.5966 53.5824 61.6761C53.5824 60.7784 53.7566 59.9905 54.1051 59.3125C54.4536 58.6345 54.9441 58.1061 55.5767 57.7273C56.2131 57.3485 56.9593 57.1591 57.8153 57.1591C58.3911 57.1591 58.9271 57.2519 59.4233 57.4375C59.9233 57.6193 60.3589 57.8939 60.7301 58.2614C61.1051 58.6288 61.3968 59.0909 61.6051 59.6477C61.8134 60.2008 61.9176 60.8485 61.9176 61.5909V62.2557H54.5483V60.7557H59.6392C59.6392 60.4072 59.5634 60.0985 59.4119 59.8295C59.2604 59.5606 59.0502 59.3504 58.7812 59.1989C58.5161 59.0436 58.2074 58.9659 57.8551 58.9659C57.4877 58.9659 57.1619 59.0511 56.8778 59.2216C56.5975 59.3883 56.3778 59.6136 56.2188 59.8977C56.0597 60.178 55.9782 60.4905 55.9744 60.8352V62.2614C55.9744 62.6932 56.054 63.0663 56.2131 63.3807C56.3759 63.6951 56.6051 63.9375 56.9006 64.108C57.196 64.2784 57.5464 64.3636 57.9517 64.3636C58.2206 64.3636 58.4669 64.3258 58.6903 64.25C58.9138 64.1742 59.1051 64.0606 59.2642 63.9091C59.4233 63.7576 59.5445 63.572 59.6278 63.3523L61.8665 63.5C61.7528 64.0379 61.5199 64.5076 61.1676 64.9091C60.8191 65.3068 60.3684 65.6174 59.8153 65.8409C59.2661 66.0606 58.6316 66.1705 57.9119 66.1705ZM65.9176 54.3636V66H63.4972V54.3636H65.9176ZM72.4986 57.2727V59.0909H67.2429V57.2727H72.4986ZM68.4361 55.1818H70.8565V63.3182C70.8565 63.5417 70.8906 63.7159 70.9588 63.8409C71.027 63.9621 71.1217 64.0473 71.2429 64.0966C71.3679 64.1458 71.5118 64.1705 71.6747 64.1705C71.7884 64.1705 71.902 64.161 72.0156 64.142C72.1293 64.1193 72.2164 64.1023 72.277 64.0909L72.6577 65.892C72.5365 65.9299 72.366 65.9735 72.1463 66.0227C71.9266 66.0758 71.6596 66.108 71.3452 66.1193C70.7618 66.142 70.2505 66.0644 69.8111 65.8864C69.3755 65.7083 69.0365 65.4318 68.794 65.0568C68.5516 64.6818 68.4323 64.2083 68.4361 63.6364V55.1818ZM77.8239 66V54.3636H82.4148C83.2973 54.3636 84.0492 54.5322 84.6705 54.8693C85.2917 55.2027 85.7652 55.6667 86.0909 56.2614C86.4205 56.8523 86.5852 57.5341 86.5852 58.3068C86.5852 59.0795 86.4186 59.7614 86.0852 60.3523C85.7519 60.9432 85.2689 61.4034 84.6364 61.733C84.0076 62.0625 83.2462 62.2273 82.3523 62.2273H79.4261V60.2557H81.9545C82.428 60.2557 82.8182 60.1742 83.125 60.0114C83.4356 59.8447 83.6667 59.6155 83.8182 59.3239C83.9735 59.0284 84.0511 58.6894 84.0511 58.3068C84.0511 57.9205 83.9735 57.5833 83.8182 57.2955C83.6667 57.0038 83.4356 56.7784 83.125 56.6193C82.8144 56.4564 82.4205 56.375 81.9432 56.375H80.2841V66H77.8239ZM90.392 66.1648C89.8352 66.1648 89.339 66.0682 88.9034 65.875C88.4678 65.678 88.1231 65.3883 87.8693 65.0057C87.6193 64.6193 87.4943 64.1383 87.4943 63.5625C87.4943 63.0777 87.5833 62.6705 87.7614 62.3409C87.9394 62.0114 88.1818 61.7462 88.4886 61.5455C88.7955 61.3447 89.1439 61.1932 89.5341 61.0909C89.928 60.9886 90.3409 60.9167 90.7727 60.875C91.2803 60.822 91.6894 60.7727 92 60.7273C92.3106 60.678 92.536 60.6061 92.6761 60.5114C92.8163 60.4167 92.8864 60.2765 92.8864 60.0909V60.0568C92.8864 59.697 92.7727 59.4186 92.5455 59.2216C92.322 59.0246 92.0038 58.9261 91.5909 58.9261C91.1553 58.9261 90.8087 59.0227 90.5511 59.2159C90.2936 59.4053 90.1231 59.6439 90.0398 59.9318L87.8011 59.75C87.9148 59.2197 88.1383 58.7614 88.4716 58.375C88.8049 57.9848 89.2348 57.6856 89.7614 57.4773C90.2917 57.2652 90.9053 57.1591 91.6023 57.1591C92.0871 57.1591 92.5511 57.2159 92.9943 57.3295C93.4413 57.4432 93.8371 57.6193 94.1818 57.858C94.5303 58.0966 94.8049 58.4034 95.0057 58.7784C95.2064 59.1496 95.3068 59.5947 95.3068 60.1136V66H93.0114V64.7898H92.9432C92.803 65.0625 92.6155 65.303 92.3807 65.5114C92.1458 65.7159 91.8636 65.8769 91.5341 65.9943C91.2045 66.108 90.8239 66.1648 90.392 66.1648ZM91.0852 64.4943C91.4413 64.4943 91.7557 64.4242 92.0284 64.2841C92.3011 64.1402 92.5152 63.947 92.6705 63.7045C92.8258 63.4621 92.9034 63.1875 92.9034 62.8807V61.9545C92.8277 62.0038 92.7235 62.0492 92.5909 62.0909C92.4621 62.1288 92.3163 62.1648 92.1534 62.1989C91.9905 62.2292 91.8277 62.2576 91.6648 62.2841C91.5019 62.3068 91.3542 62.3277 91.2216 62.3466C90.9375 62.3883 90.6894 62.4545 90.4773 62.5455C90.2652 62.6364 90.1004 62.7595 89.983 62.9148C89.8655 63.0663 89.8068 63.2557 89.8068 63.483C89.8068 63.8125 89.9261 64.0644 90.1648 64.2386C90.4072 64.4091 90.714 64.4943 91.0852 64.4943ZM101.116 69.4545C100.332 69.4545 99.66 69.3466 99.0994 69.1307C98.5426 68.9186 98.0994 68.6288 97.7699 68.2614C97.4403 67.8939 97.2263 67.4811 97.1278 67.0227L99.3665 66.7216C99.4347 66.8958 99.5426 67.0587 99.6903 67.2102C99.8381 67.3617 100.033 67.483 100.276 67.5739C100.522 67.6686 100.821 67.7159 101.173 67.7159C101.7 67.7159 102.134 67.5871 102.474 67.3295C102.819 67.0758 102.991 66.6496 102.991 66.0511V64.4545H102.889C102.783 64.697 102.624 64.9261 102.412 65.142C102.2 65.358 101.927 65.5341 101.594 65.6705C101.26 65.8068 100.863 65.875 100.401 65.875C99.7453 65.875 99.1487 65.7235 98.6108 65.4205C98.0767 65.1136 97.6506 64.6458 97.3324 64.017C97.018 63.3845 96.8608 62.5852 96.8608 61.6193C96.8608 60.6307 97.0218 59.8049 97.3438 59.142C97.6657 58.4792 98.0938 57.983 98.6278 57.6534C99.1657 57.3239 99.7547 57.1591 100.395 57.1591C100.884 57.1591 101.293 57.2424 101.622 57.4091C101.952 57.572 102.217 57.7765 102.418 58.0227C102.622 58.2652 102.779 58.5038 102.889 58.7386H102.98V57.2727H105.384V66.0852C105.384 66.8277 105.202 67.4489 104.838 67.9489C104.474 68.4489 103.971 68.8239 103.327 69.0739C102.687 69.3277 101.95 69.4545 101.116 69.4545ZM101.168 64.0568C101.558 64.0568 101.887 63.9602 102.156 63.767C102.429 63.5701 102.637 63.2898 102.781 62.9261C102.929 62.5587 103.003 62.1193 103.003 61.608C103.003 61.0966 102.931 60.6534 102.787 60.2784C102.643 59.8996 102.435 59.6061 102.162 59.3977C101.889 59.1894 101.558 59.0852 101.168 59.0852C100.77 59.0852 100.435 59.1932 100.162 59.4091C99.8892 59.6212 99.6828 59.9167 99.5426 60.2955C99.4025 60.6742 99.3324 61.1117 99.3324 61.608C99.3324 62.1117 99.4025 62.5473 99.5426 62.9148C99.6866 63.2784 99.893 63.5606 100.162 63.7614C100.435 63.9583 100.77 64.0568 101.168 64.0568ZM111.287 66.1705C110.389 66.1705 109.616 65.9886 108.969 65.625C108.325 65.2576 107.829 64.7386 107.48 64.0682C107.132 63.3939 106.957 62.5966 106.957 61.6761C106.957 60.7784 107.132 59.9905 107.48 59.3125C107.829 58.6345 108.319 58.1061 108.952 57.7273C109.588 57.3485 110.334 57.1591 111.19 57.1591C111.766 57.1591 112.302 57.2519 112.798 57.4375C113.298 57.6193 113.734 57.8939 114.105 58.2614C114.48 58.6288 114.772 59.0909 114.98 59.6477C115.188 60.2008 115.293 60.8485 115.293 61.5909V62.2557H107.923V60.7557H113.014C113.014 60.4072 112.938 60.0985 112.787 59.8295C112.635 59.5606 112.425 59.3504 112.156 59.1989C111.891 59.0436 111.582 58.9659 111.23 58.9659C110.863 58.9659 110.537 59.0511 110.253 59.2216C109.973 59.3883 109.753 59.6136 109.594 59.8977C109.435 60.178 109.353 60.4905 109.349 60.8352V62.2614C109.349 62.6932 109.429 63.0663 109.588 63.3807C109.751 63.6951 109.98 63.9375 110.276 64.108C110.571 64.2784 110.921 64.3636 111.327 64.3636C111.596 64.3636 111.842 64.3258 112.065 64.25C112.289 64.1742 112.48 64.0606 112.639 63.9091C112.798 63.7576 112.92 63.572 113.003 63.3523L115.241 63.5C115.128 64.0379 114.895 64.5076 114.543 64.9091C114.194 65.3068 113.743 65.6174 113.19 65.8409C112.641 66.0606 112.007 66.1705 111.287 66.1705ZM124.143 66.1705C123.34 66.1705 122.647 66.0265 122.064 65.7386C121.481 65.4508 121.032 65.0606 120.717 64.5682C120.407 64.072 120.251 63.5189 120.251 62.9091C120.251 62.4545 120.342 62.0511 120.524 61.6989C120.706 61.3466 120.96 61.0227 121.286 60.7273C121.611 60.428 121.99 60.1307 122.422 59.8352L124.678 58.3523C124.969 58.1667 125.183 57.9716 125.32 57.767C125.456 57.5587 125.524 57.3333 125.524 57.0909C125.524 56.8598 125.431 56.6458 125.246 56.4489C125.06 56.2519 124.797 56.1553 124.456 56.1591C124.229 56.1591 124.032 56.2102 123.865 56.3125C123.698 56.411 123.568 56.5417 123.473 56.7045C123.382 56.8636 123.337 57.0417 123.337 57.2386C123.337 57.4811 123.405 57.7273 123.541 57.9773C123.678 58.2273 123.859 58.4924 124.087 58.7727C124.314 59.0492 124.562 59.3485 124.831 59.6705L130.348 66H127.825L123.223 60.875C122.92 60.5303 122.617 60.1705 122.314 59.7955C122.015 59.4167 121.765 59.0152 121.564 58.5909C121.363 58.1629 121.263 57.6989 121.263 57.1989C121.263 56.6345 121.393 56.1269 121.655 55.6761C121.92 55.2254 122.291 54.8693 122.768 54.608C123.246 54.3428 123.803 54.2102 124.439 54.2102C125.06 54.2102 125.596 54.3371 126.047 54.5909C126.501 54.8409 126.85 55.1742 127.092 55.5909C127.339 56.0038 127.462 56.4583 127.462 56.9545C127.462 57.5038 127.325 58.0019 127.053 58.4489C126.784 58.892 126.405 59.2898 125.916 59.642L123.541 61.3523C123.219 61.5871 122.981 61.8277 122.825 62.0739C122.674 62.3163 122.598 62.5492 122.598 62.7727C122.598 63.0492 122.666 63.2973 122.803 63.517C122.939 63.7367 123.132 63.911 123.382 64.0398C123.632 64.1648 123.926 64.2273 124.263 64.2273C124.672 64.2273 125.075 64.1345 125.473 63.9489C125.875 63.7595 126.238 63.4924 126.564 63.1477C126.893 62.7992 127.157 62.3864 127.354 61.9091C127.551 61.4318 127.649 60.9034 127.649 60.3239H129.655C129.655 61.036 129.577 61.678 129.422 62.25C129.267 62.8182 129.051 63.3144 128.774 63.7386C128.498 64.1591 128.181 64.5038 127.825 64.7727C127.712 64.8447 127.602 64.9129 127.496 64.9773C127.39 65.0417 127.28 65.1098 127.166 65.1818C126.734 65.5303 126.251 65.7822 125.717 65.9375C125.187 66.0928 124.662 66.1705 124.143 66.1705ZM135.105 66V54.3636H139.696C140.575 54.3636 141.325 54.5208 141.946 54.8352C142.571 55.1458 143.046 55.5871 143.372 56.1591C143.702 56.7273 143.866 57.3958 143.866 58.1648C143.866 58.9375 143.7 59.6023 143.366 60.1591C143.033 60.7121 142.55 61.1364 141.918 61.4318C141.289 61.7273 140.527 61.875 139.634 61.875H136.56V59.8977H139.236C139.705 59.8977 140.096 59.8333 140.406 59.7045C140.717 59.5758 140.948 59.3826 141.099 59.125C141.255 58.8674 141.332 58.5473 141.332 58.1648C141.332 57.7784 141.255 57.4527 141.099 57.1875C140.948 56.9223 140.715 56.7216 140.401 56.5852C140.09 56.4451 139.698 56.375 139.224 56.375H137.565V66H135.105ZM141.389 60.7045L144.281 66H141.565L138.736 60.7045H141.389ZM149.396 66.1705C148.499 66.1705 147.726 65.9886 147.078 65.625C146.434 65.2576 145.938 64.7386 145.589 64.0682C145.241 63.3939 145.067 62.5966 145.067 61.6761C145.067 60.7784 145.241 59.9905 145.589 59.3125C145.938 58.6345 146.429 58.1061 147.061 57.7273C147.697 57.3485 148.444 57.1591 149.3 57.1591C149.875 57.1591 150.411 57.2519 150.908 57.4375C151.408 57.6193 151.843 57.8939 152.214 58.2614C152.589 58.6288 152.881 59.0909 153.089 59.6477C153.298 60.2008 153.402 60.8485 153.402 61.5909V62.2557H146.033V60.7557H151.124C151.124 60.4072 151.048 60.0985 150.896 59.8295C150.745 59.5606 150.535 59.3504 150.266 59.1989C150 59.0436 149.692 58.9659 149.339 58.9659C148.972 58.9659 148.646 59.0511 148.362 59.2216C148.082 59.3883 147.862 59.6136 147.703 59.8977C147.544 60.178 147.463 60.4905 147.459 60.8352V62.2614C147.459 62.6932 147.538 63.0663 147.697 63.3807C147.86 63.6951 148.089 63.9375 148.385 64.108C148.68 64.2784 149.031 64.3636 149.436 64.3636C149.705 64.3636 149.951 64.3258 150.175 64.25C150.398 64.1742 150.589 64.0606 150.749 63.9091C150.908 63.7576 151.029 63.572 151.112 63.3523L153.351 63.5C153.237 64.0379 153.004 64.5076 152.652 64.9091C152.304 65.3068 151.853 65.6174 151.3 65.8409C150.75 66.0606 150.116 66.1705 149.396 66.1705ZM158.925 66.1705C158.031 66.1705 157.262 65.9811 156.618 65.6023C155.978 65.2197 155.485 64.6894 155.141 64.0114C154.8 63.3333 154.629 62.553 154.629 61.6705C154.629 60.7765 154.802 59.9924 155.146 59.3182C155.495 58.6402 155.989 58.1117 156.629 57.733C157.269 57.3504 158.031 57.1591 158.913 57.1591C159.675 57.1591 160.341 57.2973 160.913 57.5739C161.485 57.8504 161.938 58.2386 162.271 58.7386C162.605 59.2386 162.788 59.8258 162.822 60.5H160.538C160.474 60.0644 160.304 59.714 160.027 59.4489C159.754 59.1799 159.396 59.0455 158.953 59.0455C158.578 59.0455 158.25 59.1477 157.97 59.3523C157.694 59.553 157.478 59.8466 157.322 60.233C157.167 60.6193 157.089 61.0871 157.089 61.6364C157.089 62.1932 157.165 62.6667 157.317 63.0568C157.472 63.447 157.69 63.7443 157.97 63.9489C158.25 64.1534 158.578 64.2557 158.953 64.2557C159.23 64.2557 159.478 64.1989 159.697 64.0852C159.921 63.9716 160.105 63.8068 160.249 63.5909C160.396 63.3712 160.493 63.108 160.538 62.8011H162.822C162.785 63.4678 162.603 64.0549 162.277 64.5625C161.955 65.0663 161.51 65.4602 160.942 65.7443C160.374 66.0284 159.701 66.1705 158.925 66.1705ZM164.372 66V57.2727H166.793V66H164.372ZM165.588 56.1477C165.228 56.1477 164.92 56.0284 164.662 55.7898C164.408 55.5473 164.281 55.2576 164.281 54.9205C164.281 54.5871 164.408 54.3011 164.662 54.0625C164.92 53.8201 165.228 53.6989 165.588 53.6989C165.948 53.6989 166.255 53.8201 166.509 54.0625C166.766 54.3011 166.895 54.5871 166.895 54.9205C166.895 55.2576 166.766 55.5473 166.509 55.7898C166.255 56.0284 165.948 56.1477 165.588 56.1477ZM168.732 69.2727V57.2727H171.118V58.7386H171.226C171.332 58.5038 171.485 58.2652 171.686 58.0227C171.891 57.7765 172.156 57.572 172.482 57.4091C172.811 57.2424 173.22 57.1591 173.709 57.1591C174.345 57.1591 174.932 57.3258 175.47 57.6591C176.008 57.9886 176.438 58.4867 176.76 59.1534C177.082 59.8163 177.243 60.6477 177.243 61.6477C177.243 62.6212 177.086 63.4432 176.771 64.1136C176.461 64.7803 176.036 65.286 175.499 65.6307C174.964 65.9716 174.366 66.142 173.703 66.142C173.233 66.142 172.834 66.0644 172.504 65.9091C172.179 65.7538 171.911 65.5587 171.703 65.3239C171.495 65.0852 171.336 64.8447 171.226 64.6023H171.152V69.2727H168.732ZM171.101 61.6364C171.101 62.1553 171.173 62.608 171.317 62.9943C171.461 63.3807 171.669 63.6818 171.942 63.8977C172.214 64.1098 172.546 64.2159 172.936 64.2159C173.33 64.2159 173.663 64.108 173.936 63.892C174.209 63.6723 174.415 63.3693 174.555 62.983C174.699 62.5928 174.771 62.1439 174.771 61.6364C174.771 61.1326 174.701 60.6894 174.561 60.3068C174.421 59.9242 174.214 59.625 173.942 59.4091C173.669 59.1932 173.334 59.0852 172.936 59.0852C172.542 59.0852 172.209 59.1894 171.936 59.3977C171.667 59.6061 171.461 59.9015 171.317 60.2841C171.173 60.6667 171.101 61.1174 171.101 61.6364ZM182.834 66.1705C181.936 66.1705 181.163 65.9886 180.516 65.625C179.872 65.2576 179.375 64.7386 179.027 64.0682C178.679 63.3939 178.504 62.5966 178.504 61.6761C178.504 60.7784 178.679 59.9905 179.027 59.3125C179.375 58.6345 179.866 58.1061 180.499 57.7273C181.135 57.3485 181.881 57.1591 182.737 57.1591C183.313 57.1591 183.849 57.2519 184.345 57.4375C184.845 57.6193 185.281 57.8939 185.652 58.2614C186.027 58.6288 186.319 59.0909 186.527 59.6477C186.735 60.2008 186.839 60.8485 186.839 61.5909V62.2557H179.47V60.7557H184.561C184.561 60.4072 184.485 60.0985 184.334 59.8295C184.182 59.5606 183.972 59.3504 183.703 59.1989C183.438 59.0436 183.129 58.9659 182.777 58.9659C182.41 58.9659 182.084 59.0511 181.8 59.2216C181.519 59.3883 181.3 59.6136 181.141 59.8977C180.982 60.178 180.9 60.4905 180.896 60.8352V62.2614C180.896 62.6932 180.976 63.0663 181.135 63.3807C181.298 63.6951 181.527 63.9375 181.822 64.108C182.118 64.2784 182.468 64.3636 182.874 64.3636C183.143 64.3636 183.389 64.3258 183.612 64.25C183.836 64.1742 184.027 64.0606 184.186 63.9091C184.345 63.7576 184.466 63.572 184.55 63.3523L186.788 63.5C186.675 64.0379 186.442 64.5076 186.089 64.9091C185.741 65.3068 185.29 65.6174 184.737 65.8409C184.188 66.0606 183.554 66.1705 182.834 66.1705ZM1.01136 85V73.3636H5.60227C6.48106 73.3636 7.23106 73.5208 7.85227 73.8352C8.47727 74.1458 8.95265 74.5871 9.27841 75.1591C9.60795 75.7273 9.77273 76.3958 9.77273 77.1648C9.77273 77.9375 9.60606 78.6023 9.27273 79.1591C8.93939 79.7121 8.45644 80.1364 7.82386 80.4318C7.19508 80.7273 6.43371 80.875 5.53977 80.875H2.46591V78.8977H5.14205C5.61174 78.8977 6.00189 78.8333 6.3125 78.7045C6.62311 78.5758 6.85417 78.3826 7.00568 78.125C7.16098 77.8674 7.23864 77.5473 7.23864 77.1648C7.23864 76.7784 7.16098 76.4527 7.00568 76.1875C6.85417 75.9223 6.62121 75.7216 6.30682 75.5852C5.99621 75.4451 5.60417 75.375 5.13068 75.375H3.47159V85H1.01136ZM7.29545 79.7045L10.1875 85H7.47159L4.64205 79.7045H7.29545ZM15.3026 85.1705C14.4048 85.1705 13.6321 84.9886 12.9844 84.625C12.3404 84.2576 11.8442 83.7386 11.4957 83.0682C11.1473 82.3939 10.973 81.5966 10.973 80.6761C10.973 79.7784 11.1473 78.9905 11.4957 78.3125C11.8442 77.6345 12.3348 77.1061 12.9673 76.7273C13.6037 76.3485 14.3499 76.1591 15.206 76.1591C15.7817 76.1591 16.3177 76.2519 16.8139 76.4375C17.3139 76.6193 17.7495 76.8939 18.1207 77.2614C18.4957 77.6288 18.7874 78.0909 18.9957 78.6477C19.2041 79.2008 19.3082 79.8485 19.3082 80.5909V81.2557H11.9389V79.7557H17.0298C17.0298 79.4072 16.9541 79.0985 16.8026 78.8295C16.651 78.5606 16.4408 78.3504 16.1719 78.1989C15.9067 78.0436 15.598 77.9659 15.2457 77.9659C14.8783 77.9659 14.5526 78.0511 14.2685 78.2216C13.9882 78.3883 13.7685 78.6136 13.6094 78.8977C13.4503 79.178 13.3688 79.4905 13.3651 79.8352V81.2614C13.3651 81.6932 13.4446 82.0663 13.6037 82.3807C13.7666 82.6951 13.9957 82.9375 14.2912 83.108C14.5866 83.2784 14.937 83.3636 15.3423 83.3636C15.6113 83.3636 15.8575 83.3258 16.081 83.25C16.3045 83.1742 16.4957 83.0606 16.6548 82.9091C16.8139 82.7576 16.9351 82.572 17.0185 82.3523L19.2571 82.5C19.1435 83.0379 18.9105 83.5076 18.5582 83.9091C18.2098 84.3068 17.759 84.6174 17.206 84.8409C16.6567 85.0606 16.0223 85.1705 15.3026 85.1705ZM24.831 85.1705C23.937 85.1705 23.1681 84.9811 22.5241 84.6023C21.884 84.2197 21.3916 83.6894 21.0469 83.0114C20.706 82.3333 20.5355 81.553 20.5355 80.6705C20.5355 79.7765 20.7079 78.9924 21.0526 78.3182C21.401 77.6402 21.8954 77.1117 22.5355 76.733C23.1757 76.3504 23.937 76.1591 24.8196 76.1591C25.581 76.1591 26.2476 76.2973 26.8196 76.5739C27.3916 76.8504 27.8442 77.2386 28.1776 77.7386C28.5109 78.2386 28.6946 78.8258 28.7287 79.5H26.4446C26.3802 79.0644 26.2098 78.714 25.9332 78.4489C25.6605 78.1799 25.3026 78.0455 24.8594 78.0455C24.4844 78.0455 24.1567 78.1477 23.8764 78.3523C23.5999 78.553 23.384 78.8466 23.2287 79.233C23.0734 79.6193 22.9957 80.0871 22.9957 80.6364C22.9957 81.1932 23.0715 81.6667 23.223 82.0568C23.3783 82.447 23.5961 82.7443 23.8764 82.9489C24.1567 83.1534 24.4844 83.2557 24.8594 83.2557C25.1359 83.2557 25.384 83.1989 25.6037 83.0852C25.8272 82.9716 26.0109 82.8068 26.1548 82.5909C26.3026 82.3712 26.3991 82.108 26.4446 81.8011H28.7287C28.6908 82.4678 28.509 83.0549 28.1832 83.5625C27.8613 84.0663 27.4162 84.4602 26.848 84.7443C26.2798 85.0284 25.6075 85.1705 24.831 85.1705ZM34.2216 85.1705C33.339 85.1705 32.5758 84.983 31.9318 84.608C31.2917 84.2292 30.7973 83.7027 30.4489 83.0284C30.1004 82.3504 29.9261 81.5644 29.9261 80.6705C29.9261 79.7689 30.1004 78.9811 30.4489 78.3068C30.7973 77.6288 31.2917 77.1023 31.9318 76.7273C32.5758 76.3485 33.339 76.1591 34.2216 76.1591C35.1042 76.1591 35.8655 76.3485 36.5057 76.7273C37.1496 77.1023 37.6458 77.6288 37.9943 78.3068C38.3428 78.9811 38.517 79.7689 38.517 80.6705C38.517 81.5644 38.3428 82.3504 37.9943 83.0284C37.6458 83.7027 37.1496 84.2292 36.5057 84.608C35.8655 84.983 35.1042 85.1705 34.2216 85.1705ZM34.233 83.2955C34.6345 83.2955 34.9697 83.1818 35.2386 82.9545C35.5076 82.7235 35.7102 82.4091 35.8466 82.0114C35.9867 81.6136 36.0568 81.161 36.0568 80.6534C36.0568 80.1458 35.9867 79.6932 35.8466 79.2955C35.7102 78.8977 35.5076 78.5833 35.2386 78.3523C34.9697 78.1212 34.6345 78.0057 34.233 78.0057C33.8277 78.0057 33.4867 78.1212 33.2102 78.3523C32.9375 78.5833 32.7311 78.8977 32.5909 79.2955C32.4545 79.6932 32.3864 80.1458 32.3864 80.6534C32.3864 81.161 32.4545 81.6136 32.5909 82.0114C32.7311 82.4091 32.9375 82.7235 33.2102 82.9545C33.4867 83.1818 33.8277 83.2955 34.233 83.2955ZM40.0909 85V76.2727H42.3977V77.8125H42.5C42.6818 77.3011 42.9848 76.8977 43.4091 76.6023C43.8333 76.3068 44.3409 76.1591 44.9318 76.1591C45.5303 76.1591 46.0398 76.3087 46.4602 76.608C46.8807 76.9034 47.161 77.3049 47.3011 77.8125H47.392C47.5701 77.3125 47.892 76.9129 48.358 76.6136C48.8277 76.3106 49.3826 76.1591 50.0227 76.1591C50.8371 76.1591 51.4981 76.4186 52.0057 76.9375C52.517 77.4527 52.7727 78.1837 52.7727 79.1307V85H50.358V79.608C50.358 79.1231 50.2292 78.7595 49.9716 78.517C49.714 78.2746 49.392 78.1534 49.0057 78.1534C48.5663 78.1534 48.2235 78.2936 47.9773 78.5739C47.7311 78.8504 47.608 79.2159 47.608 79.6705V85H45.2614V79.5568C45.2614 79.1288 45.1383 78.7879 44.892 78.5341C44.6496 78.2803 44.3295 78.1534 43.9318 78.1534C43.6629 78.1534 43.4205 78.2216 43.2045 78.358C42.9924 78.4905 42.8239 78.678 42.6989 78.9205C42.5739 79.1591 42.5114 79.4394 42.5114 79.7614V85H40.0909ZM54.6847 85V76.2727H56.9915V77.8125H57.0938C57.2756 77.3011 57.5786 76.8977 58.0028 76.6023C58.4271 76.3068 58.9347 76.1591 59.5256 76.1591C60.1241 76.1591 60.6335 76.3087 61.054 76.608C61.4744 76.9034 61.7547 77.3049 61.8949 77.8125H61.9858C62.1638 77.3125 62.4858 76.9129 62.9517 76.6136C63.4214 76.3106 63.9763 76.1591 64.6165 76.1591C65.4309 76.1591 66.0919 76.4186 66.5994 76.9375C67.1108 77.4527 67.3665 78.1837 67.3665 79.1307V85H64.9517V79.608C64.9517 79.1231 64.8229 78.7595 64.5653 78.517C64.3078 78.2746 63.9858 78.1534 63.5994 78.1534C63.16 78.1534 62.8172 78.2936 62.571 78.5739C62.3248 78.8504 62.2017 79.2159 62.2017 79.6705V85H59.8551V79.5568C59.8551 79.1288 59.732 78.7879 59.4858 78.5341C59.2434 78.2803 58.9233 78.1534 58.5256 78.1534C58.2566 78.1534 58.0142 78.2216 57.7983 78.358C57.5862 78.4905 57.4176 78.678 57.2926 78.9205C57.1676 79.1591 57.1051 79.4394 57.1051 79.7614V85H54.6847ZM73.2557 85.1705C72.358 85.1705 71.5852 84.9886 70.9375 84.625C70.2936 84.2576 69.7973 83.7386 69.4489 83.0682C69.1004 82.3939 68.9261 81.5966 68.9261 80.6761C68.9261 79.7784 69.1004 78.9905 69.4489 78.3125C69.7973 77.6345 70.2879 77.1061 70.9205 76.7273C71.5568 76.3485 72.303 76.1591 73.1591 76.1591C73.7348 76.1591 74.2708 76.2519 74.767 76.4375C75.267 76.6193 75.7027 76.8939 76.0739 77.2614C76.4489 77.6288 76.7405 78.0909 76.9489 78.6477C77.1572 79.2008 77.2614 79.8485 77.2614 80.5909V81.2557H69.892V79.7557H74.983C74.983 79.4072 74.9072 79.0985 74.7557 78.8295C74.6042 78.5606 74.3939 78.3504 74.125 78.1989C73.8598 78.0436 73.5511 77.9659 73.1989 77.9659C72.8314 77.9659 72.5057 78.0511 72.2216 78.2216C71.9413 78.3883 71.7216 78.6136 71.5625 78.8977C71.4034 79.178 71.322 79.4905 71.3182 79.8352V81.2614C71.3182 81.6932 71.3977 82.0663 71.5568 82.3807C71.7197 82.6951 71.9489 82.9375 72.2443 83.108C72.5398 83.2784 72.8902 83.3636 73.2955 83.3636C73.5644 83.3636 73.8106 83.3258 74.0341 83.25C74.2576 83.1742 74.4489 83.0606 74.608 82.9091C74.767 82.7576 74.8883 82.572 74.9716 82.3523L77.2102 82.5C77.0966 83.0379 76.8636 83.5076 76.5114 83.9091C76.1629 84.3068 75.7121 84.6174 75.1591 84.8409C74.6098 85.0606 73.9754 85.1705 73.2557 85.1705ZM81.2614 79.9545V85H78.8409V76.2727H81.1477V77.8125H81.25C81.4432 77.3049 81.767 76.9034 82.2216 76.608C82.6761 76.3087 83.2273 76.1591 83.875 76.1591C84.4811 76.1591 85.0095 76.2917 85.4602 76.5568C85.911 76.822 86.2614 77.2008 86.5114 77.6932C86.7614 78.1818 86.8864 78.7652 86.8864 79.4432V85H84.4659V79.875C84.4697 79.3409 84.3333 78.9242 84.0568 78.625C83.7803 78.322 83.3996 78.1705 82.9148 78.1705C82.589 78.1705 82.3011 78.2405 82.0511 78.3807C81.8049 78.5208 81.6117 78.7254 81.4716 78.9943C81.3352 79.2595 81.2652 79.5795 81.2614 79.9545ZM92.0099 85.142C91.3471 85.142 90.7467 84.9716 90.2088 84.6307C89.6747 84.286 89.2505 83.7803 88.9361 83.1136C88.6255 82.4432 88.4702 81.6212 88.4702 80.6477C88.4702 79.6477 88.6312 78.8163 88.9531 78.1534C89.2751 77.4867 89.7031 76.9886 90.2372 76.6591C90.7751 76.3258 91.3641 76.1591 92.0043 76.1591C92.4929 76.1591 92.9001 76.2424 93.2259 76.4091C93.5554 76.572 93.8205 76.7765 94.0213 77.0227C94.2259 77.2652 94.3812 77.5038 94.4872 77.7386H94.5611V73.3636H96.9759V85H94.5895V83.6023H94.4872C94.3736 83.8447 94.2126 84.0852 94.0043 84.3239C93.7997 84.5587 93.5327 84.7538 93.2031 84.9091C92.8774 85.0644 92.4796 85.142 92.0099 85.142ZM92.777 83.2159C93.1671 83.2159 93.4967 83.1098 93.7656 82.8977C94.0384 82.6818 94.2467 82.3807 94.3906 81.9943C94.5384 81.608 94.6122 81.1553 94.6122 80.6364C94.6122 80.1174 94.5402 79.6667 94.3963 79.2841C94.2524 78.9015 94.044 78.6061 93.7713 78.3977C93.4986 78.1894 93.1671 78.0852 92.777 78.0852C92.3793 78.0852 92.044 78.1932 91.7713 78.4091C91.4986 78.625 91.2921 78.9242 91.152 79.3068C91.0118 79.6894 90.9418 80.1326 90.9418 80.6364C90.9418 81.1439 91.0118 81.5928 91.152 81.983C91.2959 82.3693 91.5024 82.6723 91.7713 82.892C92.044 83.108 92.3793 83.2159 92.777 83.2159ZM102.943 85.1705C102.045 85.1705 101.273 84.9886 100.625 84.625C99.9811 84.2576 99.4848 83.7386 99.1364 83.0682C98.7879 82.3939 98.6136 81.5966 98.6136 80.6761C98.6136 79.7784 98.7879 78.9905 99.1364 78.3125C99.4848 77.6345 99.9754 77.1061 100.608 76.7273C101.244 76.3485 101.991 76.1591 102.847 76.1591C103.422 76.1591 103.958 76.2519 104.455 76.4375C104.955 76.6193 105.39 76.8939 105.761 77.2614C106.136 77.6288 106.428 78.0909 106.636 78.6477C106.845 79.2008 106.949 79.8485 106.949 80.5909V81.2557H99.5795V79.7557H104.67C104.67 79.4072 104.595 79.0985 104.443 78.8295C104.292 78.5606 104.081 78.3504 103.812 78.1989C103.547 78.0436 103.239 77.9659 102.886 77.9659C102.519 77.9659 102.193 78.0511 101.909 78.2216C101.629 78.3883 101.409 78.6136 101.25 78.8977C101.091 79.178 101.009 79.4905 101.006 79.8352V81.2614C101.006 81.6932 101.085 82.0663 101.244 82.3807C101.407 82.6951 101.636 82.9375 101.932 83.108C102.227 83.2784 102.578 83.3636 102.983 83.3636C103.252 83.3636 103.498 83.3258 103.722 83.25C103.945 83.1742 104.136 83.0606 104.295 82.9091C104.455 82.7576 104.576 82.572 104.659 82.3523L106.898 82.5C106.784 83.0379 106.551 83.5076 106.199 83.9091C105.85 84.3068 105.4 84.6174 104.847 84.8409C104.297 85.0606 103.663 85.1705 102.943 85.1705ZM108.528 85V76.2727H110.875V77.7955H110.966C111.125 77.2538 111.392 76.8447 111.767 76.5682C112.142 76.2879 112.574 76.1477 113.062 76.1477C113.184 76.1477 113.314 76.1553 113.455 76.1705C113.595 76.1856 113.718 76.2064 113.824 76.233V78.3807C113.71 78.3466 113.553 78.3163 113.352 78.2898C113.152 78.2633 112.968 78.25 112.801 78.25C112.445 78.25 112.127 78.3277 111.847 78.483C111.57 78.6345 111.35 78.8466 111.188 79.1193C111.028 79.392 110.949 79.7064 110.949 80.0625V85H108.528Z" fill="#2A3647"/>
<path d="M1.40909 112V100.364H5.47727C6.28788 100.364 6.95644 100.504 7.48295 100.784C8.00947 101.061 8.40152 101.434 8.65909 101.903C8.91667 102.369 9.04545 102.886 9.04545 103.455C9.04545 103.955 8.95644 104.367 8.77841 104.693C8.60417 105.019 8.37311 105.277 8.08523 105.466C7.80114 105.655 7.49242 105.795 7.15909 105.886V106C7.51515 106.023 7.87311 106.148 8.23295 106.375C8.5928 106.602 8.89394 106.928 9.13636 107.352C9.37879 107.777 9.5 108.295 9.5 108.909C9.5 109.492 9.36742 110.017 9.10227 110.483C8.83712 110.949 8.41856 111.318 7.84659 111.591C7.27462 111.864 6.5303 112 5.61364 112H1.40909ZM2.81818 110.75H5.61364C6.53409 110.75 7.1875 110.572 7.57386 110.216C7.96402 109.856 8.15909 109.42 8.15909 108.909C8.15909 108.515 8.05871 108.152 7.85795 107.818C7.6572 107.481 7.37121 107.212 7 107.011C6.62879 106.807 6.18939 106.705 5.68182 106.705H2.81818V110.75ZM2.81818 105.477H5.43182C5.85606 105.477 6.23864 105.394 6.57955 105.227C6.92424 105.061 7.19697 104.826 7.39773 104.523C7.60227 104.22 7.70455 103.864 7.70455 103.455C7.70455 102.943 7.52652 102.509 7.17045 102.153C6.81439 101.794 6.25 101.614 5.47727 101.614H2.81818V105.477ZM17.1335 108.432V103.273H18.4744V112H17.1335V110.523H17.0426C16.8381 110.966 16.5199 111.343 16.0881 111.653C15.6563 111.96 15.1108 112.114 14.4517 112.114C13.9062 112.114 13.4214 111.994 12.9972 111.756C12.5729 111.513 12.2396 111.15 11.9972 110.665C11.7547 110.176 11.6335 109.561 11.6335 108.818V103.273H12.9744V108.727C12.9744 109.364 13.1525 109.871 13.5085 110.25C13.8684 110.629 14.3267 110.818 14.8835 110.818C15.2169 110.818 15.5559 110.733 15.9006 110.562C16.2491 110.392 16.5407 110.131 16.7756 109.778C17.0142 109.426 17.1335 108.977 17.1335 108.432ZM20.9304 112V103.273H22.2713V112H20.9304ZM21.6122 101.818C21.3509 101.818 21.1255 101.729 20.9361 101.551C20.7505 101.373 20.6577 101.159 20.6577 100.909C20.6577 100.659 20.7505 100.445 20.9361 100.267C21.1255 100.089 21.3509 100 21.6122 100C21.8736 100 22.0971 100.089 22.2827 100.267C22.4721 100.445 22.5668 100.659 22.5668 100.909C22.5668 101.159 22.4721 101.373 22.2827 101.551C22.0971 101.729 21.8736 101.818 21.6122 101.818ZM26.0682 100.364V112H24.7273V100.364H26.0682ZM31.8196 112.182C31.0923 112.182 30.4503 111.998 29.8935 111.631C29.3366 111.259 28.901 110.737 28.5866 110.062C28.2723 109.384 28.1151 108.583 28.1151 107.659C28.1151 106.742 28.2723 105.947 28.5866 105.273C28.901 104.598 29.3385 104.078 29.8991 103.71C30.4598 103.343 31.1075 103.159 31.8423 103.159C32.4105 103.159 32.8594 103.254 33.1889 103.443C33.5223 103.629 33.776 103.841 33.9503 104.08C34.1283 104.314 34.2666 104.508 34.3651 104.659H34.4787V100.364H35.8196V112H34.5241V110.659H34.3651C34.2666 110.818 34.1264 111.019 33.9446 111.261C33.7628 111.5 33.5033 111.714 33.1662 111.903C32.8291 112.089 32.3802 112.182 31.8196 112.182ZM32.0014 110.977C32.5393 110.977 32.9938 110.837 33.3651 110.557C33.7363 110.273 34.0185 109.881 34.2116 109.381C34.4048 108.877 34.5014 108.295 34.5014 107.636C34.5014 106.985 34.4067 106.415 34.2173 105.926C34.0279 105.434 33.7476 105.051 33.3764 104.778C33.0052 104.502 32.5469 104.364 32.0014 104.364C31.4332 104.364 30.9598 104.509 30.581 104.801C30.206 105.089 29.9238 105.481 29.7344 105.977C29.5488 106.47 29.456 107.023 29.456 107.636C29.456 108.258 29.5507 108.822 29.7401 109.33C29.9332 109.833 30.2173 110.235 30.5923 110.534C30.9711 110.83 31.4408 110.977 32.0014 110.977ZM49.1435 105.227L47.9389 105.568C47.8632 105.367 47.7514 105.172 47.6037 104.983C47.4598 104.79 47.2628 104.631 47.0128 104.506C46.7628 104.381 46.4427 104.318 46.0526 104.318C45.5185 104.318 45.0734 104.441 44.7173 104.688C44.3651 104.93 44.1889 105.239 44.1889 105.614C44.1889 105.947 44.3101 106.21 44.5526 106.403C44.795 106.597 45.1738 106.758 45.6889 106.886L46.9844 107.205C47.7647 107.394 48.3461 107.684 48.7287 108.074C49.1113 108.46 49.3026 108.958 49.3026 109.568C49.3026 110.068 49.1586 110.515 48.8707 110.909C48.5866 111.303 48.1889 111.614 47.6776 111.841C47.1662 112.068 46.5715 112.182 45.8935 112.182C45.0033 112.182 44.2666 111.989 43.6832 111.602C43.0999 111.216 42.7306 110.652 42.5753 109.909L43.848 109.591C43.9692 110.061 44.1984 110.413 44.5355 110.648C44.8764 110.883 45.3215 111 45.8707 111C46.4957 111 46.992 110.867 47.3594 110.602C47.7306 110.333 47.9162 110.011 47.9162 109.636C47.9162 109.333 47.8101 109.08 47.598 108.875C47.3859 108.667 47.0601 108.511 46.6207 108.409L45.1662 108.068C44.367 107.879 43.7798 107.585 43.4048 107.188C43.0336 106.786 42.848 106.284 42.848 105.682C42.848 105.189 42.9863 104.754 43.2628 104.375C43.5431 103.996 43.9238 103.699 44.4048 103.483C44.8897 103.267 45.4389 103.159 46.0526 103.159C46.9162 103.159 47.5942 103.348 48.0866 103.727C48.5829 104.106 48.9351 104.606 49.1435 105.227ZM55.1165 103.273V104.409H50.5938V103.273H55.1165ZM51.9119 101.182H53.2528V109.5C53.2528 109.879 53.3078 110.163 53.4176 110.352C53.5313 110.538 53.6752 110.663 53.8494 110.727C54.0275 110.788 54.215 110.818 54.4119 110.818C54.5597 110.818 54.6809 110.811 54.7756 110.795C54.8703 110.777 54.946 110.761 55.0028 110.75L55.2756 111.955C55.1847 111.989 55.0578 112.023 54.8949 112.057C54.732 112.095 54.5256 112.114 54.2756 112.114C53.8968 112.114 53.5256 112.032 53.1619 111.869C52.8021 111.706 52.5028 111.458 52.2642 111.125C52.0294 110.792 51.9119 110.371 51.9119 109.864V101.182ZM59.7017 112.205C59.1487 112.205 58.6468 112.1 58.196 111.892C57.7453 111.68 57.3873 111.375 57.1222 110.977C56.857 110.576 56.7244 110.091 56.7244 109.523C56.7244 109.023 56.8229 108.617 57.0199 108.307C57.2169 107.992 57.4801 107.746 57.8097 107.568C58.1392 107.39 58.5028 107.258 58.9006 107.17C59.3021 107.08 59.7055 107.008 60.1108 106.955C60.6411 106.886 61.071 106.835 61.4006 106.801C61.7339 106.763 61.9763 106.701 62.1278 106.614C62.2831 106.527 62.3608 106.375 62.3608 106.159V106.114C62.3608 105.553 62.2074 105.117 61.9006 104.807C61.5975 104.496 61.1373 104.341 60.5199 104.341C59.8797 104.341 59.3778 104.481 59.0142 104.761C58.6506 105.042 58.3949 105.341 58.2472 105.659L56.9744 105.205C57.2017 104.674 57.5047 104.261 57.8835 103.966C58.2661 103.667 58.6828 103.458 59.1335 103.341C59.5881 103.22 60.035 103.159 60.4744 103.159C60.7547 103.159 61.0767 103.193 61.4403 103.261C61.8078 103.326 62.1619 103.46 62.5028 103.665C62.8475 103.869 63.1335 104.178 63.3608 104.591C63.5881 105.004 63.7017 105.557 63.7017 106.25V112H62.3608V110.818H62.2926C62.2017 111.008 62.0502 111.21 61.8381 111.426C61.6259 111.642 61.3438 111.826 60.9915 111.977C60.6392 112.129 60.2093 112.205 59.7017 112.205ZM59.9062 111C60.4366 111 60.8835 110.896 61.2472 110.688C61.6146 110.479 61.8911 110.21 62.0767 109.881C62.2661 109.551 62.3608 109.205 62.3608 108.841V107.614C62.304 107.682 62.179 107.744 61.9858 107.801C61.7964 107.854 61.5767 107.902 61.3267 107.943C61.0805 107.981 60.84 108.015 60.6051 108.045C60.3741 108.072 60.1866 108.095 60.0426 108.114C59.6941 108.159 59.3684 108.233 59.0653 108.335C58.7661 108.434 58.5237 108.583 58.3381 108.784C58.1563 108.981 58.0653 109.25 58.0653 109.591C58.0653 110.057 58.2377 110.409 58.5824 110.648C58.9309 110.883 59.3722 111 59.9062 111ZM66.1491 112V103.273H67.4446V104.591H67.5355C67.6946 104.159 67.9825 103.809 68.3991 103.54C68.8158 103.271 69.2855 103.136 69.8082 103.136C69.9067 103.136 70.0298 103.138 70.1776 103.142C70.3253 103.146 70.437 103.152 70.5128 103.159V104.523C70.4673 104.511 70.3632 104.494 70.2003 104.472C70.0412 104.445 69.8726 104.432 69.6946 104.432C69.2704 104.432 68.8916 104.521 68.5582 104.699C68.2287 104.873 67.9673 105.116 67.7741 105.426C67.5848 105.733 67.4901 106.083 67.4901 106.477V112H66.1491ZM76.4446 103.273V104.409H71.9219V103.273H76.4446ZM73.2401 101.182H74.581V109.5C74.581 109.879 74.6359 110.163 74.7457 110.352C74.8594 110.538 75.0033 110.663 75.1776 110.727C75.3556 110.788 75.5431 110.818 75.7401 110.818C75.8878 110.818 76.009 110.811 76.1037 110.795C76.1984 110.777 76.2741 110.761 76.331 110.75L76.6037 111.955C76.5128 111.989 76.3859 112.023 76.223 112.057C76.0601 112.095 75.8537 112.114 75.6037 112.114C75.2249 112.114 74.8537 112.032 74.4901 111.869C74.1302 111.706 73.831 111.458 73.5923 111.125C73.3575 110.792 73.2401 110.371 73.2401 109.864V101.182ZM82.9616 115.273V103.273H84.2571V104.659H84.4162C84.5147 104.508 84.651 104.314 84.8253 104.08C85.0033 103.841 85.2571 103.629 85.5866 103.443C85.92 103.254 86.3707 103.159 86.9389 103.159C87.6738 103.159 88.3215 103.343 88.8821 103.71C89.4427 104.078 89.8802 104.598 90.1946 105.273C90.509 105.947 90.6662 106.742 90.6662 107.659C90.6662 108.583 90.509 109.384 90.1946 110.062C89.8802 110.737 89.4446 111.259 88.8878 111.631C88.331 111.998 87.6889 112.182 86.9616 112.182C86.401 112.182 85.9522 112.089 85.6151 111.903C85.2779 111.714 85.0185 111.5 84.8366 111.261C84.6548 111.019 84.5147 110.818 84.4162 110.659H84.3026V115.273H82.9616ZM84.2798 107.636C84.2798 108.295 84.3764 108.877 84.5696 109.381C84.7628 109.881 85.045 110.273 85.4162 110.557C85.7874 110.837 86.242 110.977 86.7798 110.977C87.3404 110.977 87.8082 110.83 88.1832 110.534C88.562 110.235 88.8461 109.833 89.0355 109.33C89.2287 108.822 89.3253 108.258 89.3253 107.636C89.3253 107.023 89.2306 106.47 89.0412 105.977C88.8556 105.481 88.5734 105.089 88.1946 104.801C87.8196 104.509 87.348 104.364 86.7798 104.364C86.2344 104.364 85.776 104.502 85.4048 104.778C85.0336 105.051 84.7533 105.434 84.5639 105.926C84.3745 106.415 84.2798 106.985 84.2798 107.636ZM95.2798 112.205C94.7268 112.205 94.2249 112.1 93.7741 111.892C93.3234 111.68 92.9654 111.375 92.7003 110.977C92.4351 110.576 92.3026 110.091 92.3026 109.523C92.3026 109.023 92.401 108.617 92.598 108.307C92.795 107.992 93.0582 107.746 93.3878 107.568C93.7173 107.39 94.081 107.258 94.4787 107.17C94.8802 107.08 95.2836 107.008 95.6889 106.955C96.2192 106.886 96.6491 106.835 96.9787 106.801C97.312 106.763 97.5545 106.701 97.706 106.614C97.8613 106.527 97.9389 106.375 97.9389 106.159V106.114C97.9389 105.553 97.7855 105.117 97.4787 104.807C97.1757 104.496 96.7154 104.341 96.098 104.341C95.4579 104.341 94.956 104.481 94.5923 104.761C94.2287 105.042 93.973 105.341 93.8253 105.659L92.5526 105.205C92.7798 104.674 93.0829 104.261 93.4616 103.966C93.8442 103.667 94.2609 103.458 94.7116 103.341C95.1662 103.22 95.6132 103.159 96.0526 103.159C96.3329 103.159 96.6548 103.193 97.0185 103.261C97.3859 103.326 97.7401 103.46 98.081 103.665C98.4257 103.869 98.7116 104.178 98.9389 104.591C99.1662 105.004 99.2798 105.557 99.2798 106.25V112H97.9389V110.818H97.8707C97.7798 111.008 97.6283 111.21 97.4162 111.426C97.2041 111.642 96.9219 111.826 96.5696 111.977C96.2173 112.129 95.7874 112.205 95.2798 112.205ZM95.4844 111C96.0147 111 96.4616 110.896 96.8253 110.688C97.1927 110.479 97.4692 110.21 97.6548 109.881C97.8442 109.551 97.9389 109.205 97.9389 108.841V107.614C97.8821 107.682 97.7571 107.744 97.5639 107.801C97.3745 107.854 97.1548 107.902 96.9048 107.943C96.6586 107.981 96.4181 108.015 96.1832 108.045C95.9522 108.072 95.7647 108.095 95.6207 108.114C95.2723 108.159 94.9465 108.233 94.6435 108.335C94.3442 108.434 94.1018 108.583 93.9162 108.784C93.7344 108.981 93.6435 109.25 93.6435 109.591C93.6435 110.057 93.8158 110.409 94.1605 110.648C94.509 110.883 94.9503 111 95.4844 111ZM105.25 115.455C104.602 115.455 104.045 115.371 103.58 115.205C103.114 115.042 102.725 114.826 102.415 114.557C102.108 114.292 101.864 114.008 101.682 113.705L102.75 112.955C102.871 113.114 103.025 113.295 103.21 113.5C103.396 113.708 103.65 113.888 103.972 114.04C104.297 114.195 104.723 114.273 105.25 114.273C105.955 114.273 106.536 114.102 106.994 113.761C107.453 113.42 107.682 112.886 107.682 112.159V110.386H107.568C107.47 110.545 107.33 110.742 107.148 110.977C106.97 111.208 106.712 111.415 106.375 111.597C106.042 111.775 105.591 111.864 105.023 111.864C104.318 111.864 103.686 111.697 103.125 111.364C102.568 111.03 102.127 110.545 101.801 109.909C101.479 109.273 101.318 108.5 101.318 107.591C101.318 106.697 101.475 105.919 101.79 105.256C102.104 104.589 102.542 104.074 103.102 103.71C103.663 103.343 104.311 103.159 105.045 103.159C105.614 103.159 106.064 103.254 106.398 103.443C106.735 103.629 106.992 103.841 107.17 104.08C107.352 104.314 107.492 104.508 107.591 104.659H107.727V103.273H109.023V112.25C109.023 113 108.852 113.61 108.511 114.08C108.174 114.553 107.72 114.9 107.148 115.119C106.58 115.343 105.947 115.455 105.25 115.455ZM105.205 110.659C105.742 110.659 106.197 110.536 106.568 110.29C106.939 110.044 107.222 109.689 107.415 109.227C107.608 108.765 107.705 108.212 107.705 107.568C107.705 106.939 107.61 106.384 107.42 105.903C107.231 105.422 106.951 105.045 106.58 104.773C106.208 104.5 105.75 104.364 105.205 104.364C104.636 104.364 104.163 104.508 103.784 104.795C103.409 105.083 103.127 105.47 102.938 105.955C102.752 106.439 102.659 106.977 102.659 107.568C102.659 108.174 102.754 108.71 102.943 109.176C103.136 109.638 103.42 110.002 103.795 110.267C104.174 110.528 104.644 110.659 105.205 110.659ZM115.136 112.182C114.295 112.182 113.57 111.996 112.96 111.625C112.354 111.25 111.886 110.727 111.557 110.057C111.231 109.383 111.068 108.598 111.068 107.705C111.068 106.811 111.231 106.023 111.557 105.341C111.886 104.655 112.345 104.121 112.932 103.739C113.523 103.352 114.212 103.159 115 103.159C115.455 103.159 115.903 103.235 116.347 103.386C116.79 103.538 117.193 103.784 117.557 104.125C117.92 104.462 118.21 104.909 118.426 105.466C118.642 106.023 118.75 106.708 118.75 107.523V108.091H112.023V106.932H117.386C117.386 106.439 117.288 106 117.091 105.614C116.898 105.227 116.621 104.922 116.261 104.699C115.905 104.475 115.485 104.364 115 104.364C114.466 104.364 114.004 104.496 113.614 104.761C113.227 105.023 112.93 105.364 112.722 105.784C112.513 106.205 112.409 106.655 112.409 107.136V107.909C112.409 108.568 112.523 109.127 112.75 109.585C112.981 110.04 113.301 110.386 113.71 110.625C114.119 110.86 114.595 110.977 115.136 110.977C115.489 110.977 115.807 110.928 116.091 110.83C116.379 110.727 116.627 110.576 116.835 110.375C117.044 110.17 117.205 109.917 117.318 109.614L118.614 109.977C118.477 110.417 118.248 110.803 117.926 111.136C117.604 111.466 117.206 111.723 116.733 111.909C116.259 112.091 115.727 112.182 115.136 112.182ZM127.267 112L124.608 103.273H126.017L127.903 109.955H127.994L129.858 103.273H131.29L133.131 109.932H133.222L135.108 103.273H136.517L133.858 112H132.54L130.631 105.295H130.494L128.585 112H127.267ZM138.29 112V103.273H139.631V112H138.29ZM138.972 101.818C138.71 101.818 138.485 101.729 138.295 101.551C138.11 101.373 138.017 101.159 138.017 100.909C138.017 100.659 138.11 100.445 138.295 100.267C138.485 100.089 138.71 100 138.972 100C139.233 100 139.456 100.089 139.642 100.267C139.831 100.445 139.926 100.659 139.926 100.909C139.926 101.159 139.831 101.373 139.642 101.551C139.456 101.729 139.233 101.818 138.972 101.818ZM145.882 103.273V104.409H141.359V103.273H145.882ZM142.678 101.182H144.018V109.5C144.018 109.879 144.073 110.163 144.183 110.352C144.297 110.538 144.441 110.663 144.615 110.727C144.793 110.788 144.981 110.818 145.178 110.818C145.325 110.818 145.446 110.811 145.541 110.795C145.636 110.777 145.712 110.761 145.768 110.75L146.041 111.955C145.95 111.989 145.823 112.023 145.661 112.057C145.498 112.095 145.291 112.114 145.041 112.114C144.662 112.114 144.291 112.032 143.928 111.869C143.568 111.706 143.268 111.458 143.03 111.125C142.795 110.792 142.678 110.371 142.678 109.864V101.182ZM149.428 106.75V112H148.087V100.364H149.428V104.636H149.541C149.746 104.186 150.053 103.828 150.462 103.562C150.875 103.294 151.424 103.159 152.109 103.159C152.704 103.159 153.225 103.278 153.672 103.517C154.119 103.752 154.465 104.114 154.712 104.602C154.962 105.087 155.087 105.705 155.087 106.455V112H153.746V106.545C153.746 105.852 153.566 105.316 153.206 104.938C152.85 104.555 152.356 104.364 151.723 104.364C151.284 104.364 150.89 104.456 150.541 104.642C150.196 104.828 149.924 105.098 149.723 105.455C149.526 105.811 149.428 106.242 149.428 106.75ZM162.04 112V103.273H163.335V104.591H163.426C163.585 104.159 163.873 103.809 164.29 103.54C164.706 103.271 165.176 103.136 165.699 103.136C165.797 103.136 165.92 103.138 166.068 103.142C166.216 103.146 166.328 103.152 166.403 103.159V104.523C166.358 104.511 166.254 104.494 166.091 104.472C165.932 104.445 165.763 104.432 165.585 104.432C165.161 104.432 164.782 104.521 164.449 104.699C164.119 104.873 163.858 105.116 163.665 105.426C163.475 105.733 163.381 106.083 163.381 106.477V112H162.04ZM171.386 112.182C170.545 112.182 169.82 111.996 169.21 111.625C168.604 111.25 168.136 110.727 167.807 110.057C167.481 109.383 167.318 108.598 167.318 107.705C167.318 106.811 167.481 106.023 167.807 105.341C168.136 104.655 168.595 104.121 169.182 103.739C169.773 103.352 170.462 103.159 171.25 103.159C171.705 103.159 172.153 103.235 172.597 103.386C173.04 103.538 173.443 103.784 173.807 104.125C174.17 104.462 174.46 104.909 174.676 105.466C174.892 106.023 175 106.708 175 107.523V108.091H168.273V106.932H173.636C173.636 106.439 173.538 106 173.341 105.614C173.148 105.227 172.871 104.922 172.511 104.699C172.155 104.475 171.735 104.364 171.25 104.364C170.716 104.364 170.254 104.496 169.864 104.761C169.477 105.023 169.18 105.364 168.972 105.784C168.763 106.205 168.659 106.655 168.659 107.136V107.909C168.659 108.568 168.773 109.127 169 109.585C169.231 110.04 169.551 110.386 169.96 110.625C170.369 110.86 170.845 110.977 171.386 110.977C171.739 110.977 172.057 110.928 172.341 110.83C172.629 110.727 172.877 110.576 173.085 110.375C173.294 110.17 173.455 109.917 173.568 109.614L174.864 109.977C174.727 110.417 174.498 110.803 174.176 111.136C173.854 111.466 173.456 111.723 172.983 111.909C172.509 112.091 171.977 112.182 171.386 112.182ZM180.585 112.182C179.767 112.182 179.063 111.989 178.472 111.602C177.881 111.216 177.426 110.684 177.108 110.006C176.79 109.328 176.631 108.553 176.631 107.682C176.631 106.795 176.794 106.013 177.119 105.335C177.449 104.653 177.907 104.121 178.494 103.739C179.085 103.352 179.775 103.159 180.562 103.159C181.176 103.159 181.729 103.273 182.222 103.5C182.714 103.727 183.117 104.045 183.432 104.455C183.746 104.864 183.941 105.341 184.017 105.886H182.676C182.574 105.489 182.347 105.136 181.994 104.83C181.646 104.519 181.176 104.364 180.585 104.364C180.063 104.364 179.604 104.5 179.21 104.773C178.82 105.042 178.515 105.422 178.295 105.915C178.08 106.403 177.972 106.977 177.972 107.636C177.972 108.311 178.078 108.898 178.29 109.398C178.506 109.898 178.809 110.286 179.199 110.562C179.593 110.839 180.055 110.977 180.585 110.977C180.934 110.977 181.25 110.917 181.534 110.795C181.818 110.674 182.059 110.5 182.256 110.273C182.453 110.045 182.593 109.773 182.676 109.455H184.017C183.941 109.97 183.754 110.434 183.455 110.847C183.159 111.256 182.767 111.581 182.278 111.824C181.794 112.062 181.229 112.182 180.585 112.182ZM185.977 112V103.273H187.318V112H185.977ZM186.659 101.818C186.398 101.818 186.172 101.729 185.983 101.551C185.797 101.373 185.705 101.159 185.705 100.909C185.705 100.659 185.797 100.445 185.983 100.267C186.172 100.089 186.398 100 186.659 100C186.92 100 187.144 100.089 187.33 100.267C187.519 100.445 187.614 100.659 187.614 100.909C187.614 101.159 187.519 101.373 187.33 101.551C187.144 101.729 186.92 101.818 186.659 101.818ZM189.774 115.273V103.273H191.07V104.659H191.229C191.327 104.508 191.464 104.314 191.638 104.08C191.816 103.841 192.07 103.629 192.399 103.443C192.732 103.254 193.183 103.159 193.751 103.159C194.486 103.159 195.134 103.343 195.695 103.71C196.255 104.078 196.693 104.598 197.007 105.273C197.321 105.947 197.479 106.742 197.479 107.659C197.479 108.583 197.321 109.384 197.007 110.062C196.693 110.737 196.257 111.259 195.7 111.631C195.143 111.998 194.501 112.182 193.774 112.182C193.214 112.182 192.765 112.089 192.428 111.903C192.09 111.714 191.831 111.5 191.649 111.261C191.467 111.019 191.327 110.818 191.229 110.659H191.115V115.273H189.774ZM191.092 107.636C191.092 108.295 191.189 108.877 191.382 109.381C191.575 109.881 191.857 110.273 192.229 110.557C192.6 110.837 193.054 110.977 193.592 110.977C194.153 110.977 194.621 110.83 194.996 110.534C195.375 110.235 195.659 109.833 195.848 109.33C196.041 108.822 196.138 108.258 196.138 107.636C196.138 107.023 196.043 106.47 195.854 105.977C195.668 105.481 195.386 105.089 195.007 104.801C194.632 104.509 194.161 104.364 193.592 104.364C193.047 104.364 192.589 104.502 192.217 104.778C191.846 105.051 191.566 105.434 191.376 105.926C191.187 106.415 191.092 106.985 191.092 107.636ZM203.183 112.182C202.342 112.182 201.617 111.996 201.007 111.625C200.401 111.25 199.933 110.727 199.604 110.057C199.278 109.383 199.115 108.598 199.115 107.705C199.115 106.811 199.278 106.023 199.604 105.341C199.933 104.655 200.392 104.121 200.979 103.739C201.57 103.352 202.259 103.159 203.047 103.159C203.501 103.159 203.95 103.235 204.393 103.386C204.837 103.538 205.24 103.784 205.604 104.125C205.967 104.462 206.257 104.909 206.473 105.466C206.689 106.023 206.797 106.708 206.797 107.523V108.091H200.07V106.932H205.433C205.433 106.439 205.335 106 205.138 105.614C204.945 105.227 204.668 104.922 204.308 104.699C203.952 104.475 203.532 104.364 203.047 104.364C202.513 104.364 202.051 104.496 201.661 104.761C201.274 105.023 200.977 105.364 200.768 105.784C200.56 106.205 200.456 106.655 200.456 107.136V107.909C200.456 108.568 200.57 109.127 200.797 109.585C201.028 110.04 201.348 110.386 201.757 110.625C202.166 110.86 202.642 110.977 203.183 110.977C203.536 110.977 203.854 110.928 204.138 110.83C204.426 110.727 204.674 110.576 204.882 110.375C205.09 110.17 205.251 109.917 205.365 109.614L206.661 109.977C206.524 110.417 206.295 110.803 205.973 111.136C205.651 111.466 205.253 111.723 204.78 111.909C204.306 112.091 203.774 112.182 203.183 112.182ZM1.22727 131V122.273H2.52273V123.591H2.61364C2.77273 123.159 3.06061 122.809 3.47727 122.54C3.89394 122.271 4.36364 122.136 4.88636 122.136C4.98485 122.136 5.10795 122.138 5.25568 122.142C5.40341 122.146 5.51515 122.152 5.59091 122.159V123.523C5.54545 123.511 5.44129 123.494 5.27841 123.472C5.11932 123.445 4.95076 123.432 4.77273 123.432C4.34849 123.432 3.9697 123.521 3.63636 123.699C3.30682 123.873 3.04545 124.116 2.85227 124.426C2.66288 124.733 2.56818 125.083 2.56818 125.477V131H1.22727ZM10.5739 131.182C9.73295 131.182 9.00758 130.996 8.39773 130.625C7.79167 130.25 7.32386 129.727 6.99432 129.057C6.66856 128.383 6.50568 127.598 6.50568 126.705C6.50568 125.811 6.66856 125.023 6.99432 124.341C7.32386 123.655 7.7822 123.121 8.36932 122.739C8.96023 122.352 9.64962 122.159 10.4375 122.159C10.892 122.159 11.3409 122.235 11.7841 122.386C12.2273 122.538 12.6307 122.784 12.9943 123.125C13.358 123.462 13.6477 123.909 13.8636 124.466C14.0795 125.023 14.1875 125.708 14.1875 126.523V127.091H7.46023V125.932H12.8239C12.8239 125.439 12.7254 125 12.5284 124.614C12.3352 124.227 12.0587 123.922 11.6989 123.699C11.3428 123.475 10.9223 123.364 10.4375 123.364C9.90341 123.364 9.44129 123.496 9.05114 123.761C8.66477 124.023 8.36742 124.364 8.15909 124.784C7.95076 125.205 7.84659 125.655 7.84659 126.136V126.909C7.84659 127.568 7.96023 128.127 8.1875 128.585C8.41856 129.04 8.73864 129.386 9.14773 129.625C9.55682 129.86 10.0322 129.977 10.5739 129.977C10.9261 129.977 11.2443 129.928 11.5284 129.83C11.8163 129.727 12.0644 129.576 12.2727 129.375C12.4811 129.17 12.642 128.917 12.7557 128.614L14.0511 128.977C13.9148 129.417 13.6856 129.803 13.3636 130.136C13.0417 130.466 12.6439 130.723 12.1705 130.909C11.697 131.091 11.1648 131.182 10.5739 131.182ZM19.7727 131.182C18.9545 131.182 18.25 130.989 17.6591 130.602C17.0682 130.216 16.6136 129.684 16.2955 129.006C15.9773 128.328 15.8182 127.553 15.8182 126.682C15.8182 125.795 15.9811 125.013 16.3068 124.335C16.6364 123.653 17.0947 123.121 17.6818 122.739C18.2727 122.352 18.9621 122.159 19.75 122.159C20.3636 122.159 20.9167 122.273 21.4091 122.5C21.9015 122.727 22.3049 123.045 22.6193 123.455C22.9337 123.864 23.1288 124.341 23.2045 124.886H21.8636C21.7614 124.489 21.5341 124.136 21.1818 123.83C20.8333 123.519 20.3636 123.364 19.7727 123.364C19.25 123.364 18.7917 123.5 18.3977 123.773C18.0076 124.042 17.7027 124.422 17.483 124.915C17.267 125.403 17.1591 125.977 17.1591 126.636C17.1591 127.311 17.2652 127.898 17.4773 128.398C17.6932 128.898 17.9962 129.286 18.3864 129.562C18.7803 129.839 19.2424 129.977 19.7727 129.977C20.1212 129.977 20.4375 129.917 20.7216 129.795C21.0057 129.674 21.2462 129.5 21.4432 129.273C21.6402 129.045 21.7803 128.773 21.8636 128.455H23.2045C23.1288 128.97 22.9413 129.434 22.642 129.847C22.3466 130.256 21.9545 130.581 21.4659 130.824C20.9811 131.062 20.4167 131.182 19.7727 131.182ZM28.7102 131.182C27.9223 131.182 27.2311 130.994 26.6364 130.619C26.0455 130.244 25.5833 129.72 25.25 129.045C24.9205 128.371 24.7557 127.583 24.7557 126.682C24.7557 125.773 24.9205 124.979 25.25 124.301C25.5833 123.623 26.0455 123.097 26.6364 122.722C27.2311 122.347 27.9223 122.159 28.7102 122.159C29.4981 122.159 30.1875 122.347 30.7784 122.722C31.3731 123.097 31.8352 123.623 32.1648 124.301C32.4981 124.979 32.6648 125.773 32.6648 126.682C32.6648 127.583 32.4981 128.371 32.1648 129.045C31.8352 129.72 31.3731 130.244 30.7784 130.619C30.1875 130.994 29.4981 131.182 28.7102 131.182ZM28.7102 129.977C29.3087 129.977 29.8011 129.824 30.1875 129.517C30.5739 129.21 30.8598 128.807 31.0455 128.307C31.2311 127.807 31.3239 127.265 31.3239 126.682C31.3239 126.098 31.2311 125.555 31.0455 125.051C30.8598 124.547 30.5739 124.14 30.1875 123.83C29.8011 123.519 29.3087 123.364 28.7102 123.364C28.1117 123.364 27.6193 123.519 27.233 123.83C26.8466 124.14 26.5606 124.547 26.375 125.051C26.1894 125.555 26.0966 126.098 26.0966 126.682C26.0966 127.265 26.1894 127.807 26.375 128.307C26.5606 128.807 26.8466 129.21 27.233 129.517C27.6193 129.824 28.1117 129.977 28.7102 129.977ZM34.7116 131V122.273H36.0071V123.636H36.1207C36.3026 123.17 36.5961 122.809 37.0014 122.551C37.4067 122.29 37.8935 122.159 38.4616 122.159C39.0374 122.159 39.5166 122.29 39.8991 122.551C40.2855 122.809 40.5866 123.17 40.8026 123.636H40.8935C41.117 123.186 41.4522 122.828 41.8991 122.562C42.3461 122.294 42.8821 122.159 43.5071 122.159C44.2874 122.159 44.9257 122.403 45.4219 122.892C45.9181 123.377 46.1662 124.133 46.1662 125.159V131H44.8253V125.159C44.8253 124.515 44.6491 124.055 44.2969 123.778C43.9446 123.502 43.5298 123.364 43.0526 123.364C42.4389 123.364 41.9635 123.549 41.6264 123.92C41.2893 124.288 41.1207 124.754 41.1207 125.318V131H39.7571V125.023C39.7571 124.527 39.5961 124.127 39.2741 123.824C38.9522 123.517 38.5374 123.364 38.0298 123.364C37.6813 123.364 37.3556 123.456 37.0526 123.642C36.7533 123.828 36.5109 124.085 36.3253 124.415C36.1435 124.741 36.0526 125.117 36.0526 125.545V131H34.7116ZM48.6179 131V122.273H49.9134V123.636H50.027C50.2088 123.17 50.5024 122.809 50.9077 122.551C51.313 122.29 51.7997 122.159 52.3679 122.159C52.9437 122.159 53.4228 122.29 53.8054 122.551C54.1918 122.809 54.4929 123.17 54.7088 123.636H54.7997C55.0232 123.186 55.3584 122.828 55.8054 122.562C56.2524 122.294 56.7884 122.159 57.4134 122.159C58.1937 122.159 58.8319 122.403 59.3281 122.892C59.8243 123.377 60.0724 124.133 60.0724 125.159V131H58.7315V125.159C58.7315 124.515 58.5554 124.055 58.2031 123.778C57.8509 123.502 57.4361 123.364 56.9588 123.364C56.3452 123.364 55.8698 123.549 55.5327 123.92C55.1955 124.288 55.027 124.754 55.027 125.318V131H53.6634V125.023C53.6634 124.527 53.5024 124.127 53.1804 123.824C52.8584 123.517 52.4437 123.364 51.9361 123.364C51.5876 123.364 51.2618 123.456 50.9588 123.642C50.6596 123.828 50.4171 124.085 50.2315 124.415C50.0497 124.741 49.9588 125.117 49.9588 125.545V131H48.6179ZM66.1832 131.182C65.3423 131.182 64.617 130.996 64.0071 130.625C63.401 130.25 62.9332 129.727 62.6037 129.057C62.2779 128.383 62.1151 127.598 62.1151 126.705C62.1151 125.811 62.2779 125.023 62.6037 124.341C62.9332 123.655 63.3916 123.121 63.9787 122.739C64.5696 122.352 65.259 122.159 66.0469 122.159C66.5014 122.159 66.9503 122.235 67.3935 122.386C67.8366 122.538 68.2401 122.784 68.6037 123.125C68.9673 123.462 69.2571 123.909 69.473 124.466C69.6889 125.023 69.7969 125.708 69.7969 126.523V127.091H63.0696V125.932H68.4332C68.4332 125.439 68.3348 125 68.1378 124.614C67.9446 124.227 67.6681 123.922 67.3082 123.699C66.9522 123.475 66.5317 123.364 66.0469 123.364C65.5128 123.364 65.0507 123.496 64.6605 123.761C64.2741 124.023 63.9768 124.364 63.7685 124.784C63.5601 125.205 63.456 125.655 63.456 126.136V126.909C63.456 127.568 63.5696 128.127 63.7969 128.585C64.0279 129.04 64.348 129.386 64.7571 129.625C65.1662 129.86 65.6416 129.977 66.1832 129.977C66.5355 129.977 66.8537 129.928 67.1378 129.83C67.4257 129.727 67.6738 129.576 67.8821 129.375C68.0904 129.17 68.2514 128.917 68.3651 128.614L69.6605 128.977C69.5241 129.417 69.295 129.803 68.973 130.136C68.651 130.466 68.2533 130.723 67.7798 130.909C67.3063 131.091 66.7741 131.182 66.1832 131.182ZM73.1776 125.75V131H71.8366V122.273H73.1321V123.636H73.2457C73.4503 123.193 73.7609 122.837 74.1776 122.568C74.5942 122.295 75.1321 122.159 75.7912 122.159C76.3821 122.159 76.8991 122.28 77.3423 122.523C77.7855 122.761 78.1302 123.125 78.3764 123.614C78.6226 124.098 78.7457 124.712 78.7457 125.455V131H77.4048V125.545C77.4048 124.86 77.2268 124.326 76.8707 123.943C76.5147 123.557 76.026 123.364 75.4048 123.364C74.9768 123.364 74.5942 123.456 74.2571 123.642C73.9238 123.828 73.6605 124.098 73.4673 124.455C73.2741 124.811 73.1776 125.242 73.1776 125.75ZM84.4915 131.182C83.7642 131.182 83.1222 130.998 82.5653 130.631C82.0085 130.259 81.5729 129.737 81.2585 129.062C80.9441 128.384 80.7869 127.583 80.7869 126.659C80.7869 125.742 80.9441 124.947 81.2585 124.273C81.5729 123.598 82.0104 123.078 82.571 122.71C83.1316 122.343 83.7794 122.159 84.5142 122.159C85.0824 122.159 85.5313 122.254 85.8608 122.443C86.1941 122.629 86.4479 122.841 86.6222 123.08C86.8002 123.314 86.9384 123.508 87.0369 123.659H87.1506V119.364H88.4915V131H87.196V129.659H87.0369C86.9384 129.818 86.7983 130.019 86.6165 130.261C86.4347 130.5 86.1752 130.714 85.8381 130.903C85.5009 131.089 85.0521 131.182 84.4915 131.182ZM84.6733 129.977C85.2112 129.977 85.6657 129.837 86.0369 129.557C86.4081 129.273 86.6903 128.881 86.8835 128.381C87.0767 127.877 87.1733 127.295 87.1733 126.636C87.1733 125.985 87.0786 125.415 86.8892 124.926C86.6998 124.434 86.4195 124.051 86.0483 123.778C85.6771 123.502 85.2188 123.364 84.6733 123.364C84.1051 123.364 83.6316 123.509 83.2528 123.801C82.8778 124.089 82.5956 124.481 82.4062 124.977C82.2206 125.47 82.1278 126.023 82.1278 126.636C82.1278 127.258 82.2225 127.822 82.4119 128.33C82.6051 128.833 82.8892 129.235 83.2642 129.534C83.643 129.83 84.1127 129.977 84.6733 129.977ZM93.7017 131.205C93.1487 131.205 92.6468 131.1 92.196 130.892C91.7453 130.68 91.3873 130.375 91.1222 129.977C90.857 129.576 90.7244 129.091 90.7244 128.523C90.7244 128.023 90.8229 127.617 91.0199 127.307C91.2169 126.992 91.4801 126.746 91.8097 126.568C92.1392 126.39 92.5028 126.258 92.9006 126.17C93.3021 126.08 93.7055 126.008 94.1108 125.955C94.6411 125.886 95.071 125.835 95.4006 125.801C95.7339 125.763 95.9763 125.701 96.1278 125.614C96.2831 125.527 96.3608 125.375 96.3608 125.159V125.114C96.3608 124.553 96.2074 124.117 95.9006 123.807C95.5975 123.496 95.1373 123.341 94.5199 123.341C93.8797 123.341 93.3778 123.481 93.0142 123.761C92.6506 124.042 92.3949 124.341 92.2472 124.659L90.9744 124.205C91.2017 123.674 91.5047 123.261 91.8835 122.966C92.2661 122.667 92.6828 122.458 93.1335 122.341C93.5881 122.22 94.035 122.159 94.4744 122.159C94.7547 122.159 95.0767 122.193 95.4403 122.261C95.8078 122.326 96.1619 122.46 96.5028 122.665C96.8475 122.869 97.1335 123.178 97.3608 123.591C97.5881 124.004 97.7017 124.557 97.7017 125.25V131H96.3608V129.818H96.2926C96.2017 130.008 96.0502 130.21 95.8381 130.426C95.6259 130.642 95.3438 130.826 94.9915 130.977C94.6392 131.129 94.2093 131.205 93.7017 131.205ZM93.9062 130C94.4366 130 94.8835 129.896 95.2472 129.688C95.6146 129.479 95.8911 129.21 96.0767 128.881C96.2661 128.551 96.3608 128.205 96.3608 127.841V126.614C96.304 126.682 96.179 126.744 95.9858 126.801C95.7964 126.854 95.5767 126.902 95.3267 126.943C95.0805 126.981 94.84 127.015 94.6051 127.045C94.3741 127.072 94.1866 127.095 94.0426 127.114C93.6941 127.159 93.3684 127.233 93.0653 127.335C92.7661 127.434 92.5237 127.583 92.3381 127.784C92.1563 127.981 92.0653 128.25 92.0653 128.591C92.0653 129.057 92.2377 129.409 92.5824 129.648C92.9309 129.883 93.3722 130 93.9062 130ZM103.945 122.273V123.409H99.4219V122.273H103.945ZM100.74 120.182H102.081V128.5C102.081 128.879 102.136 129.163 102.246 129.352C102.359 129.538 102.503 129.663 102.678 129.727C102.856 129.788 103.043 129.818 103.24 129.818C103.388 129.818 103.509 129.811 103.604 129.795C103.698 129.777 103.774 129.761 103.831 129.75L104.104 130.955C104.013 130.989 103.886 131.023 103.723 131.057C103.56 131.095 103.354 131.114 103.104 131.114C102.725 131.114 102.354 131.032 101.99 130.869C101.63 130.706 101.331 130.458 101.092 130.125C100.857 129.792 100.74 129.371 100.74 128.864V120.182ZM105.962 131V122.273H107.303V131H105.962ZM106.643 120.818C106.382 120.818 106.157 120.729 105.967 120.551C105.782 120.373 105.689 120.159 105.689 119.909C105.689 119.659 105.782 119.445 105.967 119.267C106.157 119.089 106.382 119 106.643 119C106.905 119 107.128 119.089 107.314 119.267C107.503 119.445 107.598 119.659 107.598 119.909C107.598 120.159 107.503 120.373 107.314 120.551C107.128 120.729 106.905 120.818 106.643 120.818ZM113.304 131.182C112.516 131.182 111.825 130.994 111.23 130.619C110.639 130.244 110.177 129.72 109.844 129.045C109.514 128.371 109.349 127.583 109.349 126.682C109.349 125.773 109.514 124.979 109.844 124.301C110.177 123.623 110.639 123.097 111.23 122.722C111.825 122.347 112.516 122.159 113.304 122.159C114.092 122.159 114.781 122.347 115.372 122.722C115.967 123.097 116.429 123.623 116.759 124.301C117.092 124.979 117.259 125.773 117.259 126.682C117.259 127.583 117.092 128.371 116.759 129.045C116.429 129.72 115.967 130.244 115.372 130.619C114.781 130.994 114.092 131.182 113.304 131.182ZM113.304 129.977C113.902 129.977 114.395 129.824 114.781 129.517C115.168 129.21 115.454 128.807 115.639 128.307C115.825 127.807 115.918 127.265 115.918 126.682C115.918 126.098 115.825 125.555 115.639 125.051C115.454 124.547 115.168 124.14 114.781 123.83C114.395 123.519 113.902 123.364 113.304 123.364C112.705 123.364 112.213 123.519 111.827 123.83C111.44 124.14 111.154 124.547 110.969 125.051C110.783 125.555 110.69 126.098 110.69 126.682C110.69 127.265 110.783 127.807 110.969 128.307C111.154 128.807 111.44 129.21 111.827 129.517C112.213 129.824 112.705 129.977 113.304 129.977ZM120.646 125.75V131H119.305V122.273H120.601V123.636H120.714C120.919 123.193 121.23 122.837 121.646 122.568C122.063 122.295 122.601 122.159 123.26 122.159C123.851 122.159 124.368 122.28 124.811 122.523C125.254 122.761 125.599 123.125 125.845 123.614C126.091 124.098 126.214 124.712 126.214 125.455V131H124.874V125.545C124.874 124.86 124.696 124.326 124.339 123.943C123.983 123.557 123.495 123.364 122.874 123.364C122.446 123.364 122.063 123.456 121.726 123.642C121.393 123.828 121.129 124.098 120.936 124.455C120.743 124.811 120.646 125.242 120.646 125.75ZM129.642 131.091C129.362 131.091 129.121 130.991 128.92 130.79C128.72 130.589 128.619 130.348 128.619 130.068C128.619 129.788 128.72 129.547 128.92 129.347C129.121 129.146 129.362 129.045 129.642 129.045C129.922 129.045 130.163 129.146 130.364 129.347C130.564 129.547 130.665 129.788 130.665 130.068C130.665 130.254 130.617 130.424 130.523 130.58C130.432 130.735 130.309 130.86 130.153 130.955C130.002 131.045 129.831 131.091 129.642 131.091ZM134.048 131.091C133.768 131.091 133.527 130.991 133.327 130.79C133.126 130.589 133.026 130.348 133.026 130.068C133.026 129.788 133.126 129.547 133.327 129.347C133.527 129.146 133.768 129.045 134.048 129.045C134.329 129.045 134.569 129.146 134.77 129.347C134.971 129.547 135.071 129.788 135.071 130.068C135.071 130.254 135.024 130.424 134.929 130.58C134.838 130.735 134.715 130.86 134.56 130.955C134.408 131.045 134.238 131.091 134.048 131.091ZM138.455 131.091C138.174 131.091 137.934 130.991 137.733 130.79C137.532 130.589 137.432 130.348 137.432 130.068C137.432 129.788 137.532 129.547 137.733 129.347C137.934 129.146 138.174 129.045 138.455 129.045C138.735 129.045 138.975 129.146 139.176 129.347C139.377 129.547 139.477 129.788 139.477 130.068C139.477 130.254 139.43 130.424 139.335 130.58C139.244 130.735 139.121 130.86 138.966 130.955C138.814 131.045 138.644 131.091 138.455 131.091Z" fill="#A8A8A8"/>
<rect y="163" width="128" height="8" rx="4" fill="#F4F4F4"/>
<rect y="163" width="64" height="8" rx="4" fill="#4589FF"/>
<path d="M142.972 161.273V170H141.915V162.381H141.864L139.733 163.795V162.722L141.915 161.273H142.972ZM148.584 160.864L145.771 171.312H144.851L147.663 160.864H148.584ZM149.759 170V169.233L152.64 166.08C152.978 165.71 153.256 165.389 153.475 165.116C153.694 164.841 153.855 164.582 153.961 164.341C154.069 164.097 154.123 163.841 154.123 163.574C154.123 163.267 154.049 163.001 153.901 162.777C153.756 162.553 153.557 162.379 153.304 162.257C153.051 162.135 152.767 162.074 152.452 162.074C152.117 162.074 151.824 162.143 151.574 162.283C151.327 162.419 151.135 162.611 150.999 162.858C150.865 163.105 150.799 163.395 150.799 163.727H149.793C149.793 163.216 149.911 162.767 150.147 162.381C150.382 161.994 150.703 161.693 151.11 161.477C151.519 161.261 151.978 161.153 152.486 161.153C152.998 161.153 153.451 161.261 153.846 161.477C154.24 161.693 154.55 161.984 154.775 162.351C154.999 162.717 155.111 163.125 155.111 163.574C155.111 163.895 155.053 164.209 154.936 164.516C154.823 164.82 154.624 165.159 154.34 165.534C154.059 165.906 153.668 166.361 153.168 166.898L151.208 168.994V169.062H155.265V170H149.759ZM165.326 163.455C165.275 163.023 165.067 162.688 164.703 162.449C164.34 162.21 163.894 162.091 163.365 162.091C162.979 162.091 162.641 162.153 162.351 162.278C162.064 162.403 161.84 162.575 161.678 162.794C161.519 163.013 161.439 163.261 161.439 163.54C161.439 163.773 161.495 163.973 161.605 164.141C161.719 164.305 161.864 164.443 162.04 164.554C162.216 164.662 162.401 164.751 162.594 164.822C162.787 164.891 162.965 164.946 163.127 164.989L164.013 165.227C164.24 165.287 164.493 165.369 164.772 165.474C165.053 165.58 165.321 165.723 165.577 165.905C165.836 166.084 166.049 166.314 166.216 166.595C166.384 166.876 166.468 167.222 166.468 167.631C166.468 168.102 166.344 168.528 166.097 168.909C165.853 169.29 165.495 169.592 165.023 169.817C164.554 170.041 163.985 170.153 163.314 170.153C162.689 170.153 162.148 170.053 161.691 169.851C161.236 169.649 160.878 169.368 160.617 169.007C160.358 168.646 160.212 168.227 160.178 167.75H161.269C161.297 168.08 161.408 168.352 161.601 168.568C161.797 168.781 162.044 168.94 162.343 169.045C162.644 169.148 162.968 169.199 163.314 169.199C163.718 169.199 164.08 169.134 164.401 169.003C164.722 168.869 164.976 168.685 165.164 168.449C165.351 168.21 165.445 167.932 165.445 167.614C165.445 167.324 165.364 167.088 165.202 166.906C165.04 166.724 164.827 166.577 164.563 166.463C164.299 166.349 164.013 166.25 163.706 166.165L162.632 165.858C161.951 165.662 161.411 165.382 161.013 165.018C160.615 164.655 160.417 164.179 160.417 163.591C160.417 163.102 160.549 162.676 160.813 162.312C161.08 161.946 161.438 161.662 161.887 161.46C162.338 161.256 162.843 161.153 163.4 161.153C163.962 161.153 164.462 161.254 164.9 161.456C165.337 161.655 165.684 161.928 165.939 162.274C166.198 162.621 166.334 163.014 166.348 163.455H165.326ZM172.194 167.324V163.455H173.2V170H172.194V168.892H172.126C171.972 169.224 171.734 169.507 171.41 169.74C171.086 169.97 170.677 170.085 170.183 170.085C169.773 170.085 169.41 169.996 169.092 169.817C168.773 169.635 168.523 169.362 168.342 168.999C168.16 168.632 168.069 168.17 168.069 167.614V163.455H169.075V167.545C169.075 168.023 169.208 168.403 169.475 168.688C169.745 168.972 170.089 169.114 170.506 169.114C170.756 169.114 171.011 169.05 171.269 168.922C171.531 168.794 171.749 168.598 171.925 168.334C172.104 168.07 172.194 167.733 172.194 167.324ZM175.178 170V161.273H176.184V164.494H176.269C176.343 164.381 176.445 164.236 176.576 164.06C176.709 163.881 176.9 163.722 177.147 163.582C177.397 163.44 177.735 163.369 178.161 163.369C178.712 163.369 179.198 163.507 179.618 163.783C180.039 164.058 180.367 164.449 180.603 164.955C180.838 165.46 180.956 166.057 180.956 166.744C180.956 167.438 180.838 168.038 180.603 168.547C180.367 169.053 180.04 169.445 179.623 169.723C179.205 169.999 178.723 170.136 178.178 170.136C177.757 170.136 177.421 170.067 177.168 169.928C176.915 169.786 176.721 169.625 176.584 169.446C176.448 169.264 176.343 169.114 176.269 168.994H176.15V170H175.178ZM176.167 166.727C176.167 167.222 176.239 167.658 176.384 168.036C176.529 168.411 176.74 168.705 177.019 168.918C177.297 169.128 177.638 169.233 178.042 169.233C178.462 169.233 178.813 169.122 179.094 168.901C179.378 168.676 179.591 168.375 179.733 167.997C179.878 167.616 179.951 167.193 179.951 166.727C179.951 166.267 179.88 165.852 179.738 165.483C179.598 165.111 179.387 164.817 179.103 164.601C178.821 164.382 178.468 164.273 178.042 164.273C177.632 164.273 177.289 164.376 177.01 164.584C176.732 164.788 176.522 165.075 176.38 165.445C176.238 165.811 176.167 166.239 176.167 166.727ZM185.341 163.455V164.307H181.949V163.455H185.341ZM182.938 161.886H183.944V168.125C183.944 168.409 183.985 168.622 184.067 168.764C184.152 168.903 184.26 168.997 184.391 169.045C184.525 169.091 184.665 169.114 184.813 169.114C184.924 169.114 185.015 169.108 185.086 169.097C185.157 169.082 185.213 169.071 185.256 169.062L185.461 169.966C185.392 169.991 185.297 170.017 185.175 170.043C185.053 170.071 184.898 170.085 184.711 170.085C184.426 170.085 184.148 170.024 183.875 169.902C183.605 169.78 183.381 169.594 183.202 169.344C183.026 169.094 182.938 168.778 182.938 168.398V161.886ZM188.78 170.153C188.365 170.153 187.989 170.075 187.651 169.919C187.313 169.76 187.044 169.531 186.846 169.233C186.647 168.932 186.547 168.568 186.547 168.142C186.547 167.767 186.621 167.463 186.769 167.23C186.917 166.994 187.114 166.81 187.361 166.676C187.608 166.543 187.881 166.443 188.179 166.378C188.48 166.31 188.783 166.256 189.087 166.216C189.485 166.165 189.807 166.126 190.054 166.101C190.304 166.072 190.486 166.026 190.6 165.96C190.716 165.895 190.775 165.781 190.775 165.619V165.585C190.775 165.165 190.659 164.838 190.429 164.605C190.202 164.372 189.857 164.256 189.394 164.256C188.914 164.256 188.537 164.361 188.265 164.571C187.992 164.781 187.8 165.006 187.689 165.244L186.735 164.903C186.905 164.506 187.132 164.196 187.417 163.974C187.703 163.75 188.016 163.594 188.354 163.506C188.695 163.415 189.03 163.369 189.36 163.369C189.57 163.369 189.811 163.395 190.084 163.446C190.36 163.494 190.625 163.595 190.881 163.749C191.14 163.902 191.354 164.134 191.525 164.443C191.695 164.753 191.78 165.168 191.78 165.688V170H190.775V169.114H190.723C190.655 169.256 190.542 169.408 190.382 169.57C190.223 169.732 190.012 169.869 189.748 169.983C189.483 170.097 189.161 170.153 188.78 170.153ZM188.934 169.25C189.331 169.25 189.667 169.172 189.939 169.016C190.215 168.859 190.422 168.658 190.561 168.411C190.703 168.163 190.775 167.903 190.775 167.631V166.71C190.732 166.761 190.638 166.808 190.493 166.851C190.351 166.891 190.186 166.926 189.999 166.957C189.814 166.986 189.634 167.011 189.458 167.034C189.284 167.054 189.144 167.071 189.036 167.085C188.775 167.119 188.53 167.175 188.303 167.251C188.078 167.325 187.897 167.437 187.757 167.588C187.621 167.736 187.553 167.937 187.553 168.193C187.553 168.543 187.682 168.807 187.941 168.986C188.202 169.162 188.533 169.25 188.934 169.25ZM198.252 164.92L197.349 165.176C197.292 165.026 197.208 164.879 197.097 164.737C196.989 164.592 196.842 164.473 196.654 164.379C196.467 164.286 196.227 164.239 195.934 164.239C195.533 164.239 195.2 164.331 194.933 164.516C194.668 164.697 194.536 164.929 194.536 165.21C194.536 165.46 194.627 165.658 194.809 165.803C194.991 165.947 195.275 166.068 195.661 166.165L196.633 166.403C197.218 166.545 197.654 166.763 197.941 167.055C198.228 167.345 198.371 167.719 198.371 168.176C198.371 168.551 198.263 168.886 198.048 169.182C197.835 169.477 197.536 169.71 197.153 169.881C196.769 170.051 196.323 170.136 195.815 170.136C195.147 170.136 194.594 169.991 194.157 169.702C193.719 169.412 193.442 168.989 193.326 168.432L194.281 168.193C194.371 168.545 194.543 168.81 194.796 168.986C195.052 169.162 195.386 169.25 195.798 169.25C196.266 169.25 196.638 169.151 196.914 168.952C197.192 168.75 197.332 168.509 197.332 168.227C197.332 168 197.252 167.81 197.093 167.656C196.934 167.5 196.69 167.384 196.36 167.307L195.269 167.051C194.67 166.909 194.229 166.689 193.948 166.391C193.67 166.089 193.531 165.713 193.531 165.261C193.531 164.892 193.634 164.565 193.842 164.281C194.052 163.997 194.337 163.774 194.698 163.612C195.062 163.45 195.474 163.369 195.934 163.369C196.582 163.369 197.09 163.511 197.46 163.795C197.832 164.08 198.096 164.455 198.252 164.92ZM200.823 167.614L200.806 166.369H201.01L203.874 163.455H205.118L202.067 166.54H201.982L200.823 167.614ZM199.885 170V161.273H200.891V170H199.885ZM204.044 170L201.488 166.761L202.203 166.062L205.323 170H204.044ZM211.049 164.92L210.146 165.176C210.089 165.026 210.005 164.879 209.894 164.737C209.786 164.592 209.638 164.473 209.451 164.379C209.263 164.286 209.023 164.239 208.731 164.239C208.33 164.239 207.996 164.331 207.729 164.516C207.465 164.697 207.333 164.929 207.333 165.21C207.333 165.46 207.424 165.658 207.606 165.803C207.788 165.947 208.072 166.068 208.458 166.165L209.43 166.403C210.015 166.545 210.451 166.763 210.738 167.055C211.025 167.345 211.168 167.719 211.168 168.176C211.168 168.551 211.06 168.886 210.844 169.182C210.631 169.477 210.333 169.71 209.95 169.881C209.566 170.051 209.12 170.136 208.612 170.136C207.944 170.136 207.391 169.991 206.954 169.702C206.516 169.412 206.239 168.989 206.123 168.432L207.077 168.193C207.168 168.545 207.34 168.81 207.593 168.986C207.849 169.162 208.183 169.25 208.594 169.25C209.063 169.25 209.435 169.151 209.711 168.952C209.989 168.75 210.129 168.509 210.129 168.227C210.129 168 210.049 167.81 209.89 167.656C209.731 167.5 209.487 167.384 209.157 167.307L208.066 167.051C207.467 166.909 207.026 166.689 206.745 166.391C206.467 166.089 206.327 165.713 206.327 165.261C206.327 164.892 206.431 164.565 206.638 164.281C206.849 163.997 207.134 163.774 207.495 163.612C207.859 163.45 208.271 163.369 208.731 163.369C209.379 163.369 209.887 163.511 210.256 163.795C210.629 164.08 210.893 164.455 211.049 164.92Z" fill="black"/>
<rect y="199" width="32" height="32" rx="16" fill="white"/>
<circle cx="16" cy="215" r="15.5" fill="#FF7A00" stroke="white"/>
<path d="M8.02224 219.19H6.91428L10.1188 210.463H11.2097L14.4143 219.19H13.3063L10.6984 211.844H10.6302L8.02224 219.19ZM8.43133 215.781H12.8972V216.719H8.43133V215.781ZM15.7737 210.463H17.035L20.0009 217.707H20.1032L23.0691 210.463H24.3305V219.19H23.3418V212.56H23.2566L20.5293 219.19H19.5748L16.8475 212.56H16.7623V219.19H15.7737V210.463Z" fill="white"/>
<rect x="24" y="199" width="32" height="32" rx="16" fill="white"/>
<circle cx="40" cy="215" r="15.5" fill="#1FD7C1" stroke="white"/>
<path d="M32.133 219.19V210.463H37.4001V211.401H33.1898V214.35H37.1273V215.287H33.1898V218.253H37.4683V219.19H32.133ZM39.3049 210.463H40.5663L43.5322 217.707H43.6345L46.6004 210.463H47.8617V219.19H46.8731V212.56H46.7879L44.0606 219.19H43.106L40.3788 212.56H40.2935V219.19H39.3049V210.463Z" fill="white"/>
<rect x="48" y="199" width="32" height="32" rx="16" fill="white"/>
<circle cx="64" cy="215" r="15.5" fill="#462F8A" stroke="white"/>
<path d="M55.8166 210.463H57.078L60.0439 217.707H60.1462L63.1121 210.463H64.3734V219.19H63.3848V212.56H63.2996L60.5723 219.19H59.6178L56.8905 212.56H56.8053V219.19H55.8166V210.463ZM66.4924 219.19V210.463H69.5435C70.1515 210.463 70.6529 210.568 71.0478 210.778C71.4427 210.986 71.7367 211.266 71.9299 211.618C72.1231 211.967 72.2197 212.355 72.2197 212.781C72.2197 213.156 72.1529 213.466 72.0194 213.71C71.8887 213.955 71.7154 214.148 71.4995 214.29C71.2864 214.432 71.0549 214.537 70.8049 214.605V214.69C71.072 214.707 71.3404 214.801 71.6103 214.972C71.8802 215.142 72.106 215.386 72.2879 215.705C72.4697 216.023 72.5606 216.412 72.5606 216.872C72.5606 217.31 72.4612 217.703 72.2623 218.053C72.0634 218.402 71.7495 218.679 71.3205 218.884C70.8916 219.088 70.3333 219.19 69.6458 219.19H66.4924ZM67.5492 218.253H69.6458C70.3362 218.253 70.8262 218.119 71.116 217.852C71.4086 217.582 71.5549 217.256 71.5549 216.872C71.5549 216.577 71.4796 216.304 71.3291 216.054C71.1785 215.801 70.964 215.6 70.6856 215.449C70.4072 215.296 70.0776 215.219 69.697 215.219H67.5492V218.253ZM67.5492 214.298H69.5095C69.8276 214.298 70.1146 214.236 70.3702 214.111C70.6288 213.986 70.8333 213.81 70.9839 213.582C71.1373 213.355 71.214 213.088 71.214 212.781C71.214 212.398 71.0805 212.073 70.8134 211.805C70.5464 211.536 70.1231 211.401 69.5435 211.401H67.5492V214.298Z" fill="white"/>
<g clip-path="url(#clip0_167122_5624)">
<path d="M211.568 218.167H196.432C196.184 218.167 195.948 218.068 195.773 217.892C195.598 217.716 195.5 217.477 195.5 217.228C195.5 216.979 195.598 216.741 195.773 216.565C195.948 216.389 196.184 216.29 196.432 216.29H211.568C211.816 216.29 212.052 216.389 212.227 216.565C212.402 216.741 212.5 216.979 212.5 217.228C212.5 217.477 212.402 217.716 212.227 217.892C212.052 218.068 211.816 218.167 211.568 218.167Z" fill="#FFA800"/>
<path d="M211.568 213.71H196.432C196.184 213.71 195.948 213.611 195.773 213.435C195.598 213.259 195.5 213.02 195.5 212.772C195.5 212.523 195.598 212.284 195.773 212.108C195.948 211.932 196.184 211.833 196.432 211.833H211.568C211.816 211.833 212.052 211.932 212.227 212.108C212.402 212.284 212.5 212.523 212.5 212.772C212.5 213.02 212.402 213.259 212.227 213.435C212.052 213.611 211.816 213.71 211.568 213.71Z" fill="#FFA800"/>
</g>
<defs>
<clipPath id="clip0_167122_5624">
<rect width="17" height="6.33333" fill="white" transform="translate(195.5 211.833)"/>
</clipPath>
</defs>
</svg>
