<svg width="56" height="57" viewBox="0 0 56 57" fill="none" xmlns="http://www.w3.org/2000/svg">
<rect width="48" height="48" rx="24" transform="matrix(1 0 0 -1 4 52.9658)" fill="white"/>
<path d="M21.9896 26.0201C21.9355 25.4745 21.7033 25.0506 21.2929 24.7485C20.8826 24.4463 20.3257 24.2953 19.6222 24.2953C19.1442 24.2953 18.7406 24.3629 18.4114 24.4982C18.0823 24.629 17.8297 24.8116 17.6539 25.0461C17.4825 25.2806 17.3968 25.5466 17.3968 25.8442C17.3878 26.0923 17.4397 26.3087 17.5524 26.4936C17.6696 26.6785 17.8297 26.8386 18.0326 26.9738C18.2356 27.1046 18.4701 27.2196 18.7361 27.3188C19.0022 27.4135 19.2863 27.4947 19.5884 27.5623L20.833 27.8599C21.4372 27.9952 21.9919 28.1756 22.4969 28.4011C23.002 28.6265 23.4394 28.9039 23.8092 29.233C24.1789 29.5622 24.4653 29.95 24.6682 30.3965C24.8756 30.8429 24.9816 31.3547 24.9861 31.9319C24.9816 32.7797 24.7652 33.5147 24.3368 34.137C23.9129 34.7548 23.2996 35.235 22.4969 35.5777C21.6988 35.9159 20.736 36.085 19.6087 36.085C18.4904 36.085 17.5163 35.9137 16.6866 35.571C15.8614 35.2283 15.2165 34.721 14.7521 34.0491C14.2921 33.3727 14.0509 32.5362 14.0283 31.5396H16.8625C16.894 32.0041 17.0271 32.3919 17.2615 32.703C17.5005 33.0096 17.8185 33.2419 18.2153 33.3997C18.6166 33.553 19.0698 33.6297 19.5749 33.6297C20.0709 33.6297 20.5015 33.5575 20.8668 33.4132C21.2366 33.2689 21.5229 33.0683 21.7258 32.8112C21.9288 32.5542 22.0302 32.2588 22.0302 31.9251C22.0302 31.614 21.9378 31.3525 21.7529 31.1405C21.5725 30.9286 21.3065 30.7482 20.9547 30.5994C20.6075 30.4506 20.1814 30.3153 19.6763 30.1935L18.1679 29.8148C17 29.5307 16.0778 29.0865 15.4014 28.4822C14.725 27.878 14.3891 27.064 14.3936 26.0404C14.3891 25.2017 14.6123 24.4689 15.0632 23.8421C15.5187 23.2153 16.1432 22.726 16.9369 22.3743C17.7305 22.0225 18.6324 21.8467 19.6425 21.8467C20.6706 21.8467 21.568 22.0225 22.3346 22.3743C23.1057 22.726 23.7054 23.2153 24.1338 23.8421C24.5622 24.4689 24.7832 25.1949 24.7967 26.0201H21.9896Z" fill="#29ABE2"/>
<path d="M26.9561 22.0361H30.5682L34.3831 31.3434H34.5454L38.3604 22.0361H41.9724V35.8889H39.1315V26.8724H39.0165L35.4315 35.8212H33.497L29.912 26.8386H29.7971V35.8889H26.9561V22.0361Z" fill="#29ABE2"/>
<circle cx="28" cy="28.9658" r="26.5" stroke="#2A3647" stroke-width="3"/>
</svg>
